<?xml version="1.0" standalone="no"?><!DOCTYPE svg PUBLIC "-//W3C//DTD SVG 1.1//EN" "http://www.w3.org/Graphics/SVG/1.1/DTD/svg11.dtd"><svg t="1703152256076" class="icon" viewBox="0 0 1024 1024" version="1.1" xmlns="http://www.w3.org/2000/svg" p-id="1001" xmlns:xlink="http://www.w3.org/1999/xlink" width="16" height="16"><path d="M387.99182128 689.8137207c-98.13537598 0-177.89611817-79.84313965-177.89611816-177.89611817 0-98.13537598 79.84313965-177.89611817 177.89611817-177.89611816 1.89514161 0 3.7902832-0.16479492 5.60302734-0.49438476v48.03771973c0 10.1348877 11.53564453 15.98510742 19.69299317 9.97009277l109.2590332-80.41992188c6.67419434-4.94384766 6.67419434-14.99633789 0-19.94018554l-109.2590332-80.41992188c-8.15734864-6.01501465-19.69299317-0.16479492-19.69299317 9.97009278v47.8729248c-1.81274414-0.32958984-3.70788575-0.49438477-5.60302734-0.49438477-32.79418945 0-64.68200684 6.50939942-94.75708008 19.28100586-29.00390625 12.35961914-55.04150391 29.91027833-77.45361329 52.32238769s-40.04516602 48.44970703-52.32238769 77.45361329c-12.77160645 30.07507325-19.28100586 61.96289063-19.28100586 94.75708007s6.50939942 64.68200684 19.28100586 94.75708008c12.35961914 29.00390625 29.91027833 55.04150391 52.32238769 77.45361328s48.44970703 40.04516602 77.45361329 52.3223877c30.07507325 12.77160645 61.96289063 19.28100586 94.75708007 19.28100586 18.20983887 0 32.95898438-14.74914551 32.95898438-32.95898437s-14.74914551-32.95898438-32.95898438-32.95898438z m475.18615724-272.65319824c-12.35961914-29.00390625-29.91027833-55.04150391-52.3223877-77.45361328s-48.44970703-40.04516602-77.45361328-52.3223877c-30.07507325-12.77160645-61.96289063-19.28100586-94.75708007-19.28100586-18.20983887 0-32.95898438 14.74914551-32.95898438 32.95898438s14.74914551 32.95898438 32.95898438 32.95898437c98.13537598 0 177.89611817 79.84313965 177.89611815 177.89611817 0 98.13537598-79.84313965 177.89611817-177.89611816 177.89611816-3.3782959 0-6.67419434 0.49438477-9.72290039 1.4831543v-50.09765625c0-10.1348877-11.53564453-15.98510742-19.69299316-9.97009278l-109.25903321 80.41992189c-6.67419434 4.94384766-6.67419434 14.99633789 0 19.94018554L609.14660645 811.92675781c8.15734864 6.01501465 19.69299317 0.16479492 19.69299316-9.97009278V754.24853516c3.04870606 0.98876953 6.3446045 1.4831543 9.72290039 1.48315429 32.79418945 0 64.68200684-6.50939942 94.75708008-19.28100586 29.00390625-12.35961914 55.04150391-29.91027833 77.45361328-52.3223877s40.04516602-48.44970703 52.3223877-77.45361327c12.77160645-30.07507325 19.28100586-61.96289063 19.28100586-94.75708008s-6.42700195-64.68200684-19.1986084-94.75708007z" p-id="1002"></path></svg>