<?xml version="1.0" standalone="no"?><!DOCTYPE svg PUBLIC "-//W3C//DTD SVG 1.1//EN" "http://www.w3.org/Graphics/SVG/1.1/DTD/svg11.dtd"><svg t="1711336857175" class="icon" viewBox="0 0 1024 1024" version="1.1" xmlns="http://www.w3.org/2000/svg" p-id="2303" xmlns:xlink="http://www.w3.org/1999/xlink" width="16" height="16"><path d="M409.82040938 658.51399106c-80.86105808 0-146.58188448-65.78871981-146.58188447-146.58188448 0-80.86105808 65.78871981-146.58188448 146.58188448-146.58188447 1.56154857 0 3.12309712-0.13578683 4.61675226-0.40736049v39.58186135c0 8.35089013 9.5050782 13.17132264 16.22652636 8.21510329l90.02666919-66.26397372c5.49936668-4.07360495 5.49936668-12.35660166 0-16.43020658l-90.02666919-66.26397372c-6.72144816-4.95621935-16.22652636-0.13578683-16.22652636 8.2151033v39.44607451c-1.49365514-0.27157366-3.05520371-0.40736049-4.61675226-0.4073605-27.02157944 0-53.29633132 5.36357985-78.07742805 15.88705927-23.89848232 10.18401235-45.35280169 24.6453099-63.81981075 43.11231897s-32.99620002 39.92132842-43.11231896 63.81981076c-10.52347943 24.78109673-15.88705927 51.05584861-15.88705927 78.07742803s5.36357985 53.29633132 15.88705927 78.07742805c10.18401235 23.89848232 24.6453099 45.35280169 43.11231896 63.81981074s39.92132842 32.99620002 63.81981075 43.11231897c24.78109673 10.52347943 51.05584861 15.88705927 78.07742804 15.88705927 15.00444487 0 27.15736628-12.15292141 27.15736628-27.15736628s-12.15292141-27.15736628-27.15736628-27.15736627z m391.54132829-224.65931251c-10.18401235-23.89848232-24.6453099-45.35280169-43.11231896-63.81981075s-39.92132842-32.99620002-63.81981075-43.11231897c-24.78109673-10.52347943-51.05584861-15.88705927-78.07742804-15.88705928-15.00444487 0-27.15736628 12.15292141-27.15736628 27.15736628s12.15292141 27.15736628 27.15736628 27.15736628c80.86105808 0 146.58188448 65.78871981 146.58188446 146.58188448 0 80.86105808-65.78871981 146.58188448-146.58188446 146.58188447-2.78363004 0-5.49936668 0.40736049-8.01142306 1.22208148v-41.27919673c0-8.35089013-9.5050782-13.17132264-16.22652634-8.21510331l-90.02666921 66.26397372c-5.49936668 4.07360495-5.49936668 12.35660166 0 16.4302066L592.04633711 759.13203311c6.72144816 4.95621935 16.22652636 0.13578683 16.22652633-8.2151033V711.60664213c2.51205638 0.81472099 5.22779302 1.22208149 8.01142306 1.22208148 27.02157944 0 53.29633132-5.36357985 78.07742803-15.88705927 23.89848232-10.18401235 45.35280169-24.6453099 63.81981075-43.11231897s32.99620002-39.92132842 43.11231898-63.81981074c10.52347943-24.78109673 15.88705927-51.05584861 15.88705927-78.07742804s-5.29568642-53.29633132-15.81916586-78.07742803z" p-id="2304"></path></svg>