<?xml version="1.0" standalone="no"?><!DOCTYPE svg PUBLIC "-//W3C//DTD SVG 1.1//EN" "http://www.w3.org/Graphics/SVG/1.1/DTD/svg11.dtd"><svg t="1711336854302" class="icon" viewBox="0 0 1024 1024" version="1.1" xmlns="http://www.w3.org/2000/svg" p-id="2137" xmlns:xlink="http://www.w3.org/1999/xlink" width="16" height="16"><path d="M719.91679621 247.05273462H304.08320379c-30.30762076 0-56.70458078 26.39696002-56.70458079 56.70458077v415.83359242c0 30.30762076 26.39696002 56.70458078 56.7045808 56.70458078h415.8335924c30.30762076 0 56.70458078-26.39696002 56.7045808-56.70458077V303.75731539c0-30.30762076-26.39696002-56.70458078-56.7045808-56.70458077z m18.90152693 472.5381732c0 11.40609383-7.49543309 18.90152693-18.90152694 18.90152692H304.08320379c-11.40609383 0-18.90152693-7.49543309-18.90152693-18.90152692V303.75731539c0-11.40609383 7.49543309-18.90152693 18.90152694-18.90152692h415.8335924c11.40609383 0 18.90152693 7.49543309 18.90152694 18.90152692v415.83359243z" p-id="2138"></path><path d="M670.70764852 556.64671015c-8.47309828-8.47309828-21.83452249-8.47309828-30.30762077 0l-27.37462521 27.37462521-28.67817879-28.67817878c-8.47309828-8.47309828-21.83452249-8.47309828-30.30762076 0-8.47309828 8.47309828-8.47309828 21.83452249 0 30.30762077l28.67817879 28.67817878-27.3746252 27.37462521c-8.47309828 8.47309828-8.47309828 21.83452249 0 30.30762076s21.83452249 8.47309828 30.30762076 0l27.3746252-27.37462521 26.07107161 26.07107163c8.47309828 8.47309828 21.83452249 8.47309828 30.30762079 0s8.47309828-21.83452249 0-30.30762077l-26.07107163-26.07107162 27.37462521-27.37462521c8.14720987-8.47309828 8.14720987-22.16041088 0-30.30762077z" p-id="2139"></path><path d="M645.94013049 378.38575792m-21.50863411 0a21.50863409 21.50863409 0 1 0 43.01726819 0 21.50863409 21.50863409 0 1 0-43.01726819 0Z" p-id="2140"></path><path d="M379.03753471 644.63657689m-21.50863409 0a21.50863409 21.50863409 0 1 0 43.01726818 0 21.50863409 21.50863409 0 1 0-43.01726817 0Z" p-id="2141"></path><path d="M533.83452249 373.17154361L425.96546364 481.36649083c-8.47309828 8.47309828-21.83452249 8.47309828-30.30762076 0-8.47309828-8.47309828-8.47309828-21.83452249 0-30.30762076l107.86905884-107.86905884c8.47309828-8.47309828 21.83452249-8.47309828 30.30762077-1e-8 8.47309828 8.14720987 8.47309828 21.83452249 0 29.98173239z" p-id="2142"></path><path d="M395.98373127 481.69237924L338.6273737 424.66191006c-8.14720987-8.14720987-8.14720987-21.18274569 0-29.32995559l0.97766519-0.97766517c8.14720987-8.14720987 21.18274569-8.14720987 29.32995557 0l57.35635757 57.35635757c8.14720987 8.14720987 8.14720987 21.18274569 0 29.32995558l-0.97766518 0.97766518a20.95462382 20.95462382 0 0 1-29.32995558-0.32588839zM660.60510826 393.05073571l-267.22848416 267.22848416c-8.47309828 8.47309828-21.83452249 8.47309828-30.30762076 0-8.47309828-8.47309828-8.47309828-21.83452249 0-30.30762076l267.22848415-267.22848416c8.47309828-8.47309828 21.83452249-8.47309828 30.30762076 0 8.47309828 8.47309828 8.47309828 22.16041088 0 30.30762076z" p-id="2143"></path></svg>