<?xml version="1.0" standalone="no"?><!DOCTYPE svg PUBLIC "-//W3C//DTD SVG 1.1//EN" "http://www.w3.org/Graphics/SVG/1.1/DTD/svg11.dtd"><svg t="1703152259952" class="icon" viewBox="0 0 1024 1024" version="1.1" xmlns="http://www.w3.org/2000/svg" p-id="1154" xmlns:xlink="http://www.w3.org/1999/xlink" width="16" height="16"><path d="M748.56311036 210.54888916H275.43688964c-34.4833374 0-64.51721192 30.03387451-64.51721191 64.51721191v473.1262207c0 34.4833374 30.03387451 64.51721192 64.51721192 64.51721192h473.1262207c34.4833374 0 64.51721192-30.03387451 64.51721192-64.51721191V275.06610107c0-34.4833374-30.03387451-64.51721192-64.51721192-64.51721191z m21.5057373 537.64343262c0 12.9776001-8.52813721 21.50573731-21.50573731 21.5057373H275.43688964c-12.9776001 0-21.50573731-8.52813721-21.5057373-21.5057373V275.06610107c0-12.9776001 8.52813721-21.50573731 21.50573731-21.5057373h473.1262207c12.9776001 0 21.50573731 8.52813721 21.50573731 21.5057373v473.12622071z" p-id="1155"></path><path d="M692.57403565 562.79803467c-9.64050293-9.64050293-24.84283448-9.64050293-34.48333741 0l-31.14624024 31.14624023-32.62939453-32.62939453c-9.64050293-9.64050293-24.84283448-9.64050293-34.4833374 0-9.64050293 9.64050293-9.64050293 24.84283448 0 34.48333741l32.62939453 32.62939453-31.14624023 31.14624023c-9.64050293 9.64050293-9.64050293 24.84283448 0 34.4833374s24.84283448 9.64050293 34.4833374 0l31.14624023-31.14624023 29.66308594 29.66308594c9.64050293 9.64050293 24.84283448 9.64050293 34.48333741 0s9.64050293-24.84283448 0-34.4833374l-29.66308594-29.66308594 31.14624024-31.14624023c9.26971435-9.64050293 9.26971435-25.21362305 0-34.48333741z" p-id="1156"></path><path d="M664.39410401 359.97668457m-24.47204591 0a24.4720459 24.4720459 0 1 0 48.9440918 0 24.4720459 24.4720459 0 1 0-48.9440918 0Z" p-id="1157"></path><path d="M360.71826172 662.91094971m-24.4720459 0a24.4720459 24.4720459 0 1 0 48.9440918 0 24.4720459 24.4720459 0 1 0-48.94409179 0Z" p-id="1158"></path><path d="M536.84283448 354.04406738L414.11181641 477.14587402c-9.64050293 9.64050293-24.84283448 9.64050293-34.4833374 0-9.64050293-9.64050293-9.64050293-24.84283448 0-34.4833374l122.73101806-122.73101806c9.64050293-9.64050293 24.84283448-9.64050293 34.4833374-1e-8 9.64050293 9.26971435 9.64050293 24.84283448 0 34.11254883z" p-id="1159"></path><path d="M379.99926758 477.5166626L314.74047852 412.62866211c-9.26971435-9.26971435-9.26971435-24.10125732 0-33.37097168l1.11236572-1.11236572c9.26971435-9.26971435 24.10125732-9.26971435 33.37097168 0l65.25878906 65.25878906c9.26971435 9.26971435 9.26971435 24.10125732 0 33.37097168l-1.11236572 1.11236572a23.84170532 23.84170532 0 0 1-33.37097168-0.37078857zM681.07958984 376.66217041l-304.04663086 304.04663086c-9.64050293 9.64050293-24.84283448 9.64050293-34.4833374 0-9.64050293-9.64050293-9.64050293-24.84283448 0-34.4833374l304.04663086-304.04663086c9.64050293-9.64050293 24.84283448-9.64050293 34.4833374 0 9.64050293 9.64050293 9.64050293 25.21362305 0 34.4833374z" p-id="1160"></path></svg>