<?xml version="1.0" standalone="no"?><!DOCTYPE svg PUBLIC "-//W3C//DTD SVG 1.1//EN" "http://www.w3.org/Graphics/SVG/1.1/DTD/svg11.dtd"><svg t="1711336851731" class="icon" viewBox="0 0 1024 1024" version="1.1" xmlns="http://www.w3.org/2000/svg" p-id="1976" xmlns:xlink="http://www.w3.org/1999/xlink" width="16" height="16"><path d="M736.0830804 505.20634879l7.41125588 13.64100717-3.59821843 6.5788322-3.81303745 7.06217497c-39.90263123 72.60882559-126.55524961 130.15346803-211.59672542 130.15346804-85.14888532 0-171.80150371-57.59834722-211.32820165-129.9655014l-7.92145101-13.88267856 3.94729932-6.84735596 3.86674219-6.7130941C352.57744178 432.59752322 439.25691253 375.05288074 524.45950261 375.05288074c85.12203293 0 171.72094657 57.46408533 211.59672541 130.18032041z m-152.30667848-23.14674839c0-1.55743783-0.64445703-2.9537614-0.96668557-4.56490398a71.96436854 71.96436854 0 0 1-58.56503276 113.47814234 71.96436854 71.96436854 0 0 1-71.77640189-72.1254828 71.99122092 71.99122092 0 0 1 71.77640189-72.3403018c15.22529738 0 29.45705683 4.99454199 41.08413578 13.18451676-1.58429019-0.21481901-3.03431853-0.8055713-4.61860871-0.80557128a23.30786266 23.30786266 0 0 0 0 46.53516816 23.09304364 23.09304364 0 0 0 23.06619126-23.3615674z m-59.31689931-79.05339589c-74.08570628 0-151.52795959 51.42230065-186.51660594 115.73374195 35.06920347 64.47255556 112.51145679 115.94856096 186.51660594 115.94856096 73.97829676 0 151.44740246-51.44915304 186.59716307-115.46521818v-0.75186655c-35.17661299-64.12347467-112.56516155-115.4652182-186.59716308-115.46521818z m-234.60921192-7.51866537a17.07811135 17.07811135 0 1 1-34.15622269 0V289.87714307c0-18.87722055 15.3058545-34.15622269 34.15622269-34.15622269h109.74566202a17.07811135 17.07811135 0 0 1 0 34.15622269H289.85029069v105.66410082z m351.60501555-105.63724845a17.07811135 17.07811135 0 1 1 1e-8-34.15622269h102.44181568c18.87722055 0 34.18307506 15.3058545 34.18307506 34.15622269V395.72921053a17.07811135 17.07811135 0 1 1-34.18307506 0V289.85029069h-102.44181568z m102.44181569 354.71989121a17.07811135 17.07811135 0 0 1 34.18307506 0v99.3537924c0 18.85036818-15.3058545 34.15622269-34.18307506 34.15622269h-105.52983896a17.07811135 17.07811135 0 0 1 0-34.18307507h105.52983896v-99.3537924z m-348.5169923 99.3537924a17.07811135 17.07811135 0 0 1 0 34.15622269h-105.52983894c-18.87722055 0-34.15622269-15.3058545-34.15622269-34.18307507V639.01173999a17.07811135 17.07811135 0 0 1 34.15622269 1e-8v104.88538193h105.52983894z" fill="#414F58" p-id="1977"></path></svg>