<?xml version="1.0" standalone="no"?><!DOCTYPE svg PUBLIC "-//W3C//DTD SVG 1.1//EN" "http://www.w3.org/Graphics/SVG/1.1/DTD/svg11.dtd"><svg t="1703152262300" class="icon" viewBox="0 0 1024 1024" version="1.1" xmlns="http://www.w3.org/2000/svg" p-id="1312" xmlns:xlink="http://www.w3.org/1999/xlink" width="16" height="16"><path d="M783.95386588 503.75502359l8.99451972 16.55513049-4.3669045 7.98426569-4.62761522 8.57086478c-48.42701555 88.1202221-153.59120071 157.95810521-256.8000555 157.95810522-103.33921014 0-208.50339532-69.9030608-256.47416711-157.72998333l-9.61370766-16.84843003 4.79055941-8.31015408 4.69279291-8.1472099C318.52005971 415.63480151 423.71683371 345.79691838 527.12122154 345.79691838c103.3066213 0 208.40562879 69.7401166 256.80005549 157.99069405z m-184.84389781-28.09157966c0-1.89015269-0.78213215-3.58477236-1.17319824-5.54010274a87.33808994 87.33808994 0 0 1-71.07625901 137.72043587 87.33808994 87.33808994 0 0 1-87.10996806-87.53362298 87.37067878 87.37067878 0 0 1 87.10996806-87.79433369c18.47787202 0 35.74995697 6.06152415 49.86092449 16.00112021-1.92274153-0.26071072-3.68253887-0.97766519-5.60528039-0.97766519a28.28711273 28.28711273 0 0 0 0 56.4764589 28.02640199 28.02640199 0 0 0 27.99381315-28.35229038z m-71.98874653-95.94154358c-89.91260827 0-183.89882147 62.4076277-226.36207939 140.45789837 42.56102442 78.24580372 136.54723763 140.71860909 226.36207939 140.7186091 89.7822529 0 183.80105495-62.44021655 226.45984591-140.13200997v-0.91248752c-42.69137979-77.82214881-136.61241532-140.13200999-226.45984592-140.13200998z m-284.72869097-9.12487507a20.72650195 20.72650195 0 1 1-41.45300389 0V242.42511941c0-22.90995419 18.57563853-41.45300389 41.45300389-41.45300389h133.19058715a20.72650195 20.72650195 0 0 1 0 41.45300389H242.39253057v128.23708354z m426.7182648-128.20449471a20.72650195 20.72650195 0 1 1 1e-8-41.45300389h124.32642282c22.90995419 0 41.48559273 18.57563853 41.48559272 41.45300389V370.89032484a20.72650195 20.72650195 0 1 1-41.48559272 0V242.39253057h-124.32642282z m124.32642283 430.4985702a20.72650195 20.72650195 0 0 1 41.48559272 0v120.57870627c0 22.87736535-18.57563853 41.45300389-41.48559272 41.45300388h-128.07413937a20.72650195 20.72650195 0 0 1 0-41.48559273h128.07413937v-120.57870628z m-422.97054828 120.57870627a20.72650195 20.72650195 0 0 1 0 41.45300388h-128.07413935c-22.90995419 0-41.45300389-18.57563853-41.45300389-41.48559273V666.14521097a20.72650195 20.72650195 0 0 1 41.45300389 0v127.29200723h128.07413935z" p-id="1313"></path></svg>