<?xml version="1.0" standalone="no"?><!DOCTYPE svg PUBLIC "-//W3C//DTD SVG 1.1//EN" "http://www.w3.org/Graphics/SVG/1.1/DTD/svg11.dtd"><svg t="1705476050524" class="icon" viewBox="0 0 1024 1024" version="1.1" xmlns="http://www.w3.org/2000/svg" p-id="1070" xmlns:xlink="http://www.w3.org/1999/xlink" width="16" height="16"><path d="M715.68024687 817.5203706L308.31975313 817.5203706c-56.01206814 0-101.84012373-45.8280556-101.84012373-101.84012372L206.4796294 308.31975313c0-56.01206814 45.8280556-101.84012373 101.84012372-101.84012373l407.36049434 0c56.01206814 0 101.84012373 45.8280556 101.84012375 101.84012372l0 407.36049434C817.5203706 771.69231501 771.69231501 817.5203706 715.68024687 817.5203706zM308.31975313 257.39969097C280.31371876 257.39969097 257.39969097 280.31371876 257.39969097 308.31975313l0 407.36049433c0 28.00603378 22.9140278 50.92006157 50.92006157 50.92006157l407.36049434 0c28.00603378 0 50.92006157-22.9140278 50.92006156-50.92006157L766.60030903 308.31975313c0-28.00603378-22.9140278-50.92006157-50.92006157-50.92006157L308.31975313 257.39969097z" p-id="1071"></path><path d="M639.30015422 410.15987627L384.69984578 410.15987627C369.42382724 410.15987627 359.23981469 399.9758643 359.23981469 384.69984578s10.18401254-25.46003107 25.46003109-25.46003109l254.60030903 0c15.27601854 0 25.46003107 10.18401254 25.4600311 25.46003109S654.57617276 410.15987627 639.30015422 410.15987627z" p-id="1072"></path><path d="M384.69984578 435.61990735C369.42382724 435.61990735 359.23981469 425.4358948 359.23981469 410.15987627L359.23981469 384.69984578c0-15.27601854 10.18401254-25.46003107 25.46003109-25.46003109s25.46003107 10.18401254 25.46003108 25.46003109l0 25.46003108C410.15987627 425.4358948 399.9758643 435.61990735 384.69984578 435.61990735z" p-id="1073"></path><path d="M639.30015422 435.61990735c-15.27601854 0-25.46003107-10.18401254-25.46003108-25.46003108L613.84012373 384.69984578c0-15.27601854 10.18401254-25.46003107 25.46003109-25.46003109s25.46003107 10.18401254 25.46003109 25.46003109l0 25.46003108C664.76018531 425.4358948 654.57617276 435.61990735 639.30015422 435.61990735z" p-id="1074"></path><path d="M512 664.76018531c-15.27601854 0-25.46003107-10.18401254-25.46003107-25.46003109L486.53996893 384.69984578c0-15.27601854 10.18401254-25.46003107 25.46003107-25.46003109s25.46003107 10.18401254 25.46003107 25.46003109l1e-8 254.60030903C537.46003107 654.57617276 527.27601854 664.76018531 512 664.76018531z" p-id="1075"></path><path d="M537.46003107 664.76018531l-50.92006155 0c-15.27601854 0-25.46003107-10.18401254-25.46003109-25.46003109s10.18401254-25.46003107 25.46003109-25.46003108l50.92006156 0c15.27601854 0 25.46003107 10.18401254 25.46003109 25.46003108S552.73604961 664.76018531 537.46003107 664.76018531z" p-id="1076"></path></svg>