<?xml version="1.0" standalone="no"?><!DOCTYPE svg PUBLIC "-//W3C//DTD SVG 1.1//EN" "http://www.w3.org/Graphics/SVG/1.1/DTD/svg11.dtd"><svg t="1711336838864" class="icon" viewBox="0 0 1024 1024" version="1.1" xmlns="http://www.w3.org/2000/svg" p-id="1493" xmlns:xlink="http://www.w3.org/1999/xlink" width="16" height="16"><path d="M679.82735186 763.74102802L344.17264814 763.74102802c-46.15252196 0-83.91367617-37.76115422-83.91367616-83.91367616L260.25897198 344.17264814c0-46.15252196 37.76115422-83.91367617 83.91367616-83.91367616l335.65470419 0c46.15252196 0 83.91367617 37.76115422 83.9136762 83.91367616l0 335.65470419C763.74102802 725.97987382 725.97987382 763.74102802 679.82735186 763.74102802zM344.17264814 302.21580982C321.09638692 302.21580982 302.21580982 321.09638692 302.21580982 344.17264814l0 335.65470419c0 23.07626075 18.8805771 41.95683784 41.95683785 41.95683785l335.65470419 0c23.07626075 0 41.95683784-18.8805771 41.95683783-41.95683785L721.78419018 344.17264814c0-23.07626075-18.8805771-41.95683784-41.95683785-41.95683783L344.17264814 302.21580982z" p-id="1494"></path><path d="M616.89209485 428.08632383L407.10790515 428.08632383C394.52085374 428.08632383 386.12948598 419.69495654 386.12948598 407.10790515s8.39136776-20.97841915 20.97841917-20.97841917l209.78419017 0c12.58705141 0 20.97841915 8.39136776 20.9784192 20.97841917S629.47914626 428.08632383 616.89209485 428.08632383z" p-id="1495"></path><path d="M407.10790515 449.06474299C394.52085374 449.06474299 386.12948598 440.67337524 386.12948598 428.08632383L386.12948598 407.10790515c0-12.58705141 8.39136776-20.97841915 20.97841917-20.97841917s20.97841915 8.39136776 20.97841917 20.97841917l0 20.97841917C428.08632383 440.67337524 419.69495654 449.06474299 407.10790515 449.06474299z" p-id="1496"></path><path d="M616.89209485 449.06474299c-12.58705141 0-20.97841915-8.39136776-20.97841917-20.97841916L595.91367617 407.10790515c0-12.58705141 8.39136776-20.97841915 20.97841916-20.97841917s20.97841915 8.39136776 20.97841919 20.97841917l0 20.97841917C637.87051402 440.67337524 629.47914626 449.06474299 616.89209485 449.06474299z" p-id="1497"></path><path d="M512 637.87051402c-12.58705141 0-20.97841915-8.39136776-20.97841915-20.97841917L491.02158085 407.10790515c0-12.58705141 8.39136776-20.97841915 20.97841915-20.97841917s20.97841915 8.39136776 20.97841915 20.97841917l1e-8 209.78419017C532.97841915 629.47914626 524.58705141 637.87051402 512 637.87051402z" p-id="1498"></path><path d="M532.97841915 637.87051402l-41.95683783 0c-12.58705141 0-20.97841915-8.39136776-20.97841916-20.97841917s8.39136776-20.97841915 20.97841916-20.97841917l41.95683784 0c12.58705141 0 20.97841915 8.39136776 20.97841917 20.97841917S545.56547056 637.87051402 532.97841915 637.87051402z" p-id="1499"></path></svg>