<?xml version="1.0" standalone="no"?><!DOCTYPE svg PUBLIC "-//W3C//DTD SVG 1.1//EN" "http://www.w3.org/Graphics/SVG/1.1/DTD/svg11.dtd"><svg t="1711336847042" class="icon" viewBox="0 0 1024 1024" version="1.1" xmlns="http://www.w3.org/2000/svg" p-id="1659" xmlns:xlink="http://www.w3.org/1999/xlink" width="16" height="16"><path d="M269.1103096 258.24156952a11.58714294 11.58714294 0 0 1 2.08568573 22.96571732l-2.08568573 0.18539429h-23.17428589a11.58714294 11.58714294 0 0 0-11.37857437 9.50145721l-0.18539429 2.08568573v440.31143188a11.58714294 11.58714294 0 0 0 9.50145721 11.40174866l2.08568574 0.18539429h23.1511116a11.58714294 11.58714294 0 0 1 2.08568573 22.9888916l-2.08568573 0.18539428h-23.17428589a34.76142883 34.76142883 0 0 1-34.57603454-31.40115737l-0.16222-3.36027146v-440.31143188a34.76142883 34.76142883 0 0 1 31.40115737-34.59920884l3.36027146-0.16222h23.1511116z m509.83428955 1e-8l3.33709717 0.1390457A34.76142883 34.76142883 0 0 1 813.72920227 293.00299835v440.31143189l-0.16221999 3.36027144a34.76142883 34.76142883 0 0 1-34.59920884 31.40115738h-23.17428589l-2.08568573-0.18539428a11.58714294 11.58714294 0 0 1 2.08568573-22.98889161h23.17428589l2.08568573-0.18539428a11.58714294 11.58714294 0 0 0 9.50145721-11.40174866v-440.31143187l-0.18539429-2.08568574a11.58714294 11.58714294 0 0 0-11.40174865-9.50145721h-23.17428589l-2.08568573-0.18539429a11.58714294 11.58714294 0 0 1 2.08568573-22.9888916h23.17428589z" fill="#5D6D7E" p-id="1660"></path><path d="M422.24599075 627.87142945l74.94564057-104.07571793c2.15520859-3.05900573 5.35326004-8.01830292 9.64050293-14.90106583l4.63485717-7.50846863c4.47263718 7.18402863 8.80622864 13.85822297 13.02394867 19.95306015L599.64514923 627.87142945h48.89774322l-113.04416657-157.86323548 104.88681795-140.7374382h-42.96512605l-60.0909233 79.25605773c-9.10749436 11.79571152-16.98675156 23.12793732-23.6377716 33.99667741-4.75072861-8.57448578-12.74585724-20.78733444-24.03173447-36.66172028l-54.18148042-76.59101486h-47.04380035l101.8278122 142.98534393L374.80822753 627.87142945h47.46093751z" fill="#30AD98" p-id="1661"></path><path d="M419.30285644 674.22000122a23.17428589 23.17428589 0 1 1 1e-8 46.34857178 23.17428589 23.17428589 0 0 1 0-46.34857178z m92.69714356 0a23.17428589 23.17428589 0 1 1 0 46.34857178 23.17428589 23.17428589 0 0 1 0-46.34857178z m92.69714356 0a23.17428589 23.17428589 0 1 1-1e-8 46.34857178 23.17428589 23.17428589 0 0 1 0-46.34857178z" fill="#95A1AF" p-id="1662"></path></svg>