<?xml version="1.0" standalone="no"?><!DOCTYPE svg PUBLIC "-//W3C//DTD SVG 1.1//EN" "http://www.w3.org/Graphics/SVG/1.1/DTD/svg11.dtd"><svg t="1703153553547" class="icon" viewBox="0 0 1024 1024" version="1.1" xmlns="http://www.w3.org/2000/svg" p-id="1033" xmlns:xlink="http://www.w3.org/1999/xlink" width="16" height="16"><path d="M217.221875 204.03125a14.0625 14.0625 0 0 1 2.53125 27.871875l-2.53125 0.225h-28.125a14.0625 14.0625 0 0 0-13.809375 11.53125l-0.225 2.53125v534.375a14.0625 14.0625 0 0 0 11.53125 13.8375l2.53125 0.225h28.096875a14.0625 14.0625 0 0 1 2.53125 27.9l-2.53125 0.225h-28.125a42.1875 42.1875 0 0 1-41.9625-38.109375l-0.196875-4.078125v-534.375a42.1875 42.1875 0 0 1 38.109375-41.990625l4.078125-0.196875h28.096875z m618.75 0l4.05 0.16875A42.1875 42.1875 0 0 1 878.1875 246.21875v534.375l-0.196875 4.078125a42.1875 42.1875 0 0 1-41.990625 38.109375h-28.125l-2.53125-0.225a14.0625 14.0625 0 0 1 2.53125-27.9h28.125l2.53125-0.225a14.0625 14.0625 0 0 0 11.53125-13.8375v-534.375l-0.225-2.53125a14.0625 14.0625 0 0 0-13.8375-11.53125h-28.125l-2.53125-0.225a14.0625 14.0625 0 0 1 2.53125-27.9h28.125z"></path><path d="M403.071875 652.625l90.95625-126.309375c2.615625-3.7125 6.496875-9.73125 11.7-18.084375l5.625-9.1125c5.428125 8.71875 10.6875 16.81875 15.80625 24.215625L618.36875 652.625h59.34375l-137.19375-191.5875 127.29375-170.803125h-52.14375l-72.928125 96.1875c-11.053125 14.315625-20.615625 28.06875-28.6875 41.259375-5.765625-10.40625-15.46875-25.228125-29.165625-44.49375l-65.75625-92.953125h-57.09375l123.58125 173.53125L345.5 652.625h57.6z"></path><path d="M399.5 708.875a28.125 28.125 0 1 1 0 56.25 28.125 28.125 0 0 1 0-56.25z m112.5 0a28.125 28.125 0 1 1 0 56.25 28.125 28.125 0 0 1 0-56.25z m112.5 0a28.125 28.125 0 1 1 0 56.25 28.125 28.125 0 0 1 0-56.25z" p-id="1036"></path></svg>