<?xml version="1.0" standalone="no"?><!DOCTYPE svg PUBLIC "-//W3C//DTD SVG 1.1//EN" "http://www.w3.org/Graphics/SVG/1.1/DTD/svg11.dtd"><svg t="1716391786505" class="icon" viewBox="0 0 1024 1024" version="1.1" xmlns="http://www.w3.org/2000/svg" p-id="1046" xmlns:xlink="http://www.w3.org/1999/xlink" width="16" height="16"><path d="M526.32126738 601.50792108c-14.32126738 0-21.48190106-10.74095052-21.48190105-21.48190106s7.16063367-25.0622179 21.48190104-25.0622179c21.48190106 0 39.38348528-17.90158422 39.38348528-39.38348527V340.14479153c0-21.48190106-17.90158422-39.38348528-39.38348528-39.38348528h-179.01584214c-21.48190106 0-39.38348528 17.90158422-39.38348528 39.38348528v175.43552532c0 21.48190106 17.90158422 39.38348528 39.38348528 39.38348528 14.32126738 0 21.48190106 10.74095052 21.48190104 21.48190104s-10.74095052 21.48190106-21.48190104 21.48190106C300.76130625 597.92760423 261.37782099 558.54411895 261.37782099 512V340.14479153C261.37782099 293.60067258 300.76130625 254.21718731 347.30542523 254.21718731h175.43552529c46.54411895 0 85.92760423 39.38348528 85.92760424 85.92760422v175.43552532c0 46.54411895-35.80316842 85.92760423-82.34728738 85.92760423z" fill="#333333" p-id="1047"></path><path d="M676.69457477 787.68439691h-179.01584214c-46.54411895 0-85.92760423-39.38348528-85.92760422-85.92760424V526.32126738C415.33144524 479.77714841 451.13461367 440.39366314 497.67873262 440.39366314c14.32126738 0 25.0622179 10.74095052 25.0622179 25.06221791s-10.74095052 21.48190106-25.06221789 21.48190106c-21.48190106 0-35.80316842 17.90158422-35.80316844 39.38348527v175.4355253c0 21.48190106 17.90158422 39.38348528 39.38348529 39.38348527h175.43552529c21.48190106 0 39.38348528-17.90158422 39.38348528-39.38348527V526.32126738c0-21.48190106-17.90158422-39.38348528-39.38348528-39.38348527-14.32126738 0-21.48190106-10.74095052-21.48190104-21.48190108s7.16063367-25.0622179 21.48190104-25.06221789C723.23869375 440.39366314 762.62217901 479.77714841 762.62217901 526.32126738v175.43552529c-3.58031685 46.54411895-39.38348528 85.92760423-85.92760424 85.92760424z" fill="#333333" p-id="1048"></path></svg>