<svg width="128" height="128" viewBox="0 0 128 128" fill="none" xmlns="http://www.w3.org/2000/svg">
<path d="M80.7512 74.3714C80.4411 74.5499 80.25 74.8804 80.25 75.2382V101.588C80.25 102.358 81.0834 102.839 81.75 102.454L105 89.0286C105.309 88.8499 105.5 88.5198 105.5 88.1626V61.8591C105.5 61.0899 104.668 60.6087 104.001 60.9923L80.7512 74.3714Z" fill="white"/>
<path d="M103.517 60.1655C104.185 59.7811 104.185 58.8181 103.518 58.4329L80.7499 45.2886C80.4405 45.11 80.0595 45.11 79.7501 45.2885L56.5003 58.7043C55.8335 59.089 55.8333 60.0513 56.4999 60.4364L79.2406 73.5715C79.5497 73.7501 79.9305 73.7503 80.2398 73.5721L103.517 60.1655Z" fill="white"/>
<path d="M54.939 87.6783C55.249 87.4998 55.4401 87.1693 55.4401 86.8116V12.5317C55.4401 11.7619 54.6068 11.2808 53.9401 11.6656L30.5601 25.1611C30.2507 25.3398 30.0601 25.6699 30.0601 26.0272V100.27C30.0601 101.04 30.8923 101.521 31.559 101.137L54.939 87.6783Z" fill="white"/>
<path d="M32.0433 101.955C31.3757 102.339 31.375 103.302 32.0421 103.687L54.94 116.911C55.2494 117.09 55.6307 117.09 55.9401 116.911L79.1897 103.486C79.8565 103.101 79.8563 102.139 79.1895 101.754L56.3192 88.558C56.0102 88.3798 55.6297 88.3796 55.3206 88.5575L32.0433 101.955Z" fill="white"/>
</svg>
