<svg width="465" height="128" viewBox="0 0 465 128" fill="none" xmlns="http://www.w3.org/2000/svg">
<path d="M454.589 88.4561C452.689 88.4561 451.004 88.0508 449.535 87.2401C448.066 86.4295 446.913 85.2895 446.077 83.8201C445.241 82.3508 444.823 80.6535 444.823 78.7281C444.823 76.7775 445.228 75.0421 446.039 73.5221C446.875 72.0021 448.015 70.8241 449.459 69.9881C450.928 69.1268 452.651 68.6961 454.627 68.6961C456.476 68.6961 458.11 69.1015 459.529 69.9121C460.948 70.7228 462.05 71.8375 462.835 73.2561C463.646 74.6495 464.051 76.2075 464.051 77.9301C464.051 78.2088 464.038 78.5001 464.013 78.8041C464.013 79.1081 464 79.4248 463.975 79.7541H449.649C449.75 81.2235 450.257 82.3761 451.169 83.2121C452.106 84.0481 453.234 84.4661 454.551 84.4661C455.539 84.4661 456.362 84.2508 457.021 83.8201C457.705 83.3641 458.212 82.7815 458.541 82.0721H463.481C463.126 83.2628 462.531 84.3521 461.695 85.3401C460.884 86.3028 459.871 87.0628 458.655 87.6201C457.464 88.1775 456.109 88.4561 454.589 88.4561ZM454.627 72.6481C453.436 72.6481 452.385 72.9901 451.473 73.6741C450.561 74.3328 449.978 75.3461 449.725 76.7141H459.111C459.035 75.4728 458.579 74.4848 457.743 73.7501C456.907 73.0155 455.868 72.6481 454.627 72.6481Z" fill="white"/>
<path d="M431.814 88.4561C430.395 88.4561 429.154 88.1901 428.09 87.6581C427.026 87.1261 426.164 86.3788 425.506 85.4161L424.974 88.0001H420.642V60.6401H425.506V71.8501C426.114 71.0141 426.912 70.2795 427.9 69.6461C428.913 69.0128 430.218 68.6961 431.814 68.6961C433.587 68.6961 435.17 69.1268 436.564 69.9881C437.957 70.8495 439.059 72.0275 439.87 73.5221C440.68 75.0168 441.086 76.7141 441.086 78.6141C441.086 80.5141 440.68 82.2115 439.87 83.7061C439.059 85.1755 437.957 86.3408 436.564 87.2021C435.17 88.0381 433.587 88.4561 431.814 88.4561ZM430.788 84.2001C432.333 84.2001 433.612 83.6808 434.626 82.6421C435.639 81.6035 436.146 80.2608 436.146 78.6141C436.146 76.9675 435.639 75.6121 434.626 74.5481C433.612 73.4841 432.333 72.9521 430.788 72.9521C429.217 72.9521 427.925 73.4841 426.912 74.5481C425.924 75.5868 425.43 76.9295 425.43 78.5761C425.43 80.2228 425.924 81.5781 426.912 82.6421C427.925 83.6808 429.217 84.2001 430.788 84.2001Z" fill="white"/>
<path d="M404.591 88.4561C402.235 88.4561 400.411 87.7215 399.119 86.2521C397.852 84.7828 397.219 82.6295 397.219 79.7921V69.1521H402.045V79.3361C402.045 80.9575 402.374 82.1988 403.033 83.0601C403.691 83.9215 404.73 84.3521 406.149 84.3521C407.491 84.3521 408.593 83.8708 409.455 82.9081C410.341 81.9455 410.785 80.6028 410.785 78.8801V69.1521H415.649V88.0001H411.355L410.975 84.8081C410.392 85.9228 409.543 86.8095 408.429 87.4681C407.339 88.1268 406.06 88.4561 404.591 88.4561Z" fill="white"/>
<path d="M381.665 88.4561C378.98 88.4561 376.674 87.8861 374.749 86.7461C372.824 85.5808 371.342 83.9721 370.303 81.9201C369.264 79.8428 368.745 77.4488 368.745 74.7381C368.745 72.0275 369.264 69.6335 370.303 67.5561C371.342 65.4788 372.824 63.8575 374.749 62.6921C376.674 61.5268 378.98 60.9441 381.665 60.9441C384.857 60.9441 387.466 61.7421 389.493 63.3381C391.545 64.9088 392.824 67.1255 393.331 69.9881H387.973C387.644 68.5441 386.934 67.4168 385.845 66.6061C384.781 65.7701 383.362 65.3521 381.589 65.3521C379.132 65.3521 377.206 66.1881 375.813 67.8601C374.42 69.5321 373.723 71.8248 373.723 74.7381C373.723 77.6515 374.42 79.9441 375.813 81.6161C377.206 83.2628 379.132 84.0861 381.589 84.0861C383.362 84.0861 384.781 83.7061 385.845 82.9461C386.934 82.1608 387.644 81.0841 387.973 79.7161H393.331C392.824 82.4521 391.545 84.5928 389.493 86.1381C387.466 87.6835 384.857 88.4561 381.665 88.4561Z" fill="white"/>
<path d="M346.899 88.4561C344.974 88.4561 343.277 88.0381 341.807 87.2021C340.338 86.3661 339.173 85.2008 338.311 83.7061C337.475 82.2115 337.057 80.5015 337.057 78.5761C337.057 76.6508 337.475 74.9408 338.311 73.4461C339.173 71.9515 340.338 70.7861 341.807 69.9501C343.277 69.1141 344.974 68.6961 346.899 68.6961C349.306 68.6961 351.333 69.3295 352.979 70.5961C354.626 71.8375 355.677 73.5601 356.133 75.7641H351.003C350.75 74.8521 350.243 74.1428 349.483 73.6361C348.749 73.1041 347.875 72.8381 346.861 72.8381C345.519 72.8381 344.379 73.3448 343.441 74.3581C342.504 75.3715 342.035 76.7775 342.035 78.5761C342.035 80.3748 342.504 81.7808 343.441 82.7941C344.379 83.8075 345.519 84.3141 346.861 84.3141C347.875 84.3141 348.749 84.0608 349.483 83.5541C350.243 83.0475 350.75 82.3255 351.003 81.3881H356.133C355.677 83.5161 354.626 85.2261 352.979 86.5181C351.333 87.8101 349.306 88.4561 346.899 88.4561Z" fill="white"/>
<path d="M330.156 66.2261C329.27 66.2261 328.535 65.9601 327.952 65.4281C327.395 64.8961 327.116 64.2248 327.116 63.4141C327.116 62.6035 327.395 61.9448 327.952 61.4381C328.535 60.9061 329.27 60.6401 330.156 60.6401C331.043 60.6401 331.765 60.9061 332.322 61.4381C332.905 61.9448 333.196 62.6035 333.196 63.4141C333.196 64.2248 332.905 64.8961 332.322 65.4281C331.765 65.9601 331.043 66.2261 330.156 66.2261ZM327.724 88.0001V69.1521H332.588V88.0001H327.724Z" fill="white"/>
<path d="M313.88 82.3761C312.968 82.3761 312.119 82.2748 311.334 82.0721L309.928 83.4781C310.358 83.7061 310.941 83.8961 311.676 84.0481C312.41 84.2001 313.601 84.3521 315.248 84.5041C317.756 84.7321 319.58 85.3275 320.72 86.2901C321.86 87.2528 322.43 88.5828 322.43 90.2801C322.43 91.3948 322.126 92.4461 321.518 93.4341C320.91 94.4475 319.972 95.2581 318.706 95.8661C317.439 96.4995 315.818 96.8161 313.842 96.8161C311.156 96.8161 308.99 96.3095 307.344 95.2961C305.697 94.3081 304.874 92.8135 304.874 90.8121C304.874 89.1148 305.697 87.6455 307.344 86.4041C306.837 86.1761 306.394 85.9355 306.014 85.6821C305.659 85.4288 305.342 85.1628 305.064 84.8841V84.0101L308.37 80.5141C306.9 79.2221 306.166 77.5628 306.166 75.5361C306.166 74.2695 306.47 73.1168 307.078 72.0781C307.711 71.0395 308.598 70.2161 309.738 69.6081C310.878 69.0001 312.258 68.6961 313.88 68.6961C314.944 68.6961 315.932 68.8481 316.844 69.1521H323.988V72.1161L320.758 72.3441C321.264 73.3068 321.518 74.3708 321.518 75.5361C321.518 76.8028 321.214 77.9555 320.606 78.9941C319.998 80.0328 319.111 80.8561 317.946 81.4641C316.806 82.0721 315.45 82.3761 313.88 82.3761ZM313.88 78.6521C314.868 78.6521 315.678 78.3861 316.312 77.8541C316.97 77.3221 317.3 76.5621 317.3 75.5741C317.3 74.5861 316.97 73.8261 316.312 73.2941C315.678 72.7621 314.868 72.4961 313.88 72.4961C312.841 72.4961 312.005 72.7621 311.372 73.2941C310.738 73.8261 310.422 74.5861 310.422 75.5741C310.422 76.5621 310.738 77.3221 311.372 77.8541C312.005 78.3861 312.841 78.6521 313.88 78.6521ZM309.32 90.3181C309.32 91.2555 309.75 91.9521 310.612 92.4081C311.498 92.8895 312.575 93.1301 313.842 93.1301C315.058 93.1301 316.046 92.8768 316.806 92.3701C317.566 91.8888 317.946 91.2301 317.946 90.3941C317.946 89.7101 317.692 89.1401 317.186 88.6841C316.704 88.2281 315.729 87.9495 314.26 87.8481C313.221 87.7721 312.258 87.6581 311.372 87.5061C310.637 87.9115 310.105 88.3548 309.776 88.8361C309.472 89.3175 309.32 89.8115 309.32 90.3181Z" fill="white"/>
<path d="M290.466 88.4561C288.845 88.4561 287.515 88.2028 286.476 87.6961C285.437 87.1641 284.665 86.4675 284.158 85.6061C283.651 84.7448 283.398 83.7948 283.398 82.7561C283.398 81.0081 284.082 79.5895 285.45 78.5001C286.818 77.4108 288.87 76.8661 291.606 76.8661H296.394V76.4101C296.394 75.1181 296.027 74.1681 295.292 73.5601C294.557 72.9521 293.645 72.6481 292.556 72.6481C291.568 72.6481 290.707 72.8888 289.972 73.3701C289.237 73.8261 288.781 74.5101 288.604 75.4221H283.854C283.981 74.0541 284.437 72.8635 285.222 71.8501C286.033 70.8368 287.071 70.0641 288.338 69.5321C289.605 68.9748 291.023 68.6961 292.594 68.6961C295.279 68.6961 297.395 69.3675 298.94 70.7101C300.485 72.0528 301.258 73.9528 301.258 76.4101V88.0001H297.116L296.66 84.9601C296.103 85.9735 295.317 86.8095 294.304 87.4681C293.316 88.1268 292.037 88.4561 290.466 88.4561ZM291.568 84.6561C292.961 84.6561 294.038 84.2001 294.798 83.2881C295.583 82.3761 296.077 81.2488 296.28 79.9061H292.138C290.846 79.9061 289.921 80.1468 289.364 80.6281C288.807 81.0841 288.528 81.6541 288.528 82.3381C288.528 83.0728 288.807 83.6428 289.364 84.0481C289.921 84.4535 290.656 84.6561 291.568 84.6561Z" fill="white"/>
<path d="M250.535 88.0001V61.4001H256.311L264.785 78.2721L273.145 61.4001H278.921V88.0001H274.057V69.6461L266.647 84.2001H262.809L255.399 69.6461V88.0001H250.535Z" fill="white"/>
<path d="M233.858 66.2261C232.971 66.2261 232.236 65.9601 231.654 65.4281C231.096 64.8961 230.818 64.2248 230.818 63.4141C230.818 62.6035 231.096 61.9448 231.654 61.4381C232.236 60.9061 232.971 60.6401 233.858 60.6401C234.744 60.6401 235.466 60.9061 236.024 61.4381C236.606 61.9448 236.898 62.6035 236.898 63.4141C236.898 64.2248 236.606 64.8961 236.024 65.4281C235.466 65.9601 234.744 66.2261 233.858 66.2261ZM231.426 88.0001V69.1521H236.29V88.0001H231.426Z" fill="white"/>
<path d="M208.116 88.0001V69.1521H212.41L212.79 72.3441C213.373 71.2295 214.209 70.3428 215.298 69.6841C216.413 69.0255 217.718 68.6961 219.212 68.6961C221.543 68.6961 223.354 69.4308 224.646 70.9001C225.938 72.3695 226.584 74.5228 226.584 77.3601V88.0001H221.72V77.8161C221.72 76.1948 221.391 74.9535 220.732 74.0921C220.074 73.2308 219.048 72.8001 217.654 72.8001C216.286 72.8001 215.159 73.2815 214.272 74.2441C213.411 75.2068 212.98 76.5495 212.98 78.2721V88.0001H208.116Z" fill="white"/>
<path d="M172.529 88.0001V69.1521H176.823L177.241 71.6981C177.849 70.7861 178.647 70.0641 179.635 69.5321C180.648 68.9748 181.813 68.6961 183.131 68.6961C186.044 68.6961 188.109 69.8235 189.325 72.0781C190.009 71.0395 190.921 70.2161 192.061 69.6081C193.226 69.0001 194.493 68.6961 195.861 68.6961C198.318 68.6961 200.205 69.4308 201.523 70.9001C202.84 72.3695 203.499 74.5228 203.499 77.3601V88.0001H198.635V77.8161C198.635 76.1948 198.318 74.9535 197.685 74.0921C197.077 73.2308 196.127 72.8001 194.835 72.8001C193.517 72.8001 192.453 73.2815 191.643 74.2441C190.857 75.2068 190.465 76.5495 190.465 78.2721V88.0001H185.601V77.8161C185.601 76.1948 185.284 74.9535 184.651 74.0921C184.017 73.2308 183.042 72.8001 181.725 72.8001C180.433 72.8001 179.381 73.2815 178.571 74.2441C177.785 75.2068 177.393 76.5495 177.393 78.2721V88.0001H172.529Z" fill="white"/>
<path d="M155.048 88.4561C152.388 88.4561 150.057 87.8735 148.056 86.7081C146.08 85.5428 144.522 83.9341 143.382 81.8821C142.267 79.8048 141.71 77.4108 141.71 74.7001C141.71 71.9895 142.267 69.6081 143.382 67.5561C144.522 65.4788 146.08 63.8575 148.056 62.6921C150.057 61.5268 152.388 60.9441 155.048 60.9441C157.683 60.9441 160.001 61.5268 162.002 62.6921C164.003 63.8575 165.561 65.4788 166.676 67.5561C167.791 69.6081 168.348 71.9895 168.348 74.7001C168.348 77.4108 167.791 79.8048 166.676 81.8821C165.561 83.9341 164.003 85.5428 162.002 86.7081C160.001 87.8735 157.683 88.4561 155.048 88.4561ZM155.048 84.0861C157.581 84.0861 159.595 83.2501 161.09 81.5781C162.61 79.9061 163.37 77.6135 163.37 74.7001C163.37 71.7868 162.61 69.4941 161.09 67.8221C159.595 66.1501 157.581 65.3141 155.048 65.3141C152.515 65.3141 150.488 66.1501 148.968 67.8221C147.448 69.4941 146.688 71.7868 146.688 74.7001C146.688 77.6135 147.448 79.9061 148.968 81.5781C150.488 83.2501 152.515 84.0861 155.048 84.0861Z" fill="white"/>
<path d="M80 74.53V103.19L105.25 88.61V60L80 74.53Z" fill="white"/>
<path d="M105.02 59.3L80.25 45L55 59.57L79.74 73.86L105.02 59.3Z" fill="white"/>
<path d="M55.4401 87.3898V10.7998L30.0601 25.4498V102L55.4401 87.3898Z" fill="white"/>
<path d="M30.54 102.82L55.44 117.2L80.69 102.62L55.82 88.27L30.54 102.82Z" fill="white"/>
</svg>
