<?xml version="1.0" encoding="UTF-8"?>
<svg id="_图层_2" data-name="图层 2" xmlns="http://www.w3.org/2000/svg" xmlns:xlink="http://www.w3.org/1999/xlink" viewBox="0 0 89.96 109.7">
  <defs>
    <style>
      .cls-1 {
        fill: url(#_未命名的渐变);
      }

      .cls-2 {
        fill: url(#_未命名的渐变_3);
        fill-rule: evenodd;
      }

      .cls-3 {
        fill: url(#_未命名的渐变_2);
      }
    </style>
    <linearGradient id="_未命名的渐变" data-name="未命名的渐变" x1="-926.84" y1="591.26" x2="-926.84" y2="590.26" gradientTransform="translate(-62125.3 64829.34) rotate(-180) scale(67.09 109.65)" gradientUnits="userSpaceOnUse">
      <stop offset="0" stop-color="#29cdff"/>
      <stop offset=".38" stop-color="#148eff"/>
      <stop offset="1" stop-color="#0a60ff"/>
    </linearGradient>
    <linearGradient id="_未命名的渐变_2" data-name="未命名的渐变 2" x1="-901.15" y1="591.54" x2="-899.56" y2="589.59" gradientTransform="translate(61257 64858.55) scale(68 -109.7)" gradientUnits="userSpaceOnUse">
      <stop offset="0" stop-color="#29cdff"/>
      <stop offset="1" stop-color="#0f78ff"/>
    </linearGradient>
    <linearGradient id="_未命名的渐变_3" data-name="未命名的渐变 3" x1="-888.13" y1="571.24" x2="-888.51" y2="569.74" gradientTransform="translate(31529.47 10970.3) scale(35.45 -19.22)" gradientUnits="userSpaceOnUse">
      <stop offset="0" stop-color="#fa8e7d"/>
      <stop offset=".51" stop-color="#f74a5c"/>
      <stop offset="1" stop-color="#f51d2c"/>
    </linearGradient>
  </defs>
  <g id="_图层_1-2" data-name="图层 1">
    <g id="Vue">
      <g id="Group">
        <path id="Path-Copy" class="cls-1" d="M22.87,90.07c11.38,3,21.63-7.12,22.34-8l20.96-20.25c1.16-1.12,1.82-2.66,1.83-4.27l.33-40.44c0-1.08,.45-2.1,1.22-2.85L83.18,1.12c1.59-1.53,4.12-1.49,5.66,.1,.72,.75,1.12,1.74,1.12,2.78V63.98c0,2.69-1.09,5.27-3.02,7.16l-37.72,36.81c-2.35,2.29-6.1,2.27-8.42-.04"/>
        <path id="Path" class="cls-3" d="M68,89.7c-11.38,3-22.54-6.76-23.25-7.64l-20.96-20.25c-1.16-1.12-1.82-2.66-1.83-4.27l-.33-40.44c0-1.08-.45-2.1-1.22-2.85L6.78,1.12C5.19-.41,2.65-.37,1.12,1.22,.4,1.97,0,2.96,0,4V63.98c0,2.69,1.09,5.27,3.02,7.16l37.77,36.86c2.33,2.27,6.04,2.28,8.37,.01"/>
        <path id="Path-2" data-name="Path" class="cls-2" d="M43.3,18.69L27.56,3.47c-.79-.77-.82-2.03-.05-2.83,.38-.39,.9-.61,1.44-.61h31.45c1.1,0,2,.9,2,2,0,.54-.22,1.06-.61,1.44l-15.7,15.22c-.77,.75-2.01,.75-2.78,0Z"/>
      </g>
    </g>
  </g>
</svg>