<?xml version="1.0" encoding="UTF-8"?>
<svg id="_图层_2" data-name="图层 2" xmlns="http://www.w3.org/2000/svg" viewBox="0 0 24.97 18.01">
  <defs>
    <style>
      .cls-1 {
        fill: #0057fe;
      }

      .cls-1, .cls-2, .cls-3 {
        fill-rule: evenodd;
      }

      .cls-2 {
        fill: #12d2ac;
      }

      .cls-3 {
        fill: #307af2;
      }
    </style>
  </defs>
  <g id="_图层_1-2" data-name="图层 1">
    <g id="_u753B_u677F" data-name="\u753B\u677F">
      <g id="_u7F16_u7EC4-6_u5907_u4EFD" data-name="\u7F16\u7EC4-6\u5907\u4EFD">
        <g id="_u7F16_u7EC4-3" data-name="\u7F16\u7EC4-3">
          <g id="_u7F16_u7EC4_u5907_u4EFD-2" data-name="\u7F16\u7EC4\u5907\u4EFD-2">
            <path id="_u77E9_u5F62_u5907_u4EFD-3" data-name="\u77E9\u5F62\u5907\u4EFD-3" class="cls-2" d="M1.49,9.08L8.86,1.54c1.97-2.01,5.19-2.05,7.21-.09,.03,.03,.06,.06,.09,.09l.08,.08c1.98,2.03,1.98,5.27,0,7.3l-7.37,7.55c-1.97,2.01-5.19,2.05-7.21,.09-.03-.03-.06-.06-.09-.09l-.08-.08c-1.98-2.03-1.98-5.27,0-7.3Z"/>
            <path id="_u77E9_u5F62_u5907_u4EFD-7" data-name="\u77E9\u5F62\u5907\u4EFD-7" class="cls-3" d="M16.16,1.54l7.29,7.47c2.03,2.08,2.03,5.39,0,7.47-1.97,2.01-5.19,2.05-7.21,.09-.03-.03-.06-.06-.09-.09l-7.29-7.47c-2.03-2.08-2.03-5.39,0-7.47,1.97-2.01,5.19-2.05,7.21-.09,.03,.03,.06,.06,.09,.09Z"/>
            <path id="_u77E9_u5F62" data-name="\u77E9\u5F62" class="cls-1" d="M16.24,1.63l3.55,3.64h0l-7.29,7.47L5.21,5.27l3.55-3.64c2.02-2.06,5.33-2.1,7.39-.09,.03,.03,.06,.06,.09,.09Z"/>
          </g>
        </g>
      </g>
    </g>
  </g>
</svg>