<?xml version="1.0" encoding="UTF-8"?>
<svg id="_图层_2" data-name="图层 2" xmlns="http://www.w3.org/2000/svg" viewBox="0 0 38.86 38.01">
  <defs>
    <style>
      .cls-1 {
        fill-rule: evenodd;
      }

      .cls-1, .cls-2 {
        fill: #409eff;
      }
    </style>
  </defs>
  <g id="_图层_1-2" data-name="图层 1">
    <g id="_图层_2-2" data-name="图层 2">
      <g id="_图层_1-2" data-name="图层 1-2">
        <path class="cls-1" d="M35.47,5.93h-2.24V.93c0-.11,.12-.21,.29-.24l1.44-.26c.26,0,.51,.07,.51,.24V5.93Z"/>
        <path class="cls-1" d="M33.23,3.72h2.24v5.11c0,.11-.11,.21-.28,.25l-1.45,.26c-.26,.05-.51-.07-.51-.24V3.72Z"/>
        <path class="cls-2" d="M30.24,3.72h8.22c.22,0,.4,.18,.4,.4v1.85h-9v-1.89c.02-.2,.18-.35,.38-.36Z"/>
      </g>
      <path class="cls-2" d="M33.25,10.68c.06-.88-.44-1.71-1.25-2.06C30.6,7.8,17.54,.21,17.54,.21c-.56-.28-1.23-.28-1.79,0L1,8.76s-1,.55-1,1.33V27.87c.02,.4,.22,.77,.55,1,.54,.38,15.33,8.96,15.33,8.96,.48,.24,1.04,.24,1.52,0,.92-.52,15.07-8.68,15.07-8.68,0,0,.83-.36,.83-1.93h-.05V10.68Zm-3.61,5.67c-.02,.53-.22,1.04-.55,1.46l-11.56,7c-.59,.53-.95,1.27-1,2.07v3l13.02-7.9v3.47c0,1.23-.65,1.51-.65,1.51,0,0-11.1,6.39-11.82,6.79-.37,.19-.82,.19-1.19,0,0,0-11.57-6.7-12-7-.25-.17-.41-.45-.43-.75,0,0,0-13.3,0-13.92-.01-.62,.76-1.08,.76-1.08L15.83,4.35c.44-.22,.97-.22,1.41,0,0,0,7.16,4.13,10.16,5.87l-10.04,5.99c-.55,.43-.86,1.09-.83,1.79v3.2l13.11-7.92v3.07Z"/>
    </g>
  </g>
</svg>