<?xml version="1.0" standalone="no"?><!DOCTYPE svg PUBLIC "-//W3C//DTD SVG 1.1//EN" "http://www.w3.org/Graphics/SVG/1.1/DTD/svg11.dtd"><svg t="1699199326747" class="icon" viewBox="0 0 1024 1024" version="1.1" xmlns="http://www.w3.org/2000/svg" p-id="5317" xmlns:xlink="http://www.w3.org/1999/xlink" width="200" height="200"><path d="M948.448 535.488c-25.856-119.584-111.008-238.24-182.272-217.632-25.504 7.36-45.088 20.832-57.728 39.424-22.976-10.656-46.496-11.68-69.504-1.536a86.112 86.112 0 0 0-40.256 35.52c-26.496-13.408-56.96-13.12-88.896 1.856a107.2 107.2 0 0 0-19.232 11.456C412.736 294.592 349.152 244.96 291.84 257.952c-81.152 18.368-81.152 89.152-19.584 181.856l118.208 182.784C325.6 610.4 278.688 620.864 250.88 658.016c-45.472 60.8 2.656 116.96 114.4 167.232l215.968 96.064a32 32 0 0 0 26.016-58.464l-215.84-96c-43.552-19.584-72.32-37.952-85.568-53.44-7.68-8.96-7.904-11.456-3.712-17.056 15.808-21.12 64.928-21.12 150.56 10.816 28.864 10.784 54.784-21.472 38.048-47.36l-164.96-255.072c-40.992-61.728-40.992-79.552-19.808-84.352 28.064-6.336 87.104 49.408 165.536 170.56 5.888 13.888 15.072 28.352 27.392 42.976 25.472 30.272 72.416-3.552 51.776-37.312a2035.2 2035.2 0 0 0-23.04-36.832c0.544-3.744 3.872-6.144 9.312-8.704 22.464-10.528 36.48-6.528 52.192 15.68 17.472 24.64 56.224 13.6 58.048-16.576 1.28-21.184 7.136-31.296 17.536-35.872 8.96-3.936 20.096-0.544 37.472 16a32 32 0 0 0 53.952-20.32c1.472-16.544 9.024-25.248 27.808-30.688 19.712-5.696 83.136 82.688 101.952 169.696 13.536 62.592 13.536 136.992-0.32 223.136a32 32 0 1 0 63.2 10.144c15.008-93.504 15.008-175.776-0.352-246.784z" p-id="5318"></path><path d="M300.8 896H164.256C144.352 896 128 879.392 128 858.656V165.344C128 144.608 144.352 128 164.256 128h375.456C559.648 128 576 144.608 576 165.344a32 32 0 0 0 64 0C640 109.472 595.232 64 539.744 64H164.256C108.768 64 64 109.472 64 165.344v693.344C64 914.528 108.768 960 164.256 960H300.8a32 32 0 0 0 0-64z" p-id="5319"></path></svg>