<?xml version="1.0" standalone="no"?><!DOCTYPE svg PUBLIC "-//W3C//DTD SVG 1.1//EN" "http://www.w3.org/Graphics/SVG/1.1/DTD/svg11.dtd"><svg t="1720622346587" class="icon" viewBox="0 0 1024 1024" version="1.1" xmlns="http://www.w3.org/2000/svg" p-id="1081" xmlns:xlink="http://www.w3.org/1999/xlink" width="200" height="200"><path d="M195.59374999 221.97098174c0-14.56473174 11.81249999-26.37723175 26.37723175-26.37723175h246.09375028c14.54464326 0 26.35714325 11.81249999 26.35714325 26.37723175v272.45089353H221.95089327a26.35714325 26.35714325 0 0 1-26.35714328-26.37723257V221.97098174z m48.33482108 224.11607163H446.1071427V243.92857107H243.92857107V446.1071427zM195.59374999 555.9553573c0-14.56473174 11.81249999-26.37723175 26.37723175-26.37723257h272.45089353v272.47098202c0 14.54464326-11.81249999 26.35714325-26.37723257 26.35714326H221.97098174a26.35714325 26.35714325 0 0 1-26.35714241-26.37723175v-246.09375028z m48.33482108 224.11607161H446.1071427V577.8928573H243.92857107v202.15848229zM529.57812473 529.57812473v272.47098202c0 14.54464326 11.81249999 26.35714325 26.37723257 26.35714326h246.09374945c14.54464326 0 26.35714325-11.81249999 26.35714326-26.37723175v-246.09375028c0-14.54464326-11.81249999-26.35714325-26.37723176-26.35714325H529.59821405z m250.4933042 250.4933042H577.8928573V577.8928573h202.15848229v202.15848229zM828.40625001 345.0178573a149.4241073 149.4241073 0 1 1-298.82812528 0 149.4241073 149.4241073 0 0 1 298.82812528 0z m-48.33482108 0a101.06919607 101.06919607 0 1 0-202.1584823 0 101.06919607 101.06919607 0 0 0 202.1584823 0z" p-id="1082"></path></svg>