<?xml version="1.0" standalone="no"?><!DOCTYPE svg PUBLIC "-//W3C//DTD SVG 1.1//EN" "http://www.w3.org/Graphics/SVG/1.1/DTD/svg11.dtd"><svg t="1743354701724" class="icon" viewBox="0 0 1024 1024" version="1.1" xmlns="http://www.w3.org/2000/svg" p-id="2269" xmlns:xlink="http://www.w3.org/1999/xlink" width="200" height="200"><path d="M462.0078125 210.30664062a26.3671875 26.3671875 0 0 1 47.25 1e-8l86.85351563 175.97460937 194.22070312 28.21289063a26.3671875 26.3671875 0 0 1 17.61328125 41.55468749l-3.00585938 3.42773438-140.53710937 137.00390625 33.22265625 193.4296875a26.3671875 26.3671875 0 0 1-34.3828125 29.47851563l-3.90234375-1.68750001L485.6328125 726.3125l-173.70703125 91.38867188a26.3671875 26.3671875 0 0 1-38.65429688-23.57226563l0.36914063-4.21875 33.16992188-193.4296875-140.48437501-137.00390625a26.3671875 26.3671875 0 0 1 10.17773438-43.98046875l4.4296875-1.00195313 194.16796875-28.21289062zM841.58984375 696.5703125a13.18359375 13.18359375 0 0 1 13.18359375 13.18359375v26.3671875a13.18359375 13.18359375 0 0 1-13.18359375 13.18359375h-105.46875a13.18359375 13.18359375 0 0 1-13.18359375-13.18359375v-26.3671875a13.18359375 13.18359375 0 0 1 13.18359375-13.18359375h105.46875zM485.6328125 281.55078125L416.28710937 422.03515625a26.3671875 26.3671875 0 0 1-19.82812499 14.44921875l-155.14453126 22.46484375 112.27148438 109.42382813a26.3671875 26.3671875 0 0 1 7.91015625 18.19335937l-0.31640625 5.16796875-26.52539063 154.35351563 138.69140626-72.87890626a26.3671875 26.3671875 0 0 1 19.77539062-1.8984375l4.74609375 1.8984375 138.69140625 72.87890625-26.47265625-154.35351562a26.3671875 26.3671875 0 0 1 4.27148438-19.40625l3.32226562-3.95507813 112.21875-109.42382812-155.0390625-22.46484375a26.3671875 26.3671875 0 0 1-17.19140625-10.01953125l-2.68945313-4.4296875L485.6328125 281.55078125zM841.58984375 564.734375a13.18359375 13.18359375 0 0 1 13.18359375 13.18359375v26.3671875a13.18359375 13.18359375 0 0 1-13.18359375 13.18359375h-105.46875a13.18359375 13.18359375 0 0 1-13.18359375-13.18359375v-26.3671875a13.18359375 13.18359375 0 0 1 13.18359375-13.18359375h105.46875z m0-263.671875a13.18359375 13.18359375 0 0 1 13.18359375 13.18359375v26.3671875a13.18359375 13.18359375 0 0 1-13.18359375 13.18359375h-184.5703125a13.18359375 13.18359375 0 0 1-13.18359375-13.18359375v-26.3671875a13.18359375 13.18359375 0 0 1 13.18359375-13.18359375h184.5703125z" p-id="2270"></path></svg>