<?xml version="1.0" standalone="no"?><!DOCTYPE svg PUBLIC "-//W3C//DTD SVG 1.1//EN" "http://www.w3.org/Graphics/SVG/1.1/DTD/svg11.dtd"><svg t="1700102699391" class="icon" viewBox="0 0 1024 1024" version="1.1" xmlns="http://www.w3.org/2000/svg" p-id="5829" xmlns:xlink="http://www.w3.org/1999/xlink" width="16" height="16"><path d="M443.135 622.528a35.84 35.84 0 0 0 25.408 61.44c9.216 0 18.495-3.52 25.471-10.56l135.872-135.744a36.288 36.288 0 0 0 0-51.2L493.95 350.721a35.968 35.968 0 1 0-50.88 50.816l74.24 74.303-481.022 0.192a36.032 36.032 0 0 0 0 72.064l481.086 0.064-74.303 74.24h0.064z m540.798-309.695a510.526 510.526 0 0 0-109.696-162.816A510.334 510.334 0 0 0 512.254 0.002a507.262 507.262 0 0 0-231.167 55.04 514.878 514.878 0 0 0-176.32 147.2 35.968 35.968 0 0 0 57.152 43.52A443.583 443.583 0 0 1 313.6 119.297a434.879 434.879 0 0 1 198.655-47.296 437.439 437.439 0 0 1 311.04 128.767 439.359 439.359 0 0 1 128.959 311.295 437.503 437.503 0 0 1-128.768 311.04 439.295 439.295 0 0 1-311.23 129.023 435.07 435.07 0 0 1-198.848-47.36 444.479 444.479 0 0 1-151.68-126.528 35.968 35.968 0 1 0-57.151 43.584 516.35 516.35 0 0 0 176.511 147.2c72.064 36.416 149.888 54.976 231.167 54.976A509.438 509.438 0 0 0 874.237 874.11a510.398 510.398 0 0 0 150.016-362.047c0-69.12-13.44-136.32-40.32-199.231z" p-id="5830"></path></svg>