<?xml version="1.0" standalone="no"?><!DOCTYPE svg PUBLIC "-//W3C//DTD SVG 1.1//EN" "http://www.w3.org/Graphics/SVG/1.1/DTD/svg11.dtd"><svg t="1724941077214" class="icon" viewBox="0 0 1024 1024" version="1.1" xmlns="http://www.w3.org/2000/svg" p-id="1841" xmlns:xlink="http://www.w3.org/1999/xlink" width="200" height="200"><path d="M352.61859131 274.65411377l266.13555908 266.13555909c18.02032471 18.02032471 47.23846435 18.02032471 65.25878906 0 18.02032471-18.02032471 18.02032471-47.23846435 0-65.25878907l-266.14379883-266.13555908c-18.02032471-18.02032471-47.23846435-18.02032471-65.25878906 0-18.01208497 18.02032471-18.01208497 47.23846435 0.00823975 65.25878906z" fill="#666666" p-id="1842"></path><path d="M691.42047119 548.21368408L425.28491211 814.34100342c-18.02032471 18.02032471-47.23846435 18.02032471-65.25878906 0-18.02032471-18.02032471-18.02032471-47.23846435 0-65.25878907l266.13555908-266.13555908c18.02032471-18.02032471 47.23846435-18.02032471 65.25878906 0 18.02032471 18.02856445 18.02032471 47.24670411 0 65.26702881z" fill="#666666" p-id="1843"></path></svg>