<?xml version="1.0" standalone="no"?><!DOCTYPE svg PUBLIC "-//W3C//DTD SVG 1.1//EN" "http://www.w3.org/Graphics/SVG/1.1/DTD/svg11.dtd"><svg t="1699865769063" class="icon" viewBox="0 0 1024 1024" version="1.1" xmlns="http://www.w3.org/2000/svg" p-id="907" xmlns:xlink="http://www.w3.org/1999/xlink" width="16" height="16"><path d="M512.0319099 186.11160469l154.78680376 88.87723368h-0.15140231l-0.31230971 0.15615485 127.22071911 73.41111359V673.44375317L512.0319099 835.88893422 230.48809906 673.44443209V348.55610681l127.22071912-73.33507296-0.54789987-0.23219548h0.16022847L512.0237627 186.11160469zM276.17289954 402.36571235v244.75983715l212.97485568 122.85041997V525.21545337L276.17289954 402.36571235z m471.71802074 0.15954952L534.91199098 525.36821355v244.52424702l112.3860078-64.81784396v-0.00814722l100.58952682-58.02035518V402.51779359z m-235.78704335-163.63195796l-108.58261865 62.63846532-0.12424495-0.06789342-105.20356335 60.75917558 0.05974621 0.02851523-0.05974621 0.03937819 105.59191369 60.91533042 0.0794353-0.05159901 108.31919218 62.46194244 108.58669227-62.64185997 0.12424494 0.0760406 105.19948975-60.76324915-0.06381982-0.03258885 0.06381982-0.0319099-105.58784009-60.91465149-0.08826144 0.04345179-108.31036605-62.45854778z m0.3123097 121.91077509l2.25474034 1.29133277-2.79856659 1.61111074-2.25949288-1.29133276 2.80331913-1.61111075z" p-id="908"></path></svg>