<?xml version="1.0" standalone="no"?><!DOCTYPE svg PUBLIC "-//W3C//DTD SVG 1.1//EN" "http://www.w3.org/Graphics/SVG/1.1/DTD/svg11.dtd"><svg t="1720774412955" class="icon" viewBox="0 0 1024 1024" version="1.1" xmlns="http://www.w3.org/2000/svg" p-id="6915" xmlns:xlink="http://www.w3.org/1999/xlink" width="200" height="200"><path d="M893.9 663.3H427.5c-36.5 0-66.3-29.7-66.3-66.3v-75.5c0-19.9 16.1-36 36-36s36 16.1 36 36v69.7h455v-455h-455v132.1c0 19.9-16.1 36-36 36s-36-16.1-36-36V130.6c0-36.5 29.7-66.3 66.3-66.3h466.4c36.5 0 66.3 29.7 66.3 66.3V597c0 36.6-29.7 66.3-66.3 66.3z" p-id="6916"></path><path d="M597.4 959.4H131c-36.5 0-66.3-29.7-66.3-66.3V426.6c0-36.5 29.7-66.3 66.3-66.3h466.4c36.5 0 66.3 29.7 66.3 66.3v75.5c0 19.9-16.1 36-36 36s-36-16.1-36-36v-69.7h-455v455h455V755.2c0-19.9 16.1-36 36-36s36 16.1 36 36V893c0 36.6-29.7 66.4-66.3 66.4z" p-id="6917"></path></svg>