<?xml version="1.0" standalone="no"?><!DOCTYPE svg PUBLIC "-//W3C//DTD SVG 1.1//EN" "http://www.w3.org/Graphics/SVG/1.1/DTD/svg11.dtd"><svg t="1711102954176" class="icon" viewBox="0 0 1024 1024" version="1.1" xmlns="http://www.w3.org/2000/svg" p-id="2291" xmlns:xlink="http://www.w3.org/1999/xlink" width="16" height="16"><path d="M492.8330827 717.75533366l246.12755449-246.12755451c21.87462404-21.84420084 21.87462404-57.50075114 0-79.43622235L631.74759603 285.03936281a56.04041502 56.04041502 0 0 0-79.92300133 0.54762614l-266.23760575 266.20718178c-10.64828696 10.64828696-16.97641196 25.06911052-16.97641197 40.15925458 0 15.02929688 5.78049886 29.20673094 16.42878583 39.79417073l107.15219399 107.21304115a55.79702555 55.79702555 0 0 0 44.87492433 16.18539635v0.06084717h299.61238035a18.71056154 18.71056154 0 1 0 0-37.42112385H492.8330827z m-74.20335042-5.26329671L311.50796305 605.40069093a18.68013833 18.68013833 0 0 1-1e-8-26.46859946l61.36455811-61.36455811 133.65121666 133.65121664-61.36455812 61.30371094a18.68013833 18.68013833 0 0 1-26.52944741 0z" p-id="2292"></path></svg>