<svg xmlns="http://www.w3.org/2000/svg" fill="none" viewBox="0 0 24 24" class="design-iconfont">
  <path fill="#000" fill-opacity=".01" d="M0 0H24V24H0z"/>
  <path fill-rule="evenodd" clip-rule="evenodd" d="M9.58537 3.71052C9.58537 3.31811 9.8802 3 10.2439 3H13.7561C14.1198 3 14.4146 3.31811 14.4146 3.71052V6.78948H20.3415C20.7052 6.78948 21 7.1076 21 7.50001V11.2895C21 11.6819 20.7052 12 20.3415 12H3.65854C3.29484 12 3 11.6819 3 11.2895V7.50001C3 7.1076 3.29484 6.78948 3.65854 6.78948H9.58537V3.71052ZM10.9024 4.42105V7.50001C10.9024 7.89242 10.6076 8.21053 10.2439 8.21053H4.31707V10.579H19.6829V8.21053H13.7561C13.3924 8.21053 13.0976 7.89242 13.0976 7.50001V4.42105H10.9024Z" fill="#6B7280"/>
  <path fill-rule="evenodd" clip-rule="evenodd" d="M4 11.7143C4 11.3198 4.307 11 4.68571 11H19.3143C19.693 11 20 11.3198 20 11.7143V20.2857C20 20.6802 19.693 21 19.3143 21H4.68571C4.307 21 4 20.6802 4 20.2857V11.7143ZM5.37143 12.4286V19.5714H18.6286V12.4286H5.37143Z" fill="#6B7280"/>
  <path fill-rule="evenodd" clip-rule="evenodd" d="M8.34286 16.6734C8.72157 16.6734 9.02857 16.9932 9.02857 17.3877V20.237C9.02857 20.6314 8.72157 20.9512 8.34286 20.9512C7.96415 20.9512 7.65714 20.6314 7.65714 20.237V17.3877C7.65714 16.9932 7.96415 16.6734 8.34286 16.6734Z" fill="#6B7280"/>
  <path fill-rule="evenodd" clip-rule="evenodd" d="M12 16.6656C12.3787 16.6656 12.6857 16.9854 12.6857 17.3799V20.237C12.6857 20.6315 12.3787 20.9513 12 20.9513C11.6213 20.9513 11.3143 20.6315 11.3143 20.237V17.3799C11.3143 16.9854 11.6213 16.6656 12 16.6656Z" fill="#6B7280"/>
  <path fill-rule="evenodd" clip-rule="evenodd" d="M15.6571 16.6734C16.0359 16.6734 16.3429 16.9932 16.3429 17.3877V20.237C16.3429 20.6314 16.0359 20.9512 15.6571 20.9512C15.2784 20.9512 14.9714 20.6314 14.9714 20.237V17.3877C14.9714 16.9932 15.2784 16.6734 15.6571 16.6734Z" fill="#6B7280"/>
  <path fill-rule="evenodd" clip-rule="evenodd" d="M5.82857 20.2857C5.82857 19.8912 6.13558 19.5714 6.51429 19.5714H17.4857C17.8644 19.5714 18.1714 19.8912 18.1714 20.2857C18.1714 20.6802 17.8644 21 17.4857 21H6.51429C6.13558 21 5.82857 20.6802 5.82857 20.2857Z" fill="#6B7280"/>
</svg>
