<svg xmlns="http://www.w3.org/2000/svg" viewBox="0 0 16 16">
  <path d="M3.97236 3.16684L8 7.19448L12.0276 3.16684C12.1344 3.06001 12.2794 3 12.4304 3C12.5814 3 12.7263 3.06001 12.8332 3.16684C12.94 3.27365 13 3.41853 13 3.5696C13 3.72066 12.94 3.86554 12.8332 3.97236L8.80553 8.00001L12.8332 12.0276C12.8861 12.0805 12.928 12.1434 12.9567 12.2124C12.9853 12.2815 13 12.3556 13 12.4304C13 12.5052 12.9853 12.5793 12.9567 12.6484C12.928 12.7175 12.8861 12.7803 12.8332 12.8332C12.7803 12.8861 12.7175 12.928 12.6483 12.9567C12.5793 12.9853 12.5052 13 12.4304 13C12.3556 13 12.2815 12.9853 12.2124 12.9567C12.1434 12.928 12.0805 12.8861 12.0276 12.8332L8 8.80554L3.97236 12.8332C3.91946 12.8861 3.85667 12.928 3.78756 12.9567C3.71846 12.9853 3.64439 13 3.56959 13C3.49479 13 3.42073 12.9853 3.35162 12.9567C3.28251 12.928 3.21972 12.8861 3.16683 12.8332C3.11394 12.7803 3.07198 12.7175 3.04336 12.6484C3.01473 12.5793 3 12.5052 3 12.4304C3 12.3556 3.01473 12.2815 3.04336 12.2124C3.07198 12.1434 3.11394 12.0805 3.16683 12.0276L7.19447 8.00001L3.16683 3.97236C3.06001 3.86554 3 3.72066 3 3.5696C3 3.4948 3.01473 3.42073 3.04336 3.35162C3.07198 3.28252 3.11394 3.21973 3.16683 3.16684C3.21972 3.11394 3.28251 3.07198 3.35162 3.04336C3.42073 3.01473 3.49479 3 3.56959 3C3.72066 3 3.86554 3.06001 3.97236 3.16684Z" />
</svg>
