<?xml version="1.0" standalone="no"?><!DOCTYPE svg PUBLIC "-//W3C//DTD SVG 1.1//EN" "http://www.w3.org/Graphics/SVG/1.1/DTD/svg11.dtd"><svg t="1699199250732" class="icon" viewBox="0 0 1024 1024" version="1.1" xmlns="http://www.w3.org/2000/svg" p-id="1458" xmlns:xlink="http://www.w3.org/1999/xlink" width="200" height="200"><path d="M985.5 787.2c0 25.7 0.4 51.4-0.1 77.1-1.2 64.2-47.7 113.8-111.4 118.8-52.8 4.2-105.7 4.8-158.7 3.4-39-1-44.4-7.2-44.8-45.4-0.2-24.2 1.5-48.4-4.1-72.3-8.8-37.8-39.3-60.7-78-57.9-36.3 2.7-64 30.5-66.3 68.4-1.5 24.1-0.6 48.4-1.6 72.6-0.8 21.4-10.5 31.5-34.1 32.4-54.4 2.1-108.6 3.4-163.1-0.6-70.8-5.1-118.2-52.2-119.9-122.9-0.7-29.5-0.2-59-0.2-88.5-0.1-30.4-4.6-35.5-34.2-39-31.6-3.7-60.1-14.5-84.4-35.6-44.4-38.6-55-88.5-40.9-142.3 14.8-56.3 55.5-88.2 112.4-99.5 7.4-1.5 14.9-2.7 22.4-3.4 17.8-1.8 24.7-12.2 24.6-29.1-0.2-27.2-0.2-54.5 0.1-81.7 0.8-89.8 46.5-136.8 136.7-139.9 26.4-0.9 53-1.2 79.4-0.1 22.1 0.9 32.6-6.2 35.1-30 6.4-62.5 37.7-109.1 99-128.3C641.3 16 724.2 74.9 735.2 169.8c3.5 29.8 5.4 31.4 34.7 32 37 0.7 74-2.3 110.9 3.7 60.6 9.8 102.5 54.5 104.2 116.1 1.6 55.2 0.2 110.4 0.6 165.6 0.2 22.3-11.9 31.7-32.2 32.4-22.7 0.8-45.4 0.1-68.1 0.8-39.7 1.3-69.6 28-72.7 64.1-3.8 44 17.5 72.9 60.4 81.9 23.2 4.9 46.7 2.2 70.1 2.5 37.9 0.5 42.1 4.3 42.2 41.2 0.4 25.7 0.3 51.4 0.2 77.1 0.1 0 0.1 0 0 0zM279.2 413.6h-1.6c0 26.5 0.3 52.9-0.1 79.4-0.4 25.6-6.8 31.5-32.8 32.2-25.6 0.7-51.4-2.7-76.9 3.1-40.3 9.1-57.7 33.6-54.1 76 2.8 33.1 27.7 54.7 65.4 56.1 22.7 0.8 45.4 0 68 0.9 19.6 0.8 30.8 10.5 30.4 31.5-0.4 20.4-0.1 40.8 0 61.2 0.2 36.3-1 72.7 1.2 108.8 2 33.6 16.3 45.7 49.1 46.8 18.1 0.6 36.3 0.5 54.4 0.3 52.9-0.6 55.5 7.6 67.4-53.8 12.1-62.6 64.3-109.2 126.1-117.8 58.6-8.2 117.1 21.4 147.1 74 12.6 22.1 18.7 46.2 21.5 71.1 1.9 17.1 10 26.4 27.6 26.4 31.8 0 63.5 0.7 95.3-0.6 27.5-1.1 40.1-12.9 42.9-40.2 2-19.5 1.1-39.3 1.3-58.9 0.9-68.5-1.5-60.5-56.7-71.9-69.9-14.5-116-74.2-115.8-145.7 0.1-69.2 47.6-127.3 116.7-142.6 11.8-2.6 23.9-3.7 35.8-5.8 10.6-1.9 19-6.9 19.2-18.8 0.7-37 3.3-74.1-1.6-110.9-2.9-21.7-16.3-33.7-38.3-34.5-43.8-1.5-87.6-2.8-131.4-3.5-15.8-0.2-31.4 3.6-47.4 1.5-20-2.7-29.6-12.9-29.6-33 0.1-23.4 0.7-46.9-0.7-70.3-2.2-38.1-29.1-62.5-67-62.5-37.7 0-64.6 24.6-67.2 62.5-1.2 16.6-0.5 33.3-0.5 49.9 0 50.1-3.3 53.4-53.8 54.5-4.5 0.1-9.1 0-13.6 0-44.6 0.1-89.2-0.3-133.8 0.6-31.2 0.6-43.4 10.3-45.9 41.2-2.6 30.7-0.6 61.8-0.6 92.8z" p-id="1459"></path></svg>