<?xml version="1.0" standalone="no"?><!DOCTYPE svg PUBLIC "-//W3C//DTD SVG 1.1//EN" "http://www.w3.org/Graphics/SVG/1.1/DTD/svg11.dtd"><svg t="1699352913898" class="icon" viewBox="0 0 1031 1024" version="1.1" xmlns="http://www.w3.org/2000/svg" p-id="1719" xmlns:xlink="http://www.w3.org/1999/xlink" width="201.3671875" height="200"><path d="M332.98703517 859.61132275a14.82752549 14.82752549 0 0 1-7.72266964-2.10056593L172.10838132 769.10163466A15.44533927 15.44533927 0 0 1 164.38571167 755.75686132V578.93861769a15.5689019 15.5689019 0 0 1 7.72266965-13.40655432L325.01724029 477.12294121a15.63068356 15.63068356 0 0 1 15.44533927 0l153.34132782 88.40912216a15.5689019 15.5689019 0 0 1 7.72266964 13.40655432v176.81824363a15.44533927 15.44533927 0 0 1-7.72266964 13.34477334l-153.09420258 88.40912216a15.13643238 15.13643238 0 0 1-7.72266963 2.10056592zM195.27639023 746.86034643l137.71064495 79.45082493 137.64886329-79.45082493V587.83513324L332.98703517 508.38430763 195.27639023 587.83513324z m290.80484751 8.89651489zM695.70538228 859.61132275a15.13643238 15.13643238 0 0 1-7.72266965-2.10056593L535.07385432 769.10163466a15.44533927 15.44533927 0 0 1-7.72266964-13.34477334V578.93861769A15.5689019 15.5689019 0 0 1 535.07385432 565.53206337l153.09420259-88.40912216a15.63068356 15.63068356 0 0 1 15.44533927 0l153.15598422 88.40912216a15.5689019 15.5689019 0 0 1 7.72266964 13.40655432v176.81824363a15.44533927 15.44533927 0 0 1-7.72266964 13.34477334l-153.15598422 88.40912216a14.82752549 14.82752549 0 0 1-7.90801391 2.10056592zM558.24186325 746.86034643L695.70538228 826.31117137l137.71064494-79.45082494V587.83513324L695.70538228 508.38430763 558.24186325 587.83513324z m290.80484752 8.89651489zM512.58544018 548.91287816a14.82752549 14.82752549 0 0 1-7.72266965-2.10056593L351.70678632 458.40319008a15.44533927 15.44533927 0 0 1-7.72266966-13.34477335V268.24017311a15.5689019 15.5689019 0 0 1 7.72266965-13.40655501L504.86277053 166.42449664a15.63068356 15.63068356 0 0 1 15.44533929-1e-8l153.09420255 88.40912147a15.5689019 15.5689019 0 0 1 7.72266966 13.406555v176.81824363a15.44533927 15.44533927 0 0 1-7.72266965 13.34477335L520.30810981 546.81231222a15.13643238 15.13643238 0 0 1-7.72266963 2.10056594zM374.87479523 436.22368281l137.71064495 79.38904397L650.23430346 436.22368281V277.13668868L512.58544018 197.68586305 374.87479523 277.13668868z m290.80484752 8.89651556z" p-id="1720"></path><path d="M512.58544018 366.28718655a15.81602714 15.81602714 0 0 1-7.7844513-2.10056594l-96.81138655-55.9739098a15.44533927 15.44533927 0 0 1 0-26.75132767L504.80098888 225.48747402a15.75424617 15.75424617 0 0 1 15.50712094 0L617.11949636 281.77029005a15.44533927 15.44533927 0 0 1 0 26.75132766l-96.81138655 55.66500291a15.75424617 15.75424617 0 0 1-7.72266964 2.10056593zM446.60295053 294.86793815l65.98248965 38.11909703L578.3208039 294.86793815 512.58544018 257.05774734zM332.98703517 682.79307912a15.19821402 15.19821402 0 0 1-7.96979488-2.10056662l-96.81138655-55.60322126a15.5689019 15.5689019 0 0 1-7.72266964-13.40655431 15.44533927 15.44533927 0 0 1 7.72266964-13.34477334L325.01724029 542.05514756a15.44533927 15.44533927 0 0 1 15.50712025 0l96.81138655 55.97390912a15.44533927 15.44533927 0 0 1 7.72266964 13.34477335 15.5689019 15.5689019 0 0 1-7.72266964 13.40655432l-96.81138655 55.60322194a15.13643238 15.13643238 0 0 1-7.53732536 2.40947283zM267.00454553 611.37383003l65.98248965 38.11909771L399.15486841 611.37383003l-66.16783324-38.11909703zM695.70538228 682.79307912a15.13643238 15.13643238 0 0 1-7.72266965-2.10056662l-96.81138656-55.60322126a15.5689019 15.5689019 0 0 1-7.72266963-13.40655431 15.44533927 15.44533927 0 0 1 7.72266963-13.34477334l96.81138656-55.97390914a15.44533927 15.44533927 0 0 1 15.50712093 0L800.73368963 598.02905668a15.44533927 15.44533927 0 0 1 7.72266964 13.34477335 15.5689019 15.5689019 0 0 1-7.72266963 13.40655432l-96.81138657 55.60322194a15.19821402 15.19821402 0 0 1-8.2169208 2.40947283zM629.97001855 611.37383003L695.70538228 649.49292774l65.98248964-38.11909771L695.70538228 573.254733z" p-id="1721"></path></svg>