<?xml version="1.0" standalone="no"?><!DOCTYPE svg PUBLIC "-//W3C//DTD SVG 1.1//EN" "http://www.w3.org/Graphics/SVG/1.1/DTD/svg11.dtd"><svg t="1699352900854" class="icon" viewBox="0 0 1024 1024" version="1.1" xmlns="http://www.w3.org/2000/svg" p-id="1174" xmlns:xlink="http://www.w3.org/1999/xlink" width="200" height="200"><path d="M388.40380836 172.11047387H264.80761742C213.59244562 172.11047387 172.11047387 213.59244562 172.11047387 264.80761742v123.59619094c0 51.21517182 41.48197175 92.69714356 92.69714355 92.69714355h123.59619094c51.21517182 0 92.69714356-41.48197175 92.69714355-92.69714355V264.80761742c0-51.21517182-41.48197175-92.69714356-92.69714355-92.69714355z m30.89904809 216.29333449c0 17.0717237-13.82732367 30.89904809-30.89904809 30.89904809H264.80761742c-17.0717237 0-30.89904809-13.82732367-30.89904809-30.89904809V264.80761742c0-17.0717237 13.82732367-30.89904809 30.89904809-30.89904809h123.59619094c17.0717237 0 30.89904809 13.82732367 30.89904808 30.89904809v123.59619094zM759.19238258 172.11047387H635.59619164c-51.21517182 0-92.69714356 41.48197175-92.69714355 92.69714355v494.38476516c0 51.21517182 41.48197175 92.69714356 92.69714355 92.69714355h123.59619094c51.21517182 0 92.69714356-41.48197175 92.69714355-92.69714355V264.80761742c0-51.21517182-41.48197175-92.69714356-92.69714355-92.69714355z m30.89904809 587.08190871c0 17.0717237-13.82732367 30.89904809-30.89904809 30.89904809H635.59619164c-17.0717237 0-30.89904809-13.82732367-30.89904809-30.89904809V264.80761742c0-17.0717237 13.82732367-30.89904809 30.89904809-30.89904809h123.59619094c17.0717237 0 30.89904809 13.82732367 30.89904809 30.89904809v494.38476516zM388.40380836 542.89904809H264.80761742C213.59244562 542.89904809 172.11047387 584.38101984 172.11047387 635.59619164v123.59619094c0 51.21517182 41.48197175 92.69714356 92.69714355 92.69714355h123.59619094c51.21517182 0 92.69714356-41.48197175 92.69714355-92.69714355V635.59619164c0-51.21517182-41.48197175-92.69714356-92.69714355-92.69714355z m30.89904809 216.29333449c0 17.0717237-13.82732367 30.89904809-30.89904809 30.89904809H264.80761742c-17.0717237 0-30.89904809-13.82732367-30.89904809-30.89904809V635.59619164c0-17.0717237 13.82732367-30.89904809 30.89904809-30.89904809h123.59619094c17.0717237 0 30.89904809 13.82732367 30.89904808 30.89904809v123.59619094z" p-id="1175"></path></svg>