<?xml version="1.0" standalone="no"?><!DOCTYPE svg PUBLIC "-//W3C//DTD SVG 1.1//EN" "http://www.w3.org/Graphics/SVG/1.1/DTD/svg11.dtd"><svg t="1711102948853" class="icon" viewBox="0 0 1024 1024" version="1.1" xmlns="http://www.w3.org/2000/svg" p-id="1980" xmlns:xlink="http://www.w3.org/1999/xlink" width="16" height="16"><path d="M641.81445663 608.58464093h-38.68420448a2.39153977 2.39153977 0 0 0-2.39153977 2.43349693v70.15183297H303.81016983V303.81016983h296.92854254V373.9620028c0 1.34261897 1.09087795 2.39153977 2.43349645 2.39153978h38.68420496a2.39153977 2.39153977 0 0 0 2.39153976-2.43349646V284.46806735A24.20909537 24.20909537 0 0 0 620.08081486 260.25897198h-335.6547042A24.20909537 24.20909537 0 0 0 260.25897198 284.46806735v416.04400597c0 13.34227448 10.82486421 24.1671387 24.20909537 24.16713869h335.61274752a24.20909537 24.20909537 0 0 0 24.16713867-24.16713869V610.97618069a2.39153977 2.39153977 0 0 0-2.39153976-2.39153975z m120.75178009-118.10849884L651.12887466 417.55515781a2.43349644 2.43349644 0 0 0-3.77611542 2.01392823v51.18734204h-152.30332196a2.60132412 2.60132412 0 0 0-2.55936694 2.55936745v38.30659293c0 1.42653232 1.13283463 2.6432808 2.55936694 2.64328079h152.30332196v51.10342869a2.43349644 2.43349644 0 0 0 3.77611542 2.01392822l111.43736206-72.8790276a2.30762593 2.30762593 0 0 0 0-4.02785647z" p-id="1981"></path></svg>