<?xml version="1.0" standalone="no"?><!DOCTYPE svg PUBLIC "-//W3C//DTD SVG 1.1//EN" "http://www.w3.org/Graphics/SVG/1.1/DTD/svg11.dtd"><svg t="1705654595784" class="icon" viewBox="0 0 1024 1024" version="1.1" xmlns="http://www.w3.org/2000/svg" p-id="1284" xmlns:xlink="http://www.w3.org/1999/xlink" width="16" height="16"><path d="M690.22021638 257.39969097h-67.72368255a25.46003107 25.46003107 0 0 0 0 50.92006216H690.22021638a25.46003107 25.46003107 0 0 1 25.46003049 25.46003049v65.17767926a25.46003107 25.46003107 0 0 0 50.92006216 0V333.77978362a76.38009265 76.38009265 0 0 0-76.38009265-76.38009265zM741.14027795 605.18371303a25.46003107 25.46003107 0 0 0-25.46003107 25.46003108V690.22021638a25.46003107 25.46003107 0 0 1-25.4600305 25.46003049h-57.2850695a25.46003107 25.46003107 0 0 0 0 50.92006216H690.22021638a76.38009265 76.38009265 0 0 0 76.38009265-76.38009265v-59.57647226a25.46003107 25.46003107 0 0 0-25.46003108-25.4600311zM393.86545689 715.68024687H333.77978362a25.46003107 25.46003107 0 0 1-25.46003049-25.46003049v-58.81267134a25.46003107 25.46003107 0 0 0-50.92006216 0V690.22021638a76.38009265 76.38009265 0 0 0 76.38009265 76.38009265h60.08567327a25.46003107 25.46003107 0 0 0 0-50.92006216zM282.85972205 428.745699a25.46003107 25.46003107 0 0 0 25.46003107-25.46003106V333.77978362a25.46003107 25.46003107 0 0 1 25.4600305-25.46003049h66.95988161a25.46003107 25.46003107 0 0 0 0-50.92006216H333.77978362a76.38009265 76.38009265 0 0 0-76.38009265 76.38009265v69.50588432a25.46003107 25.46003107 0 0 0 25.46003108 25.46003107zM690.22021638 507.92639487C690.22021638 461.07993843 609.00271767 384.69984578 512 384.69984578s-178.22021638 76.38009265-178.22021638 123.22654909 81.98129963 123.22654967 178.22021638 123.22654965 178.22021638-75.61629172 178.22021638-123.22654965z m-178.22021638 72.3064881c-73.32488895 0-127.30015422-58.04887042-127.30015422-72.05188761S438.67511105 435.61990735 512 435.61990735s125.77255237 57.28506949 127.30015422 72.30648752c-1.78220236 15.02141802-54.48446629 72.30648751-127.30015422 72.3064881z" p-id="1285"></path><path d="M512 438.67511105a68.23288297 68.23288297 0 1 0 67.97828245 68.23288297A68.23288297 68.23288297 0 0 0 512 438.67511105z m0 85.29110326a17.05822088 17.05822088 0 0 1-17.05822088-17.05822029 17.05822088 17.05822088 0 1 1 34.11644176 0 17.05822088 17.05822088 0 0 1-17.05822088 17.05822029z" p-id="1286"></path></svg>