<?xml version="1.0" standalone="no"?><!DOCTYPE svg PUBLIC "-//W3C//DTD SVG 1.1//EN" "http://www.w3.org/Graphics/SVG/1.1/DTD/svg11.dtd"><svg t="1743354805766" class="icon" viewBox="0 0 1110 1024" version="1.1" xmlns="http://www.w3.org/2000/svg" p-id="1954" xmlns:xlink="http://www.w3.org/1999/xlink" width="216.796875" height="200"><path d="M808.05028031 459.5890161a12.96196037 12.96196037 0 0 0 12.92312342-13.00079784V290.57864237c0-35.82744187-28.96779759-65.00398981-64.60590725-65.00398981H342.91008012C307.27682514 225.57465256 278.30902755 254.75120051 278.30902755 290.57864237v442.03198607c0 35.82744187 28.96779759 65.00398981 64.60105257 65.00398982h413.45741636c35.63325498 0 64.60105256-29.17654795 64.60105257-65.00398982V654.60098553a12.96196037 12.96196037 0 0 0-12.91826874-13.00079785 12.96196037 12.96196037 0 0 0-12.92312345 13.00079785v78.00964291c0 21.50617449-17.3894171 39.00239411-38.75966038 39.00239356H342.91008012c-21.37024384 0-38.75966038-17.50107429-38.75966039-39.00239356V355.58263217h490.98159183v91.00558609a12.96681504 12.96681504 0 0 0 12.91826875 13.00079783zM304.15041973 329.58103647V290.57864237c0-21.50617449 17.3894171-39.00239411 38.75966039-39.0023941h413.45741637c21.37024384 0 38.76451506 17.49621963 38.76451507 39.0023941v39.0023941H304.15041973z m38.75966039-26.00159625a12.96196037 12.96196037 0 0 0 12.92312342-13.00079784 12.96196037 12.96196037 0 0 0-12.92312342-13.00079786 12.96196037 12.96196037 0 0 0-12.91826876 13.00079786 12.96196037 12.96196037 0 0 0 12.91826876 13.00079784z m51.6827838 0a12.96196037 12.96196037 0 0 0 12.92312345-13.00079784 12.96196037 12.96196037 0 0 0-12.92312345-13.00079786 12.96196037 12.96196037 0 0 0-12.91826875 13.00079786 12.96196037 12.96196037 0 0 0 12.91826875 13.00079784z m51.68278382 0a12.96196037 12.96196037 0 0 0 12.92312344-13.00079784 12.96196037 12.96196037 0 0 0-12.92312344-13.00079786 12.96196037 12.96196037 0 0 0-12.91826875 13.00079786 12.96196037 12.96196037 0 0 0 12.91826875 13.00079784z m404.56852123 234.50953982c31.62815482 5.22847598 47.64855552 18.17587285 47.64855552 38.51207252 0 21.86541956-22.71013155 39.00239411-51.702202 39.00239411-27.47741462 0-49.64382358-15.52522499-51.6051094-36.1187219a12.9862338 12.9862338 0 0 1 11.62692733-14.17077264c7.07810458-0.75247352 13.40858977 4.54882277 14.10766178 11.69974705 0.4903216 5.25274941 10.56860974 12.58329654 25.8656656 12.58329654 15.55920724 0 25.87051974-7.82572285 25.87051974-13.00079784 0-3.89829764-4.52454933-9.30639646-25.99674156-12.86486721l-1.70398804-13.4717007-2.06808778 12.81632034c-31.71068445-5.19934843-47.75535862-18.15159942-47.7553586-38.50721782 0-21.87027425 22.71498623-39.00239411 51.70705722-39.00239357 27.46770524 0 49.64382358 15.52037032 51.60510943 36.11872135a12.9862338 12.9862338 0 0 1-11.62692735 14.16591798c-6.82566149 0.990352-13.41344448-4.52454933-14.11251646-11.69974706-0.48546692-5.25274941-10.56860974-12.55902311-25.86566562-12.55902313-15.55435255 0-25.86566506 7.82572285-25.86566505 13.00079785 0 3.19922569 3.38370263 9.12677363 26.04528788 12.84544846l3.82547736 0.65052567z m-129.23123269 0c31.62815482 5.22847598 47.64855552 18.17587285 47.64855552 38.51207252 0 21.86541956-22.71013155 39.00239411-51.70220255 39.00239411-27.47741462 0-49.64382358-15.52522499-51.60510939-36.1187219a12.9862338 12.9862338 0 0 1 11.62692735-14.17077264c6.95188275-0.75247352 13.40858977 4.54882277 14.10766231 11.69974705 0.4903216 5.25274941 10.56860974 12.58329654 25.86566504 12.58329654 15.55920724 0 25.87051974-7.82572285 25.87051974-13.00079784 0-3.89829764-4.52454933-9.30639646-25.97246758-12.86486721l-1.72826145-13.4717007-2.06808835 12.81632034c-31.71068445-5.19934843-47.75535862-18.15159942-47.75535805-38.50721782 0-21.87027425 22.71498623-39.00239411 51.70705726-39.00239357 27.46770524 0 49.64382358 15.52037032 51.60510882 36.11872135a12.9862338 12.9862338 0 0 1-11.62692735 14.16591798c-6.90333645 0.990352-13.41344448-4.52454933-14.11251643-11.69974706-0.48546692-5.22362186-10.56860974-12.55902311-25.86566504-12.55902313-15.55435255 0-25.86566506 7.82572285-25.86566564 13.00079785 0 3.19922569 3.38370263 9.12677363 26.04528788 12.84544846l3.82547791 0.65052567zM627.16539136 563.59540002a12.96196037 12.96196037 0 0 1 12.91826875 13.00079786c0 21.50617449-17.3894171 39.00239411-38.75966037 39.00239411h-25.84139219c-21.37024384 0-38.75966038-17.49621963-38.75966038-39.00239411V524.59300591c0-21.50617449 17.3894171-39.00239411 38.75966038-39.00239411h25.84139219c21.37024384 0 38.75966038 17.50107429 38.75966037 39.00239411a12.96196037 12.96196037 0 0 1-12.91826875 13.00079786 12.96196037 12.96196037 0 0 1-12.92312343-13.00079786 12.98137912 12.98137912 0 0 0-12.91826819-13.00079785h-25.84139219a12.98137912 12.98137912 0 0 0-12.92312344 13.00079785v52.00319197a12.98137912 12.98137912 0 0 0 12.92312344 13.00079785h25.84139219c7.10237746 0 12.91826875-5.82560011 12.91826819-13.00079785a12.96196037 12.96196037 0 0 1 12.92312343-13.00079786z" p-id="1955"></path></svg>