<?xml version="1.0" standalone="no"?><!DOCTYPE svg PUBLIC "-//W3C//DTD SVG 1.1//EN" "http://www.w3.org/Graphics/SVG/1.1/DTD/svg11.dtd"><svg t="1705654591954" class="icon" viewBox="0 0 1024 1024" version="1.1" xmlns="http://www.w3.org/2000/svg" p-id="1131" xmlns:xlink="http://www.w3.org/1999/xlink" width="16" height="16"><path d="M766.60030903 461.07993843h-101.84012372a50.92006157 50.92006157 0 0 0-50.92006158 50.92006157v203.68024687a50.92006157 50.92006157 0 0 0 50.92006158 50.92006216h101.84012372a50.92006157 50.92006157 0 0 0 50.92006157-50.92006215v-203.68024688a50.92006157 50.92006157 0 0 0-50.92006157-50.92006157z m0 254.60030844h-101.84012372v-203.68024687h101.84012372z m12.73001525-458.2805559h-534.66064856A38.19004631 38.19004631 0 0 0 206.4796294 295.58973731v330.98040166A38.19004631 38.19004631 0 0 0 244.66967572 664.76018531H461.07993843l-11.4570139 22.65942728A50.92006157 50.92006157 0 0 1 403.54026843 715.68024687H397.42986102a12.73001524 12.73001524 0 0 0-12.73001524 12.73001582v25.46003051a12.73001524 12.73001524 0 0 0 12.73001524 12.73001583H562.92006157v-203.68024746H257.39969097V308.31975313h509.20061806v101.84012314h50.92006157V295.58973731A38.19004631 38.19004631 0 0 0 779.33032428 257.39969097z" p-id="1132"></path></svg>