<svg xmlns="http://www.w3.org/2000/svg" viewBox="0 0 32 32">
  <path fill-rule="evenodd" clip-rule="evenodd" d="M16 8.5C13.3991 8.5 11.2907 10.6084 11.2907 13.2093C11.2907 13.6285 11.3455 14.035 11.4483 14.4219C9.72001 15.1192 8.5 16.812 8.5 18.7907C8.5 21.3916 10.6084 23.5 13.2093 23.5C14.2539 23.5 15.219 23.1599 16 22.5844C16.7809 23.1597 17.7466 23.5 18.7907 23.5C21.3916 23.5 23.5 21.3916 23.5 18.7907C23.5 16.812 22.28 15.1192 20.5517 14.4219C20.6545 14.035 20.7093 13.6285 20.7093 13.2093C20.7093 10.6084 18.6009 8.5 16 8.5ZM20.1714 15.3969C19.6544 16.3808 18.7995 17.1593 17.7609 17.5783C17.8638 17.9655 17.9186 18.372 17.9186 18.7907C17.9186 19.9613 17.4915 21.0321 16.7846 21.8559C17.3609 22.2339 18.0498 22.4535 18.7907 22.4535C20.8136 22.4535 22.4535 20.8136 22.4535 18.7907C22.4535 17.2568 21.5102 15.9421 20.1714 15.3969ZM16.7526 17.8588C16.5075 17.8981 16.2562 17.9186 16 17.9186C14.1888 17.9186 12.6164 16.8961 11.8286 15.3969C10.4898 15.9421 9.54651 17.2568 9.54651 18.7907C9.54651 20.8136 11.1864 22.4535 13.2093 22.4535C15.2322 22.4535 16.8721 20.8136 16.8721 18.7907C16.8721 18.4682 16.8305 18.1559 16.7526 17.8588ZM12.3372 13.2093C12.3372 11.1864 13.9771 9.54651 16 9.54651C18.0229 9.54651 19.6628 11.1864 19.6628 13.2093C19.6628 15.2322 18.0229 16.8721 16 16.8721C13.9771 16.8721 12.3372 15.2322 12.3372 13.2093Z" />
</svg>
