<?xml version="1.0" standalone="no"?><!DOCTYPE svg PUBLIC "-//W3C//DTD SVG 1.1//EN" "http://www.w3.org/Graphics/SVG/1.1/DTD/svg11.dtd"><svg t="1700386197440" class="icon" viewBox="0 0 1024 1024" version="1.1" xmlns="http://www.w3.org/2000/svg" p-id="1287" xmlns:xlink="http://www.w3.org/1999/xlink" width="16" height="16"><path d="M833.81634241 365.53023675l17.43037371-17.66625511c8.36757222-8.59103866 8.36757222-19.98782158 0.23588073-27.88363164l-5.58665791-5.57424361c-7.42404792-7.43646292-19.04429727-6.74123434-26.94010736 1.16699141l-17.43037369 17.19449228z m-266.98018843 240.72289468l47.39969109-21.142398 202.39841937-202.15012299-32.52676527-32.3032995-202.17495295 202.15012365-22.29697373 45.7857675c-1.86221932 3.94790503 2.79332929 9.52214863 7.20058149 7.65992934zM232.4684529 759.153759h457.28659631c43.92354818 0 67.8468605-23.0046173 67.84686047-66.9157505V499.83349991l-37.40578026 37.40578028v156.84853262c0 19.292593-10.92502077 30.20519879-30.20519881 30.20519879H232.00910574c-19.292593 0-30.21761378-10.92502077-30.21761379-30.20519878v-195.40888865c0-19.292593 10.92502077-30.21761378 30.21761378-30.21761379h376.19314857l35.08421382-34.8483324H232.4684529C188.54490471 433.61297798 164.38571167 456.61759528 164.38571167 500.52872848v191.69686503c0 43.92354818 24.15919304 66.91575051 68.08274123 66.91575051z m58.78405902-132.912806c16.51167869 0 29.98173237-13.48246866 29.98173237-29.74585164a29.84516951 29.84516951 0 0 0-29.98173237-29.74585095 29.64653307 29.64653307 0 0 0-29.73343597 29.74585095 29.79551023 29.79551023 0 0 0 29.73343597 29.74585164z m93.40892568 0c16.51167869 0 29.98173237-13.48246866 29.98173238-29.74585164a29.84516951 29.84516951 0 0 0-29.98173238-29.74585095 29.70860667 29.70860667 0 0 0-29.96931806 29.74585095 29.84516951 29.84516951 0 0 0 29.96931806 29.74585164z m93.18545857 0a29.95690307 29.95690307 0 0 0 29.73343664-29.74585164 29.79551023 29.79551023 0 0 0-29.73343664-29.74585095 29.84516951 29.84516951 0 0 0-29.98173237 29.74585095c0 16.26338297 13.48246866 29.74585096 29.98173237 29.74585164z" p-id="1288"></path></svg>