<?xml version="1.0" standalone="no"?><!DOCTYPE svg PUBLIC "-//W3C//DTD SVG 1.1//EN" "http://www.w3.org/Graphics/SVG/1.1/DTD/svg11.dtd"><svg t="1720700744387" class="icon" viewBox="0 0 1253 1024" version="1.1" xmlns="http://www.w3.org/2000/svg" p-id="9953" data-spm-anchor-id="a313x.search_index.0.i1.22303a81chbdSp" xmlns:xlink="http://www.w3.org/1999/xlink" width="244.7265625" height="200"><path d="M217.338776 896c0 28.274939 183.379592 51.2 409.6 51.2 226.220408 0 409.6-22.925061 409.6-51.2 0-28.274939-183.379592-51.2-409.6-51.2-226.220408 0-409.6 22.925061-409.6 51.2z" fill="#9C9C9C" opacity=".1" p-id="9954"></path><path d="M231.674776 376.832c0 8.704 6.656 15.36 15.36 15.36s15.36-6.656 15.36-15.36-6.656-15.36-15.36-15.36c-8.192 0-15.36 7.168-15.36 15.36zM1041.658776 832c-19.456 5.12-23.552 9.216-28.16 28.16-5.12-19.456-9.216-23.552-28.16-28.16 18.944-5.12 23.552-9.216 28.16-28.16 4.608 18.944 8.704 23.552 28.16 28.16zM317.178776 323.072c-25.088 6.656-30.208 11.776-36.864 36.864-6.656-25.088-11.776-30.208-36.864-36.864 25.088-6.656 30.208-12.288 36.864-36.864 6.144 25.088 11.776 30.208 36.864 36.864z m614.4-88.064c-15.36 4.096-18.432 7.168-22.528 22.528-4.096-15.36-7.168-18.432-22.528-22.528 15.36-4.096 18.432-7.168 22.528-22.528 3.584 15.36 7.168 18.432 22.528 22.528z m66.048-78.848c-39.936 10.24-48.128 18.944-58.88 58.88-10.24-39.936-18.944-48.128-58.88-58.88 39.936-10.24 48.128-18.944 58.88-58.88 10.24 39.424 18.944 48.128 58.88 58.88zM975.098776 551.936v-1.024c0-1.024-0.512-1.536-0.512-2.56v-0.512L864.506776 260.608a117.728653 117.728653 0 0 0-112.128-81.408H502.010776c-51.2 0-96.256 32.768-112.128 81.408L279.802776 547.84v0.512c-0.512 1.024-0.512 1.536-0.512 2.56V757.76c0 65.024 52.736 117.76 117.76 117.76h460.8c65.024 0 117.76-52.736 117.76-117.76v-204.8c-0.512-0.512-0.512-0.512-0.512-1.024zM418.554776 271.36s0-0.512 0.512-0.512c11.264-36.864 45.056-60.928 82.944-60.928h249.856c37.888 0 71.68 24.064 83.456 60.416 0 0 0 0.512 0.512 0.512l101.888 266.24H703.738776c-8.704 0-15.36 6.656-15.36 15.36 0 33.792-27.648 61.44-61.44 61.44s-61.44-27.648-61.44-61.44c0-8.704-6.656-15.36-15.36-15.36H316.666776l101.888-265.728zM944.378776 757.76a86.966857 86.966857 0 0 1-87.04 87.04h-460.8a86.966857 86.966857 0 0 1-87.04-87.04V568.32h226.816c7.168 43.52 45.056 76.8 90.624 76.8s83.456-33.28 90.624-76.8H944.378776v189.44z" fill="#9C9C9C" opacity=".5" p-id="9955" data-spm-anchor-id="a313x.search_index.0.i2.22303a81chbdSp" class="selected"></path><path d="M626.938776 578.56a25.349224 25.349224 0 0 1-25.6-25.6v-51.2H368.378776l83.968-219.136 0.512-1.024c7.168-21.504 26.624-35.84 49.152-35.84h249.856c22.528 0 41.984 14.336 49.152 35.84l0.512 1.024 83.968 219.136H652.538776v51.2A25.349224 25.349224 0 0 1 626.938776 578.56z" fill="#9C9C9C" opacity=".2" p-id="9956" data-spm-anchor-id="a313x.search_index.0.i0.22303a81chbdSp" class="selected"></path></svg>