<?xml version="1.0" standalone="no"?><!DOCTYPE svg PUBLIC "-//W3C//DTD SVG 1.1//EN" "http://www.w3.org/Graphics/SVG/1.1/DTD/svg11.dtd"><svg t="1700758811255" class="icon" viewBox="0 0 1024 1024" version="1.1" xmlns="http://www.w3.org/2000/svg" p-id="1193" xmlns:xlink="http://www.w3.org/1999/xlink" width="200" height="200"><path d="M191.42237854 461.86629486c13.67282868 0 24.71923828-11.04640961 24.71923828-24.71923828V226.49279785c0-5.79357148 4.7121048-10.42842865 10.42842865-10.42842866h210.57701111c13.67282868 0 24.71923828-11.04640961 24.71923829-24.71923827s-11.04640961-24.71923828-24.71923828-24.71923829H226.57004547C193.50806427 166.62589263 166.70314026 193.43081665 166.70314026 226.49279785v210.65425874c0 13.59558106 11.04640961 24.71923828 24.71923828 24.71923827zM437.2243042 807.70388794H226.57004547c-5.79357148 0-10.42842865-4.7121048-10.42842865-10.42842865V586.69844818c0-13.67282868-11.04640961-24.71923828-24.71923828-24.71923829s-24.71923828 11.04640961-24.71923828 24.71923829v210.57701112c0 33.0619812 26.80492402 59.86690522 59.86690521 59.8669052h210.65425873c13.67282868 0 24.71923828-11.04640961 24.71923828-24.71923828s-11.12365723-24.71923828-24.71923828-24.71923828zM832.65486909 561.90196228c-13.67282868 0-24.71923828 11.04640961-24.71923829 24.71923829v210.65425873c0 5.79357148-4.7121048 10.42842865-10.42842866 10.42842864H586.93019104c-13.67282868 0-24.71923828 11.04640961-24.71923828 24.71923828s11.04640961 24.71923828 24.71923828 24.71923828h210.57701111c33.0619812 0 59.86690522-26.80492402 59.86690522-59.86690521V586.62120057c0-13.67282868-11.04640961-24.71923828-24.71923829-24.71923829zM797.58444977 166.62589263H586.93019104c-13.67282868 0-24.71923828 11.04640961-24.71923828 24.71923829s11.04640961 24.71923828 24.71923828 24.71923828h210.65425873c5.79357148 0 10.42842865 4.7121048 10.42842865 10.42842866V437.06980896c0 13.67282868 11.04640961 24.71923828 24.71923828 24.71923828s24.71923828-11.04640961 24.71923828-24.71923828V226.49279785c0-33.0619812-26.80492402-59.86690522-59.86690522-59.86690522z" fill="#BDBDBD" p-id="1194"></path></svg>