<svg xmlns="http://www.w3.org/2000/svg" viewBox="0 0 32 32">
  <path fill-rule="evenodd" clip-rule="evenodd" d="M10.2308 9.65385C9.91214 9.65385 9.65385 9.91214 9.65385 10.2308V21.7692C9.65385 22.0879 9.91214 22.3462 10.2308 22.3462H21.7692C22.0879 22.3462 22.3462 22.0879 22.3462 21.7692V10.2308C22.3462 9.91214 22.0879 9.65385 21.7692 9.65385H10.2308ZM8.5 10.2308C8.5 9.27489 9.27489 8.5 10.2308 8.5H21.7692C22.7251 8.5 23.5 9.27489 23.5 10.2308V21.7692C23.5 22.7251 22.7251 23.5 21.7692 23.5H10.2308C9.27489 23.5 8.5 22.7251 8.5 21.7692V10.2308Z" />
  <path fill-rule="evenodd" clip-rule="evenodd" d="M11.5769 12.1538C11.5769 11.8352 11.8352 11.5769 12.1538 11.5769H19.8462C20.1648 11.5769 20.4231 11.8352 20.4231 12.1538V19.8462C20.4231 20.1648 20.1648 20.4231 19.8462 20.4231H12.1538C11.8352 20.4231 11.5769 20.1648 11.5769 19.8462V12.1538ZM12.7308 12.7308V19.2692H19.2692V12.7308H12.7308Z" />
  <path fill-rule="evenodd" clip-rule="evenodd" d="M20.2541 15.2074C20.4794 15.4327 20.4794 15.798 20.2541 16.0233L16.0233 20.2541C15.798 20.4794 15.4327 20.4794 15.2074 20.2541C14.9821 20.0288 14.9821 19.6635 15.2074 19.4382L19.4382 15.2074C19.6635 14.9821 20.0288 14.9821 20.2541 15.2074Z" />
  <path fill-rule="evenodd" clip-rule="evenodd" d="M16.7926 11.7459C17.0179 11.9712 17.0179 12.3365 16.7926 12.5618L12.5618 16.7926C12.3365 17.0179 11.9712 17.0179 11.7459 16.7926C11.5206 16.5673 11.5206 16.202 11.7459 15.9767L15.9767 11.7459C16.202 11.5206 16.5673 11.5206 16.7926 11.7459Z" />
  <path fill-rule="evenodd" clip-rule="evenodd" d="M20.2541 11.7459C20.4794 11.9712 20.4794 12.3365 20.2541 12.5618L12.5618 20.2541C12.3365 20.4794 11.9712 20.4794 11.7459 20.2541C11.5206 20.0288 11.5206 19.6635 11.7459 19.4382L19.4382 11.7459C19.6635 11.5206 20.0288 11.5206 20.2541 11.7459Z" />
  <path fill-rule="evenodd" clip-rule="evenodd" d="M12.1538 14.6538C12.4725 14.6538 12.7308 14.9121 12.7308 15.2308V19.2692H16.7692C17.0879 19.2692 17.3462 19.5275 17.3462 19.8462C17.3462 20.1648 17.0879 20.4231 16.7692 20.4231H12.1538C11.8352 20.4231 11.5769 20.1648 11.5769 19.8462V15.2308C11.5769 14.9121 11.8352 14.6538 12.1538 14.6538Z" />
  <path fill-rule="evenodd" clip-rule="evenodd" d="M14.6538 12.1538C14.6538 11.8352 14.9121 11.5769 15.2308 11.5769H19.8462C20.1648 11.5769 20.4231 11.8352 20.4231 12.1538V16.7692C20.4231 17.0879 20.1648 17.3462 19.8462 17.3462C19.5275 17.3462 19.2692 17.0879 19.2692 16.7692V12.7308H15.2308C14.9121 12.7308 14.6538 12.4725 14.6538 12.1538Z" />
</svg>
