<svg xmlns="http://www.w3.org/2000/svg" viewBox="0 0 32 32">
  <path clip-rule="evenodd" d="M9.65385 10.2308C9.65385 9.91214 9.91214 9.65385 10.2308 9.65385H21.7692C22.0879 9.65385 22.3462 9.91214 22.3462 10.2308V21.7692C22.3462 22.0879 22.0879 22.3462 21.7692 22.3462H10.2308C9.91214 22.3462 9.65385 22.0879 9.65385 21.7692V10.2308ZM10.2308 8.5C9.27489 8.5 8.5 9.27489 8.5 10.2308V21.7692C8.5 22.7251 9.27489 23.5 10.2308 23.5H21.7692C22.7251 23.5 23.5 22.7251 23.5 21.7692V10.2308C23.5 9.27489 22.7251 8.5 21.7692 8.5H10.2308ZM12.9231 12.3462C12.6045 12.3462 12.3462 12.6045 12.3462 12.9231V14.0769C12.3462 14.3955 12.6045 14.6538 12.9231 14.6538C13.2417 14.6538 13.5 14.3955 13.5 14.0769V13.5H15.4559C15.4346 13.5601 15.4231 13.6249 15.4231 13.6923V19.2692H15.2308C14.9121 19.2692 14.6538 19.5275 14.6538 19.8462C14.6538 20.1648 14.9121 20.4231 15.2308 20.4231H16H16.7692C17.0879 20.4231 17.3462 20.1648 17.3462 19.8462C17.3462 19.5275 17.0879 19.2692 16.7692 19.2692H16.5769V13.6923C16.5769 13.6249 16.5654 13.5601 16.5441 13.5H18.5V14.0769C18.5 14.3955 18.7583 14.6538 19.0769 14.6538C19.3955 14.6538 19.6538 14.3955 19.6538 14.0769V12.9231C19.6538 12.6045 19.3955 12.3462 19.0769 12.3462H12.9231Z" />
</svg>
