<?xml version="1.0" standalone="no"?><!DOCTYPE svg PUBLIC "-//W3C//DTD SVG 1.1//EN" "http://www.w3.org/Graphics/SVG/1.1/DTD/svg11.dtd"><svg t="1699352905780" class="icon" viewBox="0 0 1024 1024" version="1.1" xmlns="http://www.w3.org/2000/svg" p-id="1437" xmlns:xlink="http://www.w3.org/1999/xlink" width="200" height="200"><path d="M201.17489074 226.68591703c25.04754036-27.30703324 60.83250046-42.54412643 103.02901262-42.54412641h415.61150557c33.21647614 0 59.96346474 8.84485275 80.87825753 23.50258835 20.62511467 14.48392845 33.89239312 33.40959557 42.31238379 51.21517136a176.5108107 176.5108107 0 0 1 14.52255236 47.77765304c1.13940223 7.24196457 1.81531922 14.54186462 2.04706184 21.86107628v0.73385246h-28.96785759 28.96785759v482.5079438c0 9.38558579-4.67348129 18.15319075-12.533426 23.48327675a29.35409575 29.35409575 0 0 1-26.7276763 3.16715248l-248.27384965-93.27650092L323.70892738 838.37119286a29.35409575 29.35409575 0 0 1-26.7469886-3.16715249 28.38849998 28.38849998 0 0 1-12.53342599-23.48327605v-337.37897911H193.35356925c-15.99025727 0-28.96785758-12.78448089-28.96785758-28.54299554V329.23213212c0-39.20316682 12.1085646-75.60610771 36.78917907-102.54621507z m83.27293367 190.608501V329.25144371h57.93571448v441.08390801l219.30599275-82.40389795c6.64329536-2.5105478 14.00113089-2.5105478 20.66373786 0l219.30599205 82.38458634V328.84589394l-0.15449486-2.70366655a123.63481499 123.63481499 0 0 0-1.23596228-10.71810744 120.66078193 120.66078193 0 0 0-9.73320009-32.38606431c-5.40733307-11.31677598-12.93897644-21.53277428-23.46396446-28.90992209-10.25462151-7.20334069-25.10547653-12.93897644-47.27554321-12.93897576H304.18459108c-27.34565713 0-46.96655281 9.50145743-59.96346475 23.67639481C230.85728851 279.48466498 222.32142617 301.36505287 222.32142617 329.25144371v88.0622866h62.12639824z m28.96785758-116.58596984c7.68613823 0 15.06328605 2.99334533 20.47061912 8.34274292 5.44595696 5.36870987 8.49723847 12.61067375 8.49723778 20.180941h-57.93571448c0-15.75851463 12.97760032-28.52368324 28.96785758-28.52368392z m100.34465767 145.10965378c0-15.75851463 12.95828804-28.52368324 28.96785759-28.52368394h249.33600412c16.00956886 0 28.96785758 12.76516929 28.96785756 28.52368394 0 15.75851463-12.95828804 28.52368324-28.96785758 28.52368324h-249.3166925c-15.99025727 0-28.96785758-12.74585702-28.96785691-28.52368324h-0.01931228z m0 116.56665824c0-15.75851463 12.95828804-28.52368324 28.96785759-28.52368393h110.83102181c15.99025727 0 28.96785758 12.76516929 28.96785759 28.52368393 0 15.75851463-12.97760032 28.52368324-28.96785759 28.52368324h-110.85033409c-15.99025727 0-28.96785758-12.76516929-28.96785692-28.52368324z" fill="#000000" p-id="1438"></path></svg>