<?xml version="1.0" standalone="no"?><!DOCTYPE svg PUBLIC "-//W3C//DTD SVG 1.1//EN" "http://www.w3.org/Graphics/SVG/1.1/DTD/svg11.dtd"><svg t="1711106785783" class="icon" viewBox="0 0 1024 1024" version="1.1" xmlns="http://www.w3.org/2000/svg" p-id="1493" xmlns:xlink="http://www.w3.org/1999/xlink" width="16" height="16"><path d="M511.8481033 414.23152034c-56.6075545 0-102.58546803 45.50618425-102.58546851 101.48476578 0 55.97858153 46.00936245 101.48476578 102.55401957 101.48476577 5.5035122 0 11.3215109-0.5660756 18.36600662-1.79257264a19.12077394 19.12077394 0 0 0 15.53562868-22.20274099 19.18367133 19.18367133 0 0 0-22.42288114-15.34693698 65.75910938 65.75910938 0 0 1-11.41585678 1.16359965 63.74639609 63.74639609 0 0 1-64.02943413-63.30611481c0-34.90799169 28.68116114-63.33756376 63.9350883-63.33756375s63.9350878 28.42957205 63.93508778 63.33756375c0 3.39645307-0.37738389 6.98159834-1.19504856 11.2586135a19.12077394 19.12077394 0 0 0 19.05787702 22.54867596c9.37169502 0 17.3282013-6.60421444 18.96353068-15.66142347 1.22649703-6.60421444 1.79257264-12.39076469 1.79257264-18.14586599 0.03144847-27.04583178-10.62964101-52.51923106-30.03345249-71.70290239A102.39677631 102.39677631 0 0 0 511.8481033 414.2000714z m247.06052658 47.86483199a17.67413625 17.67413625 0 0 0-13.01973769-14.21478578 87.83605559 87.83605559 0 0 1-56.67045193-44.0909955 96.79891826 96.79891826 0 0 1-7.89360887-73.71561517 18.55469833 18.55469833 0 0 0-5.18902571-18.99497964 247.97253712 247.97253712 0 0 0-81.76646779-49.78319892 16.69922881 16.69922881 0 0 0-18.17731444 4.78019335A85.06857502 85.06857502 0 0 1 511.8481033 295.67014236c-24.62428613 0-47.48744859-10.56674361-64.40681803-29.71896648a16.8250231 16.8250231 0 0 0-18.24021186-4.7487449 247.90964021 247.90964021 0 0 0-81.73501884 49.87754526 18.74339005 18.74339005 0 0 0-5.12612881 18.86918484 96.61022656 96.61022656 0 0 1-7.86215991 73.77851305A87.67881234 87.67881234 0 0 1 277.83876238 447.81866916a17.79993105 17.79993105 0 0 0-13.0197372 14.27768316A281.21375146 281.21375146 0 0 0 260.25897198 511.8481033c0 16.25894752 1.54098354 33.02107322 4.52860426 49.72030201 1.2579455 7.04449573 6.38407429 12.61090534 13.01973769 14.24623425 24.21545379 5.84944714 44.34258413 21.51087061 56.67045192 44.05954656 12.32786731 22.54867595 15.09534787 48.74539409 7.86215991 73.77851257a18.93208224 18.93208224 0 0 0 5.15757727 18.93208222 248.31847256 248.31847256 0 0 0 81.76646777 49.81464788c6.60421444 2.39009668 13.68015912 0.34593493 18.14586602-4.71729597 16.8879205-19.15222239 39.78253141-29.68751754 64.37536909-29.68751755 24.62428613 0 47.48744859 10.53529467 64.40681754 29.65606911a16.73067726 16.73067726 0 0 0 18.24021184 4.81164181 248.34992101 248.34992101 0 0 0 81.73501884-49.84609633 18.86918484 18.86918484 0 0 0 5.15757726-18.93208223 96.39008591 96.39008591 0 0 1 7.89360888-73.74706411 87.61591495 87.61591495 0 0 1 56.67045192-44.09099504 17.79993105 17.79993105 0 0 0 13.01973768-14.21478624A281.55968642 281.55968642 0 0 0 763.43723413 511.87955174c0-16.29039646-1.54098354-33.02107322-4.52860425-49.78319941z m-121.14016686 219.92034945a200.83102396 200.83102396 0 0 1-49.34291814 30.06490095A111.76847134 111.76847134 0 0 0 511.8481033 681.41917724a112.27164953 112.27164953 0 0 0-76.64033949 30.66242548 200.92536982 200.92536982 0 0 1-49.34291811-30.06490094 126.9267166 126.9267166 0 0 0-13.11408356-85.38306151 116.92604859 116.92604859 0 0 0-63.58915283-54.72063603 223.09666188 223.09666188 0 0 1 0-60.16125084 116.92604859 116.92604859 0 0 0 63.58915283-54.72063602c14.15188838-25.88223163 18.77483899-56.04147892 13.11408356-85.35161305a200.98826722 200.98826722 0 0 1 49.34291811-30.06490095 111.95716353 111.95716353 0 0 0 76.60889055 30.69387394c28.3981231 0 55.47540333-10.84978116 76.64033899-30.66242548a200.95681826 200.95681826 0 0 1 49.34291861 30.06490143 127.46134374 127.46134374 0 0 0 13.08263458 85.38306102 116.92604859 116.92604859 0 0 0 63.58915286 54.72063603 223.85142918 223.85142918 0 0 1 0.03144894 60.12980238 116.92604859 116.92604859 0 0 0-63.58915284 54.72063602 127.80727869 127.80727869 0 0 0-13.11408354 85.35161306z" p-id="1494"></path></svg>