<svg xmlns="http://www.w3.org/2000/svg" fill="none" viewBox="0 0 16 16" class="design-iconfont">
  <path d="M11.1341 10.1161C10.9388 10.3114 10.9388 10.6279 11.1341 10.8232L11.4876 11.1768C11.6829 11.372 11.9995 11.372 12.1947 11.1768L15.0179 8.35353C15.2132 8.15827 15.2132 7.84169 15.0179 7.64643L12.1947 4.8232C11.9995 4.62794 11.6829 4.62794 11.4876 4.8232L11.1341 5.17676C10.9388 5.37202 10.9388 5.6886 11.1341 5.88386L12.5002 7.25004L3.50009 7.2501L4.86615 5.88404C5.06141 5.68877 5.06141 5.37219 4.86615 5.17693L4.51259 4.82338C4.31733 4.62811 4.00075 4.62811 3.80549 4.82338L0.982262 7.6466C0.787 7.84186 0.787 8.15844 0.982262 8.35371L3.80549 11.1769C4.00075 11.3722 4.31733 11.3722 4.51259 11.1769L4.86615 10.8234C5.06141 10.6281 5.06141 10.3115 4.86615 10.1163L3.49997 8.7501L12.5001 8.75004L11.1341 10.1161Z" fill="#1D2129"/>
</svg>
