<svg xmlns="http://www.w3.org/2000/svg" fill="none" viewBox="0 0 16 16" class="design-iconfont">
  <path d="M6.70714 10.9998C6.51188 10.8046 6.1953 10.8046 6.00004 10.9998C5.80478 11.1951 5.80478 11.5117 6.00004 11.707L7.64648 13.3534C7.84175 13.5487 8.15833 13.5487 8.35359 13.3534L10 11.707C10.1953 11.5117 10.1953 11.1951 10 10.9998C9.80477 10.8046 9.48819 10.8046 9.29293 10.9998L8.5 11.7928L8.5 4.20714L9.29286 5C9.48812 5.19526 9.8047 5.19526 9.99996 5C10.1952 4.80474 10.1952 4.48816 9.99996 4.29289L8.35352 2.64645C8.15825 2.45118 7.84167 2.45118 7.64641 2.64645L5.99996 4.29289C5.8047 4.48816 5.8047 4.80474 5.99996 5C6.19522 5.19526 6.51181 5.19526 6.70707 5L7.5 4.20707L7.5 11.7927L6.70714 10.9998Z" fill="#BDBDBD"/>
</svg>
