<svg xmlns="http://www.w3.org/2000/svg" fill="none" viewBox="0 0 16 16" class="design-iconfont">
  <path d="M10.9999 9.29286C10.8047 9.48812 10.8047 9.8047 10.9999 9.99996C11.1952 10.1952 11.5118 10.1952 11.707 9.99996L13.3535 8.35352C13.5487 8.15825 13.5487 7.84167 13.3535 7.64641L11.707 5.99996C11.5118 5.8047 11.1952 5.8047 10.9999 5.99996C10.8047 6.19522 10.8047 6.51181 10.9999 6.70707L11.7929 7.5L4.20722 7.5L5.00008 6.70714C5.19534 6.51188 5.19534 6.1953 5.00008 6.00004C4.80481 5.80478 4.48823 5.80478 4.29297 6.00004L2.64652 7.64648C2.45126 7.84175 2.45126 8.15833 2.64652 8.35359L4.29297 10C4.48823 10.1953 4.80481 10.1953 5.00008 10C5.19534 9.80478 5.19534 9.48819 5.00008 9.29293L4.20715 8.5L11.7928 8.5L10.9999 9.29286Z" fill="#BDBDBD"/>
</svg>
