<svg xmlns="http://www.w3.org/2000/svg" fill="none" viewBox="0 0 16 16" class="design-iconfont">
  <path fill-rule="evenodd" clip-rule="evenodd" d="M2.46967 3.46967C2.76256 3.17678 3.23744 3.17678 3.53033 3.46967L6.96903 6.90837C7.2376 6.65518 7.59958 6.5 7.9978 6.5C8.82623 6.5 9.4978 7.17157 9.4978 8C9.4978 8.39823 9.34262 8.76021 9.08943 9.02877L12.5303 12.4697C12.8232 12.7626 12.8232 13.2374 12.5303 13.5303C12.2374 13.8232 11.7626 13.8232 11.4697 13.5303L10.0519 12.1125C9.43516 12.3532 8.75047 12.5 7.9978 12.5C5.04352 12.5 3.1366 10.2378 2.27695 8.92128C1.90768 8.35573 1.90768 7.64427 2.27695 7.07872C2.56527 6.63718 2.97139 6.08925 3.49532 5.55598L2.46967 4.53033C2.17678 4.23744 2.17678 3.76256 2.46967 3.46967ZM4.55599 6.61665L8.85033 10.911C8.57812 10.9687 8.29397 11 7.9978 11C6.49643 11 5.30371 10.1951 4.41092 9.23089C4.1019 8.89712 3.84503 8.56064 3.64209 8.2644C3.53281 8.10485 3.53281 7.89515 3.64209 7.7356C3.84503 7.43936 4.1019 7.10288 4.41092 6.76911C4.45843 6.71781 4.50678 6.66695 4.55599 6.61665Z" fill="#1D2129"/>
  <path d="M11.5884 9.52772C11.5071 9.44648 11.5066 9.31519 11.5847 9.23089C11.8937 8.89712 12.1505 8.56064 12.3535 8.2644C12.4628 8.10485 12.4628 7.89515 12.3535 7.7356C12.1505 7.43936 11.8937 7.10288 11.5847 6.76911C10.6919 5.80492 9.49915 5 7.9978 5C7.79833 5 7.6043 5.01421 7.4157 5.04111C7.24835 5.06498 7.07682 5.01616 6.95728 4.89662L6.4884 4.42774C6.2332 4.17254 6.32603 3.74137 6.67683 3.65655C7.09105 3.55639 7.53137 3.5 7.9978 3.5C10.9521 3.5 12.859 5.76221 13.7186 7.07872C14.0879 7.64427 14.0879 8.35573 13.7186 8.92128C13.4972 9.2604 13.2063 9.66227 12.8459 10.0721C12.6623 10.2808 12.3422 10.2815 12.1456 10.085L11.5884 9.52772Z" fill="#1D2129"/>
</svg>
