<svg xmlns="http://www.w3.org/2000/svg" fill="none" viewBox="0 0 16 16" class="design-iconfont">
  <path d="M7.9978 9.5C8.82623 9.5 9.4978 8.82843 9.4978 8C9.4978 7.17157 8.82623 6.5 7.9978 6.5C7.16937 6.5 6.4978 7.17157 6.4978 8C6.4978 8.82843 7.16937 9.5 7.9978 9.5Z" fill="#1D2129"/>
  <path fill-rule="evenodd" clip-rule="evenodd" d="M2.27695 8.92128C1.90768 8.35573 1.90768 7.64427 2.27695 7.07872C3.1366 5.76221 5.04352 3.5 7.9978 3.5C10.9521 3.5 12.859 5.76221 13.7186 7.07872C14.0879 7.64427 14.0879 8.35573 13.7186 8.92128C12.859 10.2378 10.9521 12.5 7.9978 12.5C5.04352 12.5 3.1366 10.2378 2.27695 8.92128ZM3.64209 8.2644C3.53281 8.10485 3.53281 7.89515 3.64209 7.7356C3.84503 7.43936 4.1019 7.10288 4.41092 6.76911C5.30371 5.80492 6.49643 5 7.9978 5C9.49915 5 10.6919 5.80492 11.5847 6.76911C11.8937 7.10288 12.1505 7.43936 12.3535 7.7356C12.4628 7.89515 12.4628 8.10485 12.3535 8.2644C12.1505 8.56064 11.8937 8.89712 11.5847 9.23089C10.6919 10.1951 9.49915 11 7.9978 11C6.49643 11 5.30371 10.1951 4.41092 9.23089C4.1019 8.89712 3.84503 8.56064 3.64209 8.2644Z" fill="#1D2129"/>
</svg>
