<svg xmlns="http://www.w3.org/2000/svg" fill="none" viewBox="0 0 16 16" class="design-iconfont">
  <path d="M1.5 15C1.77614 15 2 14.7761 2 14.5L2 1.5C2 1.22386 1.77614 1 1.5 1C1.22386 1 1 1.22386 1 1.5V14.5C1 14.7761 1.22386 15 1.5 15Z" fill="#BDBDBD"/>
  <path d="M15 14.5C15 14.7761 14.7761 15 14.5 15C14.2239 15 14 14.7761 14 14.5L14 1.5C14 1.22386 14.2239 1 14.5 1C14.7761 1 15 1.22386 15 1.5L15 14.5Z" fill="#BDBDBD"/>
  <path fill-rule="evenodd" clip-rule="evenodd" d="M9.63574 9.7793H6.35938L5.67119 11.6881C5.64259 11.7675 5.56734 11.8203 5.48304 11.8203H4.85052C4.71037 11.8203 4.61368 11.6799 4.66368 11.549L7.42357 4.32163C7.49753 4.12795 7.68335 4 7.89067 4H8.10467C8.31189 4 8.49763 4.12781 8.57167 4.32135L11.3366 11.5489C11.3867 11.6798 11.29 11.8203 11.1498 11.8203H10.5221C10.4382 11.8203 10.3631 11.7679 10.3343 11.689L9.63574 9.7793ZM6.6709 8.93066H9.32959L7.99756 5.27295L6.6709 8.93066Z" fill="#BDBDBD"/>
</svg>
