<svg xmlns="http://www.w3.org/2000/svg" fill="none" viewBox="0 0 16 16" class="design-iconfont">
  <path fill-rule="evenodd" clip-rule="evenodd" d="M8 11.9998C9.65685 11.9998 11 10.6566 11 8.99977C11 7.62847 10.2064 6.36566 9.2718 5.37264C8.817 4.88941 8.35915 4.50277 8.01449 4.23709C8.00964 4.23335 8.00481 4.22963 8 4.22594C7.99519 4.22963 7.99036 4.23335 7.98551 4.23709C7.64085 4.50277 7.183 4.88941 6.7282 5.37264C5.79359 6.36566 5 7.62847 5 8.99977C5 10.6566 6.34315 11.9998 8 11.9998ZM8 12.9998C10.2091 12.9998 12 11.2089 12 8.99977C12 6.04238 9.14412 3.79897 8.25861 3.17444C8.10236 3.06425 7.89764 3.06425 7.74139 3.17444C6.85588 3.79897 4 6.04238 4 8.99977C4 11.2089 5.79086 12.9998 8 12.9998Z" fill="#BDBDBD"/>
</svg>
