<svg xmlns="http://www.w3.org/2000/svg" fill="none" viewBox="0 0 16 16" class="design-iconfont">
  <path d="M15 0.500001C15 0.223859 14.7761 0 14.5 0H1.5C1.22386 0 1 0.223858 1 0.5C1 0.776142 1.22386 1 1.5 1L14.5 1C14.7761 1 15 0.776143 15 0.500001Z" fill="#BDBDBD"/>
  <path d="M15 15.5C15 15.2239 14.7761 15 14.5 15L1.5 15C1.22386 15 1 15.2239 1 15.5C1 15.7761 1.22386 16 1.5 16H14.5C14.7761 16 15 15.7761 15 15.5Z" fill="#BDBDBD"/>
  <path d="M14.5 12C14.7761 12 15 12.2239 15 12.5C15 12.7761 14.7761 13 14.5 13L1.5 13C1.22386 13 1 12.7761 1 12.5C1 12.2239 1.22386 12 1.5 12L14.5 12Z" fill="#BDBDBD"/>
  <path d="M6.14652 8.49985C6.34178 8.30459 6.65837 8.30459 6.85363 8.49985L7.64648 9.2927L7.64648 3.70707L6.85355 4.5C6.65829 4.69526 6.34171 4.69526 6.14645 4.5C5.95118 4.30474 5.95118 3.98816 6.14645 3.79289L7.79289 2.14645C7.98816 1.95118 8.30474 1.95118 8.5 2.14645L10.1464 3.79289C10.3417 3.98816 10.3417 4.30474 10.1464 4.5C9.95118 4.69526 9.6346 4.69526 9.43934 4.5L8.64648 3.70714L8.64648 9.29278L9.43941 8.49985C9.63468 8.30459 9.95126 8.30459 10.1465 8.49985C10.3418 8.69511 10.3418 9.01169 10.1465 9.20696L8.50007 10.8534C8.30481 11.0487 7.98823 11.0487 7.79297 10.8534L6.14652 9.20695C5.95126 9.01169 5.95126 8.69511 6.14652 8.49985Z" fill="#BDBDBD"/>
</svg>
