<svg xmlns="http://www.w3.org/2000/svg" fill="none" viewBox="0 0 16 16" class="design-iconfont">
  <path fill-rule="evenodd" clip-rule="evenodd" d="M2 2.75C2 2.33579 2.33579 2 2.75 2H5.5C5.77614 2 6 2.22386 6 2.5V3C6 3.27614 5.77614 3.5 5.5 3.5H3.5V5.5C3.5 5.77614 3.27614 6 3 6H2.5C2.22386 6 2 5.77614 2 5.5V2.75ZM10 2.5C10 2.22386 10.2239 2 10.5 2H13.25C13.6642 2 14 2.33579 14 2.75V5.5C14 5.77614 13.7761 6 13.5 6H13C12.7239 6 12.5 5.77614 12.5 5.5V3.5H10.5C10.2239 3.5 10 3.27614 10 3V2.5ZM3 10C3.27614 10 3.5 10.2239 3.5 10.5V12.5H5.5C5.77614 12.5 6 12.7239 6 13V13.5C6 13.7761 5.77614 14 5.5 14H2.75C2.33579 14 2 13.6642 2 13.25V10.5C2 10.2239 2.22386 10 2.5 10H3ZM13.5 10C13.7761 10 14 10.2239 14 10.5V13.25C14 13.6642 13.6642 14 13.25 14H10.5C10.2239 14 10 13.7761 10 13.5V13C10 12.7239 10.2239 12.5 10.5 12.5H12.5V10.5C12.5 10.2239 12.7239 10 13 10H13.5Z" fill="#1D2129"/>
</svg>
