<svg xmlns="http://www.w3.org/2000/svg" fill="none" viewBox="0 0 16 16" class="design-iconfont">
  <path d="M2 2.5C2 2.22386 2.22386 2 2.5 2H13.5C13.7761 2 14 2.22386 14 2.5C14 2.77614 13.7761 3 13.5 3H2.5C2.22386 3 2 2.77614 2 2.5Z" fill="#BDBDBD"/>
  <path d="M2 6.5C2 6.22386 2.22386 6 2.5 6H13.5C13.7761 6 14 6.22386 14 6.5V7.5C14 7.77614 13.7761 8 13.5 8H2.5C2.22386 8 2 7.77614 2 7.5V6.5Z" fill="#BDBDBD"/>
  <path d="M2.5 11C2.22386 11 2 11.2239 2 11.5V13.5C2 13.7761 2.22386 14 2.5 14H13.5C13.7761 14 14 13.7761 14 13.5V11.5C14 11.2239 13.7761 11 13.5 11H2.5Z" fill="#BDBDBD"/>
</svg>
