<svg xmlns="http://www.w3.org/2000/svg" fill="none" viewBox="0 0 16 16" class="design-iconfont">
  <path d="M4.5 6C5.5 6 6 5.5 6 4.5C6 3.5 5.5 3 4.5 3C3.5 3 3 3.5 3 4.5C3 5.5 3.5 6 4.5 6Z" fill="#1D2129"/>
  <path d="M4.5 13C5.5 13 6 12.5 6 11.5C6 10.5 5.5 10 4.5 10C3.5 10 3 10.5 3 11.5C3 12.5 3.5 13 4.5 13Z" fill="#1D2129"/>
  <path d="M13 11.5C13 12.5 12.5 13 11.5 13C10.5 13 10 12.5 10 11.5C10 10.5 10.5 10 11.5 10C12.5 10 13 10.5 13 11.5Z" fill="#1D2129"/>
  <path d="M11.5 6C12.5 6 13 5.5 13 4.5C13 3.5 12.5 3 11.5 3C10.5 3 10 3.5 10 4.5C10 5.5 10.5 6 11.5 6Z" fill="#1D2129"/>
</svg>
