<?xml version="1.0" standalone="no"?><!DOCTYPE svg PUBLIC "-//W3C//DTD SVG 1.1//EN" "http://www.w3.org/Graphics/SVG/1.1/DTD/svg11.dtd"><svg t="1699865721395" class="icon" viewBox="0 0 1066 1024" version="1.1" xmlns="http://www.w3.org/2000/svg" p-id="907" xmlns:xlink="http://www.w3.org/1999/xlink" width="16.65625" height="16"><path d="M780.52376322 243.47623678H265.85321721C252.42702906 243.47623678 243.47623678 252.42702906 243.47623678 265.85321721v425.16262477c0 13.42618817 8.95079228 22.37698043 22.37698043 22.37698044s22.37698043-8.95079228 22.37697993-22.37698044V288.23019714h469.91658565v380.40866492h-89.50792073c-13.42618817 0-22.37698043 8.95079228-22.37698044 22.37697992s8.95079228 22.37698043 22.37698044 22.37698044h111.88490117c13.42618817 0 22.37698043-8.95079228 22.37698044-22.37698044V265.85321721c0-13.42618817-8.95079228-22.37698043-22.37698044-22.37698043z" fill="#637299" p-id="908"></path><path d="M489.62301957 646.26188162H444.86905919v-44.75396037c0-13.42618817-8.95079228-22.37698043-22.37698044-22.37698044s-22.37698043 8.95079228-22.37697992 22.37698044v44.75396037H355.36113794c-13.42618817 0-22.37698043 8.95079228-22.37697992 22.37698044s8.95079228 22.37698043 22.37697992 22.37697992h44.75396089v44.75396088c0 13.42618817 8.95079228 22.37698043 22.37697992 22.37697993s22.37698043-8.95079228 22.37698045-22.37697993v-44.75396088h44.75396037c13.42618817 0 22.37698043-8.95079228 22.37698043-22.37697992s-8.95079228-22.37698043-22.37698043-22.37698044z" fill="#637299" p-id="909"></path></svg>