<?xml version="1.0" standalone="no"?><!DOCTYPE svg PUBLIC "-//W3C//DTD SVG 1.1//EN" "http://www.w3.org/Graphics/SVG/1.1/DTD/svg11.dtd"><svg t="1699865639178" class="icon" viewBox="0 0 1024 1024" version="1.1" xmlns="http://www.w3.org/2000/svg" p-id="907" xmlns:xlink="http://www.w3.org/1999/xlink" width="16" height="16"><path d="M575.08995653 585.40126903a103.39318522 103.39318522 0 0 1-55.68108755-10.13309209 36.63698424 36.63698424 0 0 1-13.64657635-25.71463159 5.65212685 5.65212685 0 0 0-5.75396718-5.6012064 1192.19140596 1192.19140596 0 0 0-24.18702914 0 5.37206672 5.37206672 0 0 0-5.88126713 4.73556575 59.55101205 59.55101205 0 0 0 19.17140325 46.94829676 101.61098346 101.61098346 0 0 0 56.72494861 21.36096571 205.25876917 205.25876917 0 0 0 64.49025843-2.74968333 79.58805655 79.58805655 0 0 0 42.72193143-23.01586753 59.5255524 59.5255524 0 0 0 10.08217222-56.8013293 47.58479772 47.58479772 0 0 0-31.31583797-27.87873381c-32.58883934-11.45701389-67.82552228-10.56591302-101.07632223-19.273243-5.77942681-1.78220236-12.83185556-3.76808477-15.40331907-9.87849217a21.7683264 21.7683264 0 0 1 7.23064917-24.3143297 65.12675881 65.12675881 0 0 1 34.37104168-8.55457037 103.62232551 103.62232551 0 0 1 47.94123796 6.87420834 36.56060416 36.56060416 0 0 1 17.49104122 25.25635103 6.1867875 6.1867875 0 0 0 5.80488704 6.0085671c7.9944495 0.15276019 15.98889959 0.02546022 24.00880932 0.05091986a5.80488704 5.80488704 0 0 0 6.28862724-4.2772852 61.96971536 61.96971536 0 0 0-30.22105646-53.61882502 149.70498159 149.70498159 0 0 0-81.9303792-12.55179483 89.23740844 89.23740844 0 0 0-55.40102739 22.2775268 55.37556717 55.37556717 0 0 0-11.04965321 57.59058988 49.1378598 49.1378598 0 0 0 31.01031761 27.03855278c32.51245925 11.73707404 68.13104265 7.96898986 100.92356204 18.35668247 6.41592779 2.16410282 13.850257 5.49936668 15.81067918 12.60271529a25.20543057 25.20543057 0 0 1-6.87420835 24.08518882 75.61629172 75.61629172 0 0 1-45.64983517 11.17695375z m148.15191951-215.00996081q-95.16959544-53.8225051-190.41557097-107.56863067a42.6964718 42.6964718 0 0 0-41.67807036 0L301.44554478 369.95848789a39.25936763 39.25936763 0 0 0-20.49532505 34.16736106v215.77376174a39.53942776 39.53942776 0 0 0 21.28458562 34.49834224c18.15300182 9.87849218 35.79680323 20.7753852 54.30624588 30.01737641a78.00953483 78.00953483 0 0 0 69.70956495 1.90950232 54.15348569 54.15348569 0 0 0 25.33273054-48.90871952c0.12729996-71.21170657 0-142.42341256 0.05091986-213.60965892a5.601207 5.601207 0 0 0-5.2702264-6.49230789 1057.99158316 1057.99158316 0 0 0-24.26340924 0 5.34660649 5.34660649 0 0 0-5.80488703 5.42298659c-0.10184032 70.75342602 0.02546022 141.50685145-0.05091986 212.28573711a23.93242923 23.93242923 0 0 1-15.53061904 22.48120747 39.00476711 39.00476711 0 0 1-31.57043849-4.22636533l-50.46178102-28.5152342a6.03402731 6.03402731 0 0 1-3.43710417-5.98310745V405.24609071a6.59414819 6.59414819 0 0 1 3.99722504-6.61960843q94.53309447-53.26238482 189.04072931-106.60114912a6.56868797 6.56868797 0 0 1 7.43432864 1e-8l189.06618952 106.57568947a6.67052829 6.67052829 0 0 1 3.97176483 6.61960784v213.55873904a6.16132729 6.16132729 0 0 1-3.41164394 6.05948755q-93.08187272 52.65134406-186.29104597 105.14992736c-2.95336339 1.62944217-6.46684765 4.30274541-9.92941205 2.29140277-16.29441996-9.21653098-32.33423942-18.7895028-48.57773893-28.08241386a5.24476616 5.24476616 0 0 0-5.85580749-0.35644083 132.85044133 132.85044133 0 0 1-22.45574725 10.48953293c-3.51348426 1.42576153-7.84168931 1.83312222-10.26039206 5.09200597a33.50540045 33.50540045 0 0 0 10.99873335 7.89260977l56.92862867 32.91981994a41.49985054 41.49985054 0 0 0 42.1363515 1.17116161q94.86407507-53.46606486 189.72815015-107.03397002a39.61580786 39.61580786 0 0 0 21.28458562-34.47288202V404.12584895a39.20844775 39.20844775 0 0 0-19.80790423-33.73454073z" p-id="908"></path></svg>