<?xml version="1.0" standalone="no"?><!DOCTYPE svg PUBLIC "-//W3C//DTD SVG 1.1//EN" "http://www.w3.org/Graphics/SVG/1.1/DTD/svg11.dtd"><svg t="1702743263276" class="icon" viewBox="0 0 1024 1024" version="1.1" xmlns="http://www.w3.org/2000/svg" p-id="899" xmlns:xlink="http://www.w3.org/1999/xlink" width="16" height="16"><path d="M502.68799369 667.85994406a15.27601854 15.27601854 0 0 1-3.95266978-0.52193062L445.8039197 653.16314124a15.27601854 15.27601854 0 0 1-11.19604858-12.80003053l-0.35644044-2.74331833a55.4774073 55.4774073 0 0 0-47.89031809-47.89031809l-2.74331832-0.35644044A15.27601854 15.27601854 0 0 1 370.83685876 578.1960803l-14.1748722-52.91230918a15.27601854 15.27601854 0 0 1 5.48663666-16.09710454l2.20229267-1.68036203a55.4774073 55.4774073 0 0 0 17.52923127-65.41318435l-1.06295628-2.54600309a15.27601854 15.27601854 0 0 1 3.297074-16.68268523l38.73107197-38.73107199a15.27601854 15.27601854 0 0 1 16.68268523-3.29707399l2.54600309 1.06295628A55.4774073 55.4774073 0 0 0 507.49357453 364.33182088l1.68036204-2.19592766a15.27601854 15.27601854 0 0 1 16.09710453-5.48663666L578.1960803 370.83685876a15.27601854 15.27601854 0 0 1 11.19604858 12.80003053l0.35644044 2.74331833a55.4774073 55.4774073 0 0 0 47.89031809 47.89031809l2.74331832 0.35644044A15.27601854 15.27601854 0 0 1 653.16314124 445.8039197l14.1748722 52.91230918a15.27601854 15.27601854 0 0 1-5.48663666 16.09710454l-2.18319766 1.69309205a55.4774073 55.4774073 0 0 0-17.52923126 65.41954935l1.06295629 2.5460031a15.27601854 15.27601854 0 0 1-3.297074 16.68268523l-38.73107198 38.73107198a15.27601854 15.27601854 0 0 1-16.68268524 3.297074l-2.54600309-1.06295629A55.4774073 55.4774073 0 0 0 516.50642547 659.66817912l-1.68036204 2.20229268a15.27601854 15.27601854 0 0 1-12.13806974 5.98947226z m-39.41849279-41.65261053l33.84274603 9.070136A86.07399941 86.07399941 0 0 1 586.54060542 611.29412045L611.29412045 586.54060542a86.08036441 86.08036441 0 0 1 23.97698408-89.43472349l-9.07013601-33.84274605a86.08036441 86.08036441 0 0 1-65.4641044-65.47046942l-33.84274605-9.06377099A86.08036441 86.08036441 0 0 1 437.45939458 412.70587955L412.70587955 437.45939458a86.08036441 86.08036441 0 0 1-23.97698408 89.43472349l9.07013601 33.83638103a86.08036441 86.08036441 0 0 1 65.4641044 65.47683443z" fill="" p-id="900"></path><path d="M512 832.79638914A320.87913423 320.87913423 0 0 1 387.12491352 216.42177145a321.36287483 321.36287483 0 0 1 295.97285902 24.18702935 15.27601854 15.27601854 0 0 1-3.26524895 27.3695332l-101.84012354 34.44105678a15.27601854 15.27601854 0 0 1-9.78938188-28.94169011l69.0794288-23.35957834A290.57533248 290.57533248 0 1 0 802.24435208 512c0-63.3891119-20.06250434-123.60844994-58.0234104-174.14024623a15.27601854 15.27601854 0 1 1 24.42889965-18.35031727A320.69454901 320.69454901 0 0 1 512 832.79638914z" fill="" p-id="901"></path><path d="M512 568.01206795a56.01206795 56.01206795 0 1 1 56.01206795-56.01206795 56.07571802 56.07571802 0 0 1-56.01206795 56.01206795z m0-81.47209884a25.46003089 25.46003089 0 1 0 25.46003089 25.46003089 25.46003089 25.46003089 0 0 0-25.46003089-25.46003089z" fill="" p-id="902"></path></svg>