<?xml version="1.0" standalone="no"?><!DOCTYPE svg PUBLIC "-//W3C//DTD SVG 1.1//EN" "http://www.w3.org/Graphics/SVG/1.1/DTD/svg11.dtd"><svg t="1700291869424" class="icon" viewBox="0 0 1024 1024" version="1.1" xmlns="http://www.w3.org/2000/svg" p-id="968" xmlns:xlink="http://www.w3.org/1999/xlink" width="16" height="16"><path d="M554.84124309 632.67955756l0-241.35911512a42.666667 42.666667 0 0 0-42.84124309-42.84124308 42.666667 42.666667 0 0 0-42.84124309 42.84124308l0 241.35911512a42.666667 42.666667 0 0 0 85.68248618 0z" fill="" p-id="969"></path><path d="M340.63502837 357.53016686L340.9367275 280.59694836a179.2 179.2 0 0 1 156.2800272-180.41593772 170.666667 170.666667 0 0 1 187.05331361 170.76157337l0.30169843 85.98418459a42.666667 42.666667 0 0 0 42.84124308 42.84124309 42.666667 42.666667 0 0 0 42.84124309-42.84124309l-0.30169913-76.93321708a262.4 262.4 0 0 0-223.25718081-263.68483299 258.56 258.56 0 0 0-291.74283007 255.53896287l0 85.68248476a42.666667 42.666667 0 0 0 85.68248547 7e-7zM545.79027558 1007.9929806a263.68 263.68 0 0 0 224.76567575-265.79672477L769.95255378 676.42589732a46.506667 46.506667 0 0 0-43.44464064-53.70240395 42.666667 42.666667 0 0 0-42.84124308 42.84124309L683.96836918 744.30814832a177.92 177.92 0 0 1-155.97832807 180.11423859 170.666667 170.666667 0 0 1-187.65671117-171.36497092l-0.30169912-85.9841853a42.666667 42.666667 0 0 0-42.84124238-42.84124238 42.666667 42.666667 0 0 0-42.84124309 42.84124309l-7e-7 85.68248546a258.56 258.56 0 0 0 291.44113093 255.23726374z" fill="" p-id="970"></path></svg>