<?xml version="1.0" standalone="no"?><!DOCTYPE svg PUBLIC "-//W3C//DTD SVG 1.1//EN" "http://www.w3.org/Graphics/SVG/1.1/DTD/svg11.dtd"><svg class="icon" width="16px" height="16.00px" viewBox="0 0 1024 1024" version="1.1" xmlns="http://www.w3.org/2000/svg"><path d="M116.48 116.41999999h551.03999999v791.10000001H116.48V116.41999999z m506.04 45.06000002H161.48000001v701.15999999h461.03999999V161.48000001z" fill="#BFBFBF" /><path d="M703.28000001 290.77999999c20.64 0 37.50000001 16.8 37.5 37.50000001V480.8h106.73999999V394.21999999a37.50000001 37.50000001 0 0 1 75 2e-8v241.79999998a37.50000001 37.50000001 0 0 1-75 2e-8V555.74000001h-106.74000001v146.27999998a37.56 37.56 0 0 1-74.99999998 3e-8V328.28c0-20.70000001 16.74000001-37.50000001 37.5-37.50000001z" fill="#008EF0" /></svg>