<?xml version="1.0" standalone="no"?><!DOCTYPE svg PUBLIC "-//W3C//DTD SVG 1.1//EN" "http://www.w3.org/Graphics/SVG/1.1/DTD/svg11.dtd"><svg t="1700901491247" class="icon" viewBox="0 0 1024 1024" version="1.1" xmlns="http://www.w3.org/2000/svg" p-id="863" xmlns:xlink="http://www.w3.org/1999/xlink" width="16" height="16"><path d="M259.21005103 680.35181249c-8.70604389 0-15.73381426-7.02777037-15.73381425-15.73381425V359.38200176c0-8.70604389 7.02777037-15.73381426 15.73381425-15.73381425s15.73381426 7.02777037 15.73381425 15.73381425v305.23599648c0 8.70604389-7.02777037 15.73381426-15.73381425 15.73381425zM764.78994897 688.7431801c-8.70604389 0-15.73381426-7.02777037-15.73381425-15.73381426V367.77336936c0-8.70604389 7.02777037-15.73381426 15.73381425-15.73381425s15.73381426 7.02777037 15.73381425 15.73381425v305.23599648c0 8.70604389-7.02777037 15.73381426-15.73381425 15.73381426zM680.35181249 259.21005103c0 8.70604389-7.02777037 15.73381426-15.73381425 15.73381425H359.38200176c-8.70604389 0-15.73381426-7.02777037-15.73381425-15.73381425s7.02777037-15.73381426 15.73381425-15.73381425h305.23599648c8.70604389 0 15.73381426 7.02777037 15.73381425 15.73381425zM680.35181249 764.78994897c0 8.70604389-7.02777037 15.73381426-15.73381425 15.73381425H359.38200176c-8.70604389 0-15.73381426-7.02777037-15.73381425-15.73381425s7.02777037-15.73381426 15.73381425-15.73381425h305.23599648c8.70604389 0 15.73381426 7.02777037 15.73381425 15.73381425zM654.12878874 344.17264799H369.87121126c-14.47510912 0-26.22302376 11.74791464-26.22302375 26.22302374v283.20865654c0 14.47510912 11.74791464 26.22302376 26.22302375 26.22302374h284.25757748c14.47510912 0 26.22302376-11.74791464 26.22302375-26.22302374V370.39567173c0-14.47510912-11.74791464-26.22302376-26.22302375-26.22302374z m-15.73381425 293.69786603H385.60502551V386.12948598h252.78994898v251.74102804z" p-id="864"></path></svg>