<?xml version="1.0" standalone="no"?><!DOCTYPE svg PUBLIC "-//W3C//DTD SVG 1.1//EN" "http://www.w3.org/Graphics/SVG/1.1/DTD/svg11.dtd"><svg t="1699425000814" class="icon" viewBox="0 0 1024 1024" version="1.1" xmlns="http://www.w3.org/2000/svg" p-id="816" xmlns:xlink="http://www.w3.org/1999/xlink" width="200" height="200"><path d="M406.53125 485.6328125H248.328125c-43.50585938 0-79.1015625-35.59570313-79.1015625-79.1015625V248.328125c0-43.50585938 35.59570313-79.1015625 79.1015625-79.1015625h158.203125c43.50585938 0 79.1015625 35.59570313 79.1015625 79.1015625v158.203125c0 43.50585938-35.59570313 79.1015625-79.1015625 79.1015625zM248.328125 221.9609375c-14.50195313 0-26.3671875 11.86523438-26.3671875 26.3671875v158.203125c0 14.50195313 11.86523438 26.3671875 26.3671875 26.3671875h158.203125c14.50195313 0 26.3671875-11.86523438 26.3671875-26.3671875V248.328125c0-14.50195313-11.86523438-26.3671875-26.3671875-26.3671875H248.328125zM775.671875 485.6328125H617.46875c-43.50585938 0-79.1015625-35.59570313-79.1015625-79.1015625V248.328125c0-43.50585938 35.59570313-79.1015625 79.1015625-79.1015625h158.203125c43.50585938 0 79.1015625 35.59570313 79.1015625 79.1015625v158.203125c0 43.50585938-35.59570313 79.1015625-79.1015625 79.1015625zM617.46875 221.9609375c-14.50195313 0-26.3671875 11.86523438-26.3671875 26.3671875v158.203125c0 14.50195313 11.86523438 26.3671875 26.3671875 26.3671875h158.203125c14.50195313 0 26.3671875-11.86523438 26.3671875-26.3671875V248.328125c0-14.50195313-11.86523438-26.3671875-26.3671875-26.3671875H617.46875zM406.53125 854.7734375H248.328125c-43.50585938 0-79.1015625-35.59570313-79.1015625-79.1015625V617.46875c0-43.50585938 35.59570313-79.1015625 79.1015625-79.1015625h158.203125c43.50585938 0 79.1015625 35.59570313 79.1015625 79.1015625v158.203125c0 43.50585938-35.59570313 79.1015625-79.1015625 79.1015625zM248.328125 591.1015625c-14.50195313 0-26.3671875 11.86523438-26.3671875 26.3671875v158.203125c0 14.50195313 11.86523438 26.3671875 26.3671875 26.3671875h158.203125c14.50195313 0 26.3671875-11.86523438 26.3671875-26.3671875V617.46875c0-14.50195313-11.86523438-26.3671875-26.3671875-26.3671875H248.328125zM775.671875 854.7734375H617.46875c-43.50585938 0-79.1015625-35.59570313-79.1015625-79.1015625V617.46875c0-43.50585938 35.59570313-79.1015625 79.1015625-79.1015625h158.203125c43.50585938 0 79.1015625 35.59570313 79.1015625 79.1015625v158.203125c0 43.50585938-35.59570313 79.1015625-79.1015625 79.1015625zM617.46875 591.1015625c-14.50195313 0-26.3671875 11.86523438-26.3671875 26.3671875v158.203125c0 14.50195313 11.86523438 26.3671875 26.3671875 26.3671875h158.203125c14.50195313 0 26.3671875-11.86523438 26.3671875-26.3671875V617.46875c0-14.50195313-11.86523438-26.3671875-26.3671875-26.3671875H617.46875z" p-id="817"></path></svg>