<?xml version="1.0" standalone="no"?><!DOCTYPE svg PUBLIC "-//W3C//DTD SVG 1.1//EN" "http://www.w3.org/Graphics/SVG/1.1/DTD/svg11.dtd"><svg t="1699352910234" class="icon" viewBox="0 0 1024 1024" version="1.1" xmlns="http://www.w3.org/2000/svg" p-id="1575" xmlns:xlink="http://www.w3.org/1999/xlink" width="200" height="200"><path d="M835.4375 161.31640625c15.55664063 0 28.125 12.56835938 28.125 28.125v471.09375c0 15.55664063-12.56835938 28.125-28.125 28.125H687.78125001v147.65625c0 15.55664063-12.56835938 28.125-28.12500002 28.125H188.5625c-15.55664063 0-28.125-12.56835938-28.125-28.125V365.22265625c0-15.55664063 12.56835938-28.125 28.125-28.125h147.65625001V189.44140625c0-15.55664063 12.56835938-28.125 28.12499998-28.125h471.09375001zM336.21874999 400.37890625H223.71874999v400.78125001h400.78125002V688.66015625H364.34374999c-15.55664063 0-28.125-12.56835938-28.12499998-28.125V400.37890625z m464.06250002-175.78125H399.49999999v400.78125h400.78125002V224.59765625z" p-id="1576"></path></svg>