<?xml version="1.0" standalone="no"?><!DOCTYPE svg PUBLIC "-//W3C//DTD SVG 1.1//EN" "http://www.w3.org/Graphics/SVG/1.1/DTD/svg11.dtd"><svg t="1700758625969" class="icon" viewBox="0 0 1024 1024" version="1.1" xmlns="http://www.w3.org/2000/svg" p-id="11698" xmlns:xlink="http://www.w3.org/1999/xlink" width="200" height="200"><path d="M524.8 817.664c13.5168-1.3312 26.88-3.4816 40.0384-6.4512a19.2 19.2 0 0 1 8.448 37.4528c-15.9232 3.584-32.1024 6.1184-48.4864 7.552v76.0064a19.2 19.2 0 1 1-38.4 0v-74.6752l-1.6128-0.0256a19.2 19.2 0 1 1 1.6128-38.4V166.4768c-21.1712 0.4096-41.984 2.816-62.336 7.168a19.2 19.2 0 1 1-8.0384-37.5296A365.824 365.824 0 0 1 486.4 128.0512V96a19.2 19.2 0 1 1 38.4 0v721.664z m132.8128-43.1104a327.168 327.168 0 0 0 38.016-26.0608 19.1744 19.1744 0 0 1 17.1008-3.456 17.2544 17.2544 0 0 1-0.1536-12.1344c1.792-4.9152 12.6464-33.8688 15.9232-43.008 14.3872-40.2688 22.1952-72.1408 23.2192-102.7328a155.2896 155.2896 0 0 0-4.2752-43.4944 556.2368 556.2368 0 0 0-24.3712-74.9568c-0.1024-0.256-13.4144-32.4608-16.6912-41.3184-10.5472-28.4416-15.1808-53.4528-15.1808-89.1392 0-41.3184 5.8624-68.736 17.8176-89.9072-3.3024-2.944-6.656-5.7856-10.0864-8.576a19.2 19.2 0 1 1 24.2688-29.7472c20.992 17.1264 40.0384 36.5312 56.7552 57.856a19.2 19.2 0 0 1-30.208 23.7056c-3.1488-4.0192-6.4-7.9616-9.728-11.8272-4.608 14.0032-7.04 32.4352-7.04 58.496 0 31.5136 3.8912 52.4544 13.0048 77.056 2.9952 8.1152 16.0256 39.6288 16.3584 40.448a591.2576 591.2576 0 0 1 25.8304 79.4112c4.2496 16.7936 5.9136 34.5088 5.2992 53.1456a271.7184 271.7184 0 0 1-5.2224 44.0576 19.2 19.2 0 0 1 32.7424 19.7632 365.0304 365.0304 0 0 1-43.3408 68.5056 19.2 19.2 0 0 1-18.944 6.8096l-6.4 17.2288c-3.584 9.9584-15.36 15.3856-26.368 12.1344a22.784 22.784 0 0 1-0.4352-0.128 19.2 19.2 0 0 1-5.9904 21.888 364.9536 364.9536 0 0 1-68.6592 43.0592 19.2 19.2 0 0 1-18.432-0.9728 19.2 19.2 0 0 1-25.984-27.904c5.504-6.528 20.4288-45.8752 29.5424-84.6592 12.544-53.1968 15.104-102.5536 4.736-139.136-8.0128-28.3648-33.28-101.5296-34.9184-106.9056-11.6736-38.016-16.9984-70.9632-16.9984-114.3808 0-57.5488 8.6016-88.1408 27.3152-114.176 1.8944-2.6112 9.1648-12.2112 7.6288-10.1632 2.7392-3.6352 4.48-6.1952 5.9392-8.7808a19.2 19.2 0 1 1 33.4336 18.8928c-2.4576 4.352-5.0688 8.192-8.7808 13.1072 1.5872-2.0992-5.4528 7.168-7.0144 9.344-13.7216 19.072-20.1216 41.8304-20.1216 91.776 0 39.4496 4.7104 68.608 15.3088 103.0912 1.3312 4.352 26.7776 78.08 35.1744 107.7248 16.8448 59.4944 1.4592 156.7488-20.0704 216.064z m190.2848-198.0928a19.2 19.2 0 0 1-37.376-8.7808c5.4784-23.424 8.3968-47.5392 8.6016-72.0384a19.2 19.2 0 0 1 38.4 0.3328 365.5936 365.5936 0 0 1-9.6256 80.4864z m1.152-162.304a19.2 19.2 0 1 1-37.5296 8.2688 323.84 323.84 0 0 0-23.3728-68.608 19.2 19.2 0 1 1 34.7392-16.384c11.52 24.4736 20.3264 50.176 26.1632 76.7488z m-193.792-248.0384a19.2 19.2 0 1 1-17.1264 34.3808 323.9424 323.9424 0 0 0-68.096-24.9088 19.2 19.2 0 0 1 9.0624-37.2992c26.4192 6.4 51.968 15.7696 76.16 27.8272z m-317.0048-3.8912a19.2 19.2 0 1 1 16.2816 34.7904 326.4 326.4 0 0 0-61.8752 37.888 19.2 19.2 0 1 1-23.552-30.336 364.8 364.8 0 0 1 69.12-42.3424z m-127.8976 99.6096a19.2 19.2 0 0 1 29.696 24.32c-15.36 18.7904-28.5952 39.1936-39.4496 60.9024a19.2 19.2 0 1 1-34.3552-17.1776 365.184 365.184 0 0 1 44.1088-68.0448zM138.496 405.2992a19.2 19.2 0 0 1 37.2992 9.1648A326.784 326.784 0 0 0 166.4 486.4a19.2 19.2 0 0 1-38.4-0.7424c0.512-27.3152 4.0704-54.2208 10.496-80.384z m-2.8928 162.304a19.2 19.2 0 0 1 37.6064-7.8336c4.9664 23.808 12.5696 46.8992 22.656 68.864a19.2 19.2 0 0 1-34.9184 16.0256c-11.264-24.576-19.7888-50.432-25.344-77.056z m67.4816 146.9696a19.2 19.2 0 0 1 30.464-23.3472 328.448 328.448 0 0 0 50.2528 52.352 19.2 19.2 0 0 1-24.6016 29.4656 366.848 366.848 0 0 1-56.1152-58.4704z m123.5712 103.1168a19.2 19.2 0 0 1 17.5104-34.176c21.5296 11.008 44.288 19.6352 67.84 25.6256a19.2 19.2 0 1 1-9.472 37.2224 362.3936 362.3936 0 0 1-75.8784-28.672z" fill="#BDBDBD" p-id="11699"></path></svg>