<?xml version="1.0" standalone="no"?><!DOCTYPE svg PUBLIC "-//W3C//DTD SVG 1.1//EN" "http://www.w3.org/Graphics/SVG/1.1/DTD/svg11.dtd"><svg t="1699352699813" class="icon" viewBox="0 0 1113 1024" version="1.1" xmlns="http://www.w3.org/2000/svg" p-id="1054" xmlns:xlink="http://www.w3.org/1999/xlink" width="217.3828125" height="200"><path d="M897.9171708 559.76533446l-320.37169953 141.63699723c-30.67311478 13.13008689-42.88195117 13.13008689-71.19454971 0L185.97922204 559.76533446C168.97535205 550.89414382 164.38571167 518.02059935 164.38571167 500.07131493c21.38660654 12.02005535 51.45864326 25.40839387 50.34257056 24.72727286l327.22066916 148.3606166 327.21915854-148.36061661c0.57238358-0.12686089 29.73676206-14.58898537 50.34257055-24.72727285C919.50917053 518.43440702 913.71888397 552.52521048 897.9171708 559.76533446zM897.9171708 411.40471786l-320.37169953 141.64001779c-30.67311478 13.12555568-42.88195117 13.12555568-71.19454971 0L185.97922204 411.40471786c-25.16524447-13.13310748-24.37991588-54.48970882 0-69.93802455L506.35092155 175.10544448c28.31259922-13.90484311 46.0277953-14.67506946 71.19454972 1e-8l320.37169953 166.36124949C922.29557674 354.59980078 921.50873754 400.59135051 897.9171708 411.40471786zM541.94895139 203.34555118L214.72828223 376.43646124l327.22066916 135.61262229 327.21915854-135.61262229L541.94895139 203.34555118zM541.94895139 203.34555118M541.94895139 821.52435085l327.21915853-148.36514713c0.57238358-0.12686089 29.73676206-14.58898537 50.34257056-24.72576225 0 18.36460271-5.7917972 52.45389623-21.59351036 59.69855074l-320.37169952 141.63095607c-30.67311478 13.13461743-42.88195117 13.13461743-71.19454973 0l-320.37169951-141.63095607C168.97535205 699.25627036 164.38571167 666.38574649 164.38571167 648.43495143c21.38660654 12.02458588 51.45864326 25.40839387 50.34257056 24.72576223L541.94895139 821.52435085z" p-id="1055"></path></svg>