<?xml version="1.0" standalone="no"?><!DOCTYPE svg PUBLIC "-//W3C//DTD SVG 1.1//EN" "http://www.w3.org/Graphics/SVG/1.1/DTD/svg11.dtd"><svg t="1702743631460" class="icon" viewBox="0 0 1024 1024" version="1.1" xmlns="http://www.w3.org/2000/svg" p-id="929" xmlns:xlink="http://www.w3.org/1999/xlink" width="16" height="16"><path d="M233.6913104 381.31875348c-1.30355359-1.30355359-2.28121877-3.58477236-1.95533037-5.86599111 1.30355359-73.97666573 63.54823709-133.94013048 137.52490283-132.6365769 4.56243754 0 8.14720987 3.91066074 7.82132148 8.14720989 0 4.56243754-3.91066074 8.14720987-8.14720987 7.82132149-65.50356746-0.65177679-119.92692947 51.81625485-121.23048306 116.9939339 0 4.56243754-3.91066074 8.14720987-8.14720989 7.8213215-1.95533037 0-4.23654913-0.65177679-5.86599111-2.28121877z" p-id="930"></path><path d="M274.75324822 390.44362856c-1.30355359-1.30355359-2.28121877-3.58477236-1.95533038-5.86599113 0.65177679-27.04873681 11.73198223-52.46803164 31.61117435-72.02133536 19.55330372-18.57563853 45.29848695-29.32995558 72.99900055-28.67817879 4.56243754 0 8.14720987 3.91066074 7.82132149 8.14720989 0 4.56243754-3.91066074 8.14720987-8.14720989 7.82132148-22.81218768-0.32588839-44.97259856 8.14720987-61.26701831 23.46396446-16.29441978 15.96853136-25.41929483 37.80305386-26.07107162 60.28935314 0 4.56243754-3.91066074 8.14720987-8.14720989 7.82132148-3.25888396 1.62944197-4.88832593 0.65177679-6.8436563-0.97766517zM736.53710436 683.74318434c-1.62944197-0.65177679-3.58477236-2.28121877-4.23654913-4.56243755-1.95533037-3.91066074 0-8.79898668 3.91066074-10.42842864 59.63757634-26.39696002 87.01220155-97.4406302 60.28935313-157.07820654-1.95533037-3.91066074 0-8.79898668 3.91066075-10.42842866 3.91066074-1.95533037 8.79898668 0 10.42842865 3.91066074 30.30762076 67.78478623-0.97766519 147.95333148-68.43656301 178.26095223-1.30355359 0.97766519-3.58477236 0.97766519-5.86599113 0.32588842z" p-id="931"></path><path d="M712.09547473 647.24368406c-1.62944197-0.65177679-3.58477236-2.28121877-4.23654916-4.56243754-1.95533037-3.91066074 0-8.79898668 3.91066075-10.42842865 20.53096891-9.45076346 37.15127708-26.39696002 45.62437535-47.25381732 8.14720987-21.18274569 7.1695447-44.97259856-1.95533038-65.50356746-1.95533037-3.91066074 0-8.79898668 3.91066075-10.42842865 3.91066074-1.95533037 8.79898668 0 10.42842865 3.91066075 11.08020545 24.76751804 11.40609383 52.79392005 1.95533037 78.53910326-9.77665186 25.09340644-28.67817878 45.62437535-54.09747363 57.03046918-1.30355359-0.32588839-3.25888396 0-5.54010271-1.30355357z" p-id="932"></path><path d="M607.15941143 720.89446139l83.10154081-138.502568c42.36549139-70.71778178 25.09340644-161.64064407-35.84772349-220.95233202l5.86599112-10.10254026c14.013201-23.13807607 5.21421433-53.77158522-19.22741533-68.43656302s-55.72691559-7.82132149-69.4142282 15.31675458l-5.86599112 10.10254027c-81.14621043-26.07107163-169.46196556 1.62944197-212.15334534 72.34722375l-83.7533176 139.48023318-45.62437534 38.78071905-1.62944198 2.93299556c-8.79898668 14.66497778-3.58477236 33.56650472 11.40609384 42.69137979l314.80818987 189.01526927c15.31675458 9.12487507 34.54416991 4.56243754 43.34315657-10.10254025l1.62944198-2.93299555 13.36142421-59.63757635z m-0.32588839-401.49450302c1.95533037-3.25888396 7.82132149-4.56243754 13.36142421-1.30355358 5.54010272 3.25888396 6.84365631 9.12487507 4.88832593 12.38375902l-3.25888396 5.54010272c-1.62944197-0.97766519-3.25888396-2.28121877-4.88832593-3.25888395l-8.14720989-4.88832592c-1.62944197-0.97766519-3.58477236-1.95533037-5.21421432-2.93299558l3.25888396-5.54010271zM266.93192673 576.52590227l34.5441699-29.65584397 87.01220155-145.02033592c38.45483065-64.20001388 127.74825096-81.47209883 198.79192114-38.78071904l8.14720988 4.88832593c71.36955858 42.69137979 97.76651859 129.70358134 59.31168795 193.90359521l-86.36042476 144.04267073-10.42842866 45.62437534-291.018337-175.00206829z m107.21728205 162.61830926c-16.62030817-10.10254026-25.09340644-26.72284842-14.66497778-44.32082176l-35.1959467-21.1827457c-21.18274569 35.19594669-7.49543309 78.86499167 28.67817878 100.69951415 36.17361188 21.83452249 81.14621043 13.03553581 102.32895614-22.16041088l-35.1959467-21.1827457c-10.42842865 17.92386174-29.32995558 18.24975014-45.95026374 8.14720989z" p-id="933"></path></svg>