<?xml version="1.0" standalone="no"?><!DOCTYPE svg PUBLIC "-//W3C//DTD SVG 1.1//EN" "http://www.w3.org/Graphics/SVG/1.1/DTD/svg11.dtd"><svg t="1711696276084" class="icon" viewBox="0 0 1024 1024" version="1.1" xmlns="http://www.w3.org/2000/svg" p-id="1701" xmlns:xlink="http://www.w3.org/1999/xlink" width="16" height="16"><path d="M907.535 116.4425l-0.0075 791.1H116.435V116.4425h791.1z m-45.0075 746.10000001l0.0075-701.10000002h-701.1v701.10000002h701.0925z" fill="#BFBFBF" p-id="1702"></path><path d="M321.9875 922.5425c-20.67749998 0-37.50000001-16.8225-37.5-37.50000001s16.8225-37.50000001 37.5-37.49999999h152.4975v-166.8H387.94999999c-20.67749998 0-37.50000001-16.8225-37.50000001-37.49999998s16.8225-37.50000001 37.50000001-37.50000002h241.80750002c20.67749998 0 37.50000001 16.8225 37.49999999 37.50000002s-16.8225 37.50000001-37.5075 37.49999998H549.4775v166.8h146.25c20.67749998 0 37.50000001 16.8225 37.5 37.49999999s-16.8225 37.50000001-37.5 37.50000001H321.9875z" fill="#008EF0" p-id="1703"></path></svg>