<?xml version="1.0" standalone="no"?><!DOCTYPE svg PUBLIC "-//W3C//DTD SVG 1.1//EN" "http://www.w3.org/Graphics/SVG/1.1/DTD/svg11.dtd"><svg class="icon" width="16px" height="16.00px" viewBox="0 0 1024 1024" version="1.1" xmlns="http://www.w3.org/2000/svg"><path d="M116.44999999 116.44999999l791.09250001 0.00750001V907.55000001H116.44999999V116.44999999z m746.08500001 45.00750002L161.45 161.45v701.1h701.09249999V161.45749999z" fill="#BFBFBF" /><path d="M885.035 739.50500001c-20.67749998 0-37.50000001-16.8225-37.5-37.5V549.5075H680.7425v86.52749999c0 20.67749998-16.8225 37.50000001-37.49999998 37.50000002s-37.50000001-16.8225-37.50000002-37.50000002V394.22750002c0-20.67749998 16.8225-37.50000001 37.50000002-37.50000002s37.50000001 16.83 37.49999998 37.5075v80.27250001h166.7925v-146.25000001c0-20.67749998 16.8225-37.50000001 37.5-37.5s37.50000001 16.8225 37.5 37.5v373.74749999c0 20.67749998-16.8225 37.50000001-37.5 37.50000002z" fill="#008EF0" /></svg>