<?xml version="1.0" standalone="no"?><!DOCTYPE svg PUBLIC "-//W3C//DTD SVG 1.1//EN" "http://www.w3.org/Graphics/SVG/1.1/DTD/svg11.dtd"><svg class="icon" width="16px" height="16.00px" viewBox="0 0 1024 1024" version="1.1" xmlns="http://www.w3.org/2000/svg"><path d="M116.4425 907.55000001V116.4575h791.0925V907.55000001H116.4425z m45.0075-746.09250002v701.09250001h701.1V161.45749999H161.45z" fill="#BFBFBF" /><path d="M394.22750002 418.2575c-20.67749998 0-37.50000001-16.8225-37.50000002-37.50000002s16.8225-37.50000001 37.50000002-37.49999998H474.49999999v-166.8H328.25000001c-20.67749998 0-37.50000001-16.8225-37.50000002-37.49999999s16.8225-37.50000001 37.50000002-37.50000001h373.74749999c20.67749998 0 37.50000001 16.8225 37.5 37.50000001s-16.8225 37.50000001-37.5 37.49999999H549.50000001v166.8h86.52749999c20.67749998 0 37.50000001 16.8225 37.5 37.49999998s-16.81499997 37.50000001-37.49250001 37.50000002H394.22750002z" fill="#008EF0" /></svg>