<?xml version="1.0" standalone="no"?><!DOCTYPE svg PUBLIC "-//W3C//DTD SVG 1.1//EN" "http://www.w3.org/Graphics/SVG/1.1/DTD/svg11.dtd"><svg t="1711696271456" class="icon" viewBox="0 0 1024 1024" version="1.1" xmlns="http://www.w3.org/2000/svg" p-id="1543" xmlns:xlink="http://www.w3.org/1999/xlink" width="16" height="16"><path d="M907.535 907.55000001H116.44999999V116.44999999h791.09250001v791.1z m-746.085-45.00000001h701.09249999V161.45H161.45v701.1z" fill="#BFBFBF" p-id="1544"></path><path d="M138.94999999 733.24999999c-20.67749998 0-37.50000001-16.8225-37.49999999-37.49999997V322.0025c0-20.67749998 16.8225-37.50000001 37.49999999-37.5s37.50000001 16.8225 37.50000001 37.5V474.49999999H343.24999999V387.9725c0-20.67749998 16.8225-37.50000001 37.50000001-37.5s37.50000001 16.8225 37.5 37.5v241.79999998c0 20.67749998-16.8225 37.50000001-37.5 37.50000002s-37.50000001-16.8225-37.50000001-37.50000002V549.50000001H176.45v146.24999998c0 20.67749998-16.8225 37.50000001-37.49999999 37.50000002z" fill="#008EF0" p-id="1545"></path></svg>