<?xml version="1.0" standalone="no"?><!DOCTYPE svg PUBLIC "-//W3C//DTD SVG 1.1//EN" "http://www.w3.org/Graphics/SVG/1.1/DTD/svg11.dtd"><svg t="1725281116099" class="icon" viewBox="0 0 1024 1024" version="1.1" xmlns="http://www.w3.org/2000/svg" p-id="1871" xmlns:xlink="http://www.w3.org/1999/xlink" width="200" height="200"><path d="M633.31306903 584.32240022c-30.9697407 0-56.09163054 25.18156179-56.09163055 56.09163055s25.18156179 56.09163054 56.09163055 56.09163054c30.9697407 0 56.09163054-25.18156179 56.09163054-56.09163054s-25.18156179-56.09163054-56.09163054-56.09163055z m0 73.33682335c-9.48783963 0-17.2451928-7.69768122-17.2451928-17.2451928 0-9.48783963 7.69768122-17.2451928 17.2451928-17.2451928 9.48783963 0 17.18552085 7.75735316 17.18552085 17.2451928 0 9.48783963-7.69768122 17.2451928-17.18552085 17.24519279z m0-1e-8" p-id="1872"></path><path d="M770.20051633 613.44231055c-1.49179869-7.87669705-6.32522642-12.9488126-12.11340532-12.82946868h-1.19343894c-20.04977433 0-36.34021597-16.1114258-36.34021597-35.92251234 0-6.50424227 3.16261321-13.66487595 3.16261323-13.7245479 3.04326932-7.0412898 0.71606337-15.27601854-5.54949113-19.63207068l-0.35803168-0.23868778-34.96776117-19.21436706-0.35803168-0.17901584c-6.802602-2.74490958-14.55995516-1.19343895-19.81108652 3.87867658-4.23670827 4.35605216-17.72256837 15.63405022-28.5828628 15.63405022-10.97963831 0-24.52517037-11.51668585-28.8215506-15.99208192-5.19145943-5.19145943-13.00848453-6.74293006-19.81108652-4.0576924l-0.41770363 0.17901583-36.22087207 19.63207069-0.35803167 0.2386878c-6.26555448 4.4157241-8.59276042 12.5907809-5.54949111 19.63207068 0.05967195 0.05967195 3.16261321 7.22030564 3.1626132 13.78421985 0 19.81108653-16.29044163 35.92251232-36.34021596 35.92251231h-1.19343893c-5.84785084-0.11934389-10.62160664 4.95277163-12.11340533 12.82946871-0.11934389 0.59671947-2.92392542 15.45503438-2.92392541 27.09106409 0 11.69570168 2.80458154 26.49434464 2.92392541 27.09106411 1.49179869 7.81702511 6.14621059 12.8294687 11.93438948 12.8294687h1.43212674c20.04977433 0 36.34021597 16.17109774 36.34021596 35.98218427 0 6.50424227-3.16261321 13.66487595-3.16261322 13.7245479-3.04326932 7.0412898-0.77573532 15.27601854 5.48981917 19.69174264l0.29835973 0.23868778 34.31136974 18.97567926 0.3580317 0.17901585c6.86227394 2.80458154 14.738971 1.19343895 19.87075846-4.11736437 4.05769242-4.35605216 18.02092811-16.64847332 29.23925422-16.64847332 11.27799805 0 25.0622179 12.23274922 29.41827007 16.94683305 3.46097294 3.58031685 8.23472874 5.60916306 13.24717232 5.54949112 2.26753401 0 4.535068-0.41770364 6.62358616-1.31278285l0.41770363-0.11934389 35.56448064-19.45305485 0.35803168-0.23868778c6.26555448-4.4157241 8.59276042-12.5907809 5.54949112-19.6320707-0.05967195-0.05967195-3.16261321-7.22030564-3.16261322-13.78421984 0-19.81108653 16.29044163-35.98218428 36.34021596-35.98218427h1.19343894c5.84785084 0.11934389 10.62160664-4.95277163 12.11340532-12.82946869 0.11934389-0.59671947 2.92392542-15.39536242 2.92392541-27.09106412 0.05967195-11.57635778-2.74490958-26.43467269-2.92392541-27.03139216z m-36.10152817 31.62613211c-30.37302121 9.66685548-52.45164176 37.95135854-52.45164175 71.36764908 0 2.98359737 0.23868779 5.96719474 0.59671948 8.71210432l-4.23670826 2.26753399c-10.68127858-8.41374458-26.91204828-17.90158422-45.47002392-17.90158421-18.14027201 0-34.2516978 9.30882381-44.99264832 17.60322448l-3.22228517-1.79015843c0.41770364-2.86425348 0.65639142-5.84785084 0.65639143-8.89112015 0-33.3566186-22.07862054-61.7007936-52.45164175-71.30797713-0.11934389-1.61114258-0.17901585-3.16261321-0.17901585-4.535068s0.05967195-2.92392542 0.17901585-4.535068c30.37302121-9.60718354 52.45164176-37.95135854 52.45164175-71.30797713 0-2.98359737-0.23868779-5.9075228-0.59671948-8.65243236l5.19145943-2.86425347c10.68127858 8.05571289 26.49434464 16.94683306 44.45560081 16.94683305 17.72256837 0 33.3566186-8.65243238 43.97822522-16.52912943l4.23670826 2.32720597c-0.41770364 2.98359737-0.65639142 5.96719474-0.65639143 8.77177624 0 33.3566186 22.07862054 61.7007936 52.45164175 71.30797713 0.11934389 1.61114258 0.17901585 3.16261321 0.17901585 4.59473996 0.05967195 1.25311089 0 2.80458154-0.1193439 4.41572409zM366.0424167 481.98501046c-10.74095052 0-19.45305486 8.71210432-19.45305484 19.45305485s8.71210432 19.45305486 19.45305483 19.45305485h147.80741369c10.74095052 0 19.45305486-8.71210432 19.45305483-19.45305485s-8.71210432-19.45305486-19.45305484-19.45305485H366.0424167z m262.55656848-89.44824912c0-10.74095052-8.71210432-19.45305486-19.45305485-19.45305485H366.0424167c-10.74095052 0-19.45305486 8.71210432-19.45305484 19.45305485s8.71210432 19.45305486 19.45305483 19.45305485h243.10351364c10.74095052 0 19.45305486-8.71210432 19.45305485-19.45305485z m0 0" p-id="1873"></path><path d="M302.61113663 685.40667911V346.35067407c0-24.2864826 19.7514146-44.09756912 44.09756911-44.09756912h325.03309741c24.2864826 0 44.09756912 19.7514146 44.09756911 44.09756912v112.24293302h40.0398767V346.35067407c0-46.36510312-37.71267075-84.13744581-84.13744581-84.13744581H346.70870575c-46.36510312 0-84.13744581 37.7723427-84.13744581 84.13744581v339.05600503c0 46.36510312 37.7723427 84.13744581 84.13744581 84.13744581h112.72030861v-40.0398767H346.70870575c-24.2864826 0-44.09756912-19.81108653-44.09756912-44.0975691z m1e-8-1e-8" p-id="1874"></path></svg>