<svg xmlns="http://www.w3.org/2000/svg" fill="none" viewBox="0 0 16 16" class="design-iconfont">
  <path d="M2 7.5C2 7.22386 2.22386 7 2.5 7H13.5C13.7761 7 14 7.22386 14 7.5V8C14 8.27614 13.7761 8.5 13.5 8.5H2.5C2.22386 8.5 2 8.27614 2 8V7.5Z" fill="#1D2129"/>
  <path d="M2 3.5C2 3.22386 2.22386 3 2.5 3H13.5C13.7761 3 14 3.22386 14 3.5V4C14 4.27614 13.7761 4.5 13.5 4.5H2.5C2.22386 4.5 2 4.27614 2 4V3.5Z" fill="#1D2129"/>
  <path d="M2.5 11C2.22386 11 2 11.2239 2 11.5V12C2 12.2761 2.22386 12.5 2.5 12.5H9.5C9.77614 12.5 10 12.2761 10 12V11.5C10 11.2239 9.77614 11 9.5 11H2.5Z" fill="#1D2129"/>
</svg>
