<svg xmlns="http://www.w3.org/2000/svg" viewBox="0 0 24 24">
  <path d="M13.278 3.55805L13.346 3.43005C13.4191 3.27354 13.5444 3.14739 13.7005 3.07329C13.8565 2.99919 14.0335 2.98179 14.201 3.02405C15.83 3.44951 17.3057 4.32653 18.458 5.55405C18.7031 5.81306 18.74 6.21405 18.545 6.51605C18.389 6.75705 18.3018 7.03613 18.2931 7.32308C18.2843 7.61004 18.354 7.89393 18.495 8.14406C18.755 8.61005 19.232 8.89905 19.748 8.91405L19.89 8.91105C20.0634 8.90045 20.2352 8.95055 20.3756 9.05273C20.5161 9.15491 20.6166 9.30281 20.66 9.47105C20.885 10.2911 21 11.1411 21 12.0011C21.0018 12.8552 20.8874 13.7057 20.66 14.529C20.6154 14.6966 20.5146 14.8437 20.3744 14.9457C20.2341 15.0477 20.0631 15.0983 19.89 15.089C19.6079 15.0698 19.3263 15.1322 19.0787 15.2687C18.8312 15.4052 18.6282 15.6102 18.494 15.8591C18.3534 16.1085 18.2838 16.3917 18.2925 16.6781C18.3014 16.9643 18.3884 17.2427 18.5441 17.483C18.6386 17.6306 18.6815 17.8052 18.6659 17.9798C18.6503 18.1542 18.5772 18.3186 18.458 18.447C17.3049 19.6751 15.8282 20.5521 14.198 20.9771C14.0306 21.0186 13.854 21.0009 13.6983 20.9268C13.5426 20.8529 13.4174 20.727 13.344 20.571C13.2243 20.3154 13.0344 20.0991 12.7964 19.9473C12.5585 19.7957 12.2822 19.7147 12 19.7141C11.742 19.7138 11.4884 19.7811 11.2644 19.9092C11.0404 20.0372 10.8537 20.2215 10.723 20.444L10.655 20.571C10.5819 20.7275 10.4564 20.8533 10.3003 20.9271C10.1442 21.0009 9.96725 21.0179 9.8 20.975C8.16969 20.5506 6.69279 19.6734 5.54 18.4451C5.42064 18.3171 5.34738 18.153 5.3318 17.9787C5.31623 17.8046 5.35923 17.6301 5.45399 17.483C5.774 16.991 5.792 16.367 5.504 15.857C5.36792 15.6101 5.16468 15.4067 4.9178 15.2703C4.67093 15.1341 4.3905 15.0705 4.109 15.087C3.93603 15.0966 3.76509 15.0461 3.62513 14.944C3.48516 14.8419 3.38478 14.6946 3.341 14.5271C2.88672 12.8722 2.88741 11.1255 3.34299 9.47105C3.38102 9.32007 3.46544 9.18483 3.58439 9.08438C3.70332 8.98391 3.85079 8.92329 4.00599 8.91105H4.11099C4.3926 8.92961 4.67364 8.86727 4.92098 8.73137C5.16831 8.59547 5.37165 8.39169 5.507 8.14406C5.64797 7.89431 5.71782 7.61072 5.70902 7.32407C5.7002 7.03742 5.61303 6.75867 5.45699 6.51806C5.3624 6.37058 5.31953 6.19584 5.33508 6.02135C5.35065 5.84684 5.42379 5.68245 5.543 5.55405C6.69528 4.32648 8.17097 3.44946 9.8 3.02405C9.94962 2.98635 10.1073 2.99625 10.251 3.05235C10.3948 3.10845 10.5174 3.20796 10.602 3.33705L10.655 3.43005C10.906 3.95705 11.429 4.29005 12 4.28906C12.258 4.28865 12.5115 4.22102 12.7354 4.09284C12.9593 3.96465 13.146 3.78033 13.277 3.55805H13.278ZM14.342 4.67405C14.0664 5.03441 13.7115 5.32643 13.3049 5.5274C12.8982 5.72838 12.4506 5.83293 11.997 5.83293C11.5433 5.83293 11.0958 5.72838 10.6891 5.5274C10.2824 5.32643 9.92754 5.03441 9.65199 4.67405C8.66634 5.00834 7.76207 5.54634 6.998 6.25305C7.16277 6.68454 7.23045 7.14702 7.19624 7.60764C7.16201 8.06825 7.02672 8.51565 6.8 8.91806C6.58112 9.31683 6.27363 9.66008 5.90124 9.92135C5.52885 10.1826 5.10146 10.3549 4.652 10.425C4.44275 11.4656 4.44275 12.5375 4.652 13.578C5.10156 13.649 5.52891 13.822 5.90126 14.0837C6.2736 14.3455 6.58104 14.689 6.8 15.0881C7.25799 15.8981 7.32999 16.8791 6.99699 17.7521C7.7621 18.4566 8.66612 18.9935 9.65099 19.328C9.92658 18.9678 10.2815 18.6761 10.6882 18.4754C11.0949 18.2747 11.5425 18.1706 11.996 18.171C12.4495 18.1706 12.897 18.2747 13.3037 18.4754C13.7105 18.6761 14.0654 18.9678 14.341 19.328C15.3266 18.9941 16.2308 18.4563 16.995 17.75C16.8311 17.3183 16.764 16.8558 16.7985 16.3953C16.8332 15.9348 16.9685 15.4875 17.195 15.0851C17.4138 14.6862 17.7212 14.3427 18.0933 14.0809C18.4655 13.8192 18.8927 13.6461 19.3421 13.575C19.5531 12.5357 19.5531 11.4644 19.3421 10.425C18.8925 10.3549 18.4652 10.1826 18.0927 9.92135C17.7204 9.66008 17.4129 9.31683 17.1941 8.91806C16.9667 8.51589 16.8309 8.06849 16.7966 7.60781C16.7621 7.14711 16.8299 6.68451 16.995 6.25305C16.2306 5.54675 15.3264 5.0088 14.341 4.67405H14.342ZM12 8.14406C14.067 8.14406 15.7481 9.87206 15.75 11.9991C15.75 14.1251 14.067 15.855 12 15.855C9.93299 15.855 8.24999 14.1251 8.24999 11.9991C8.24999 9.87405 9.93299 8.14406 12 8.14406ZM12 9.68705C10.76 9.68705 9.74999 10.7241 9.74999 11.9991C9.74999 13.2731 10.76 14.3121 12 14.3121C13.24 14.3121 14.25 13.275 14.25 11.9991C14.25 10.7241 13.24 9.68705 12 9.68705Z" />
</svg>
