<?xml version="1.0" standalone="no"?><!DOCTYPE svg PUBLIC "-//W3C//DTD SVG 1.1//EN" "http://www.w3.org/Graphics/SVG/1.1/DTD/svg11.dtd"><svg t="1699862604260" class="icon" viewBox="0 0 1024 1024" version="1.1" xmlns="http://www.w3.org/2000/svg" p-id="1208" xmlns:xlink="http://www.w3.org/1999/xlink" width="200" height="200"><path d="M775.671875 630.65234375V828.40625H221.9609375v-197.75390625h553.7109375z m-382.08691406 26.34082031L248.328125 657.01953125V802.0390625l145.25683594-0.02636719v-145.01953125zM749.3046875 657.01953125l-144.78222656-0.02636719v145.01953125L749.3046875 802.0390625v-145.01953125z m-171.12304688 0h-158.20312499v144.75585938h158.20312499V657.01953125zM775.671875 169.2265625v197.75390625H221.9609375V169.2265625h553.7109375zM393.58496094 195.59375H248.328125v145.01953125h145.25683594V195.59375zM749.3046875 195.59375h-144.78222656v145.01953125H749.3046875V195.59375z m-171.12304688 0.23730469h-158.20312499V340.61328125h158.20312499V195.83105469z" fill="#646E7F" p-id="1209"></path><path d="M616.96777344 393.34765625H142.859375v210.9375h474.10839844v-210.9375z m-26.3671875 26.3671875v158.203125H169.2265625v-158.203125h421.40039063z" fill="#16B2BC" p-id="1210"></path><path d="M907.5078125 498.81640625a118.65234375 118.65234375 0 1 1-237.3046875 0 118.65234375 118.65234375 0 0 1 237.3046875 0z m-26.3671875 0a92.28515625 92.28515625 0 1 0-184.5703125 0 92.28515625 92.28515625 0 0 0 184.5703125 0z m-39.55078125 13.18359375H802.0390625v39.55078125h-26.3671875V512h-39.55078125v-26.3671875H775.671875v-39.55078125h26.3671875V485.6328125h39.55078125v26.3671875z" fill="#007EE6" p-id="1211"></path></svg>