<?xml version="1.0" standalone="no"?><!DOCTYPE svg PUBLIC "-//W3C//DTD SVG 1.1//EN" "http://www.w3.org/Graphics/SVG/1.1/DTD/svg11.dtd"><svg t="1700385485685" class="icon" viewBox="0 0 1024 1024" version="1.1" xmlns="http://www.w3.org/2000/svg" p-id="1473" xmlns:xlink="http://www.w3.org/1999/xlink" width="16" height="16"><path d="M821.59397555 532.97906546V490.95304114c0-1.15418807-0.33946708-2.03680247-1.56154857-2.03680247H552.46447575l-0.33946708-0.06789342c-7.26459548-1.42576173-14.66497778-2.85152347-22.0653601-4.20939176-11.47398726-2.10469589-15.75127245-2.91941688-21.59010619-4.07360495-36.05140373-7.06091523-57.98097699-14.05393705-75.7690519-24.30584283-25.73160455-15.00444487-38.22399303-35.44036299-38.22399304-62.46194242 0-26.95368604 11.13452018-49.42640662 32.11358562-64.97399882 20.43591813-15.1402317 49.42640662-23.08376134 83.71258155-23.08376133 39.24239426 0 69.6586445 10.38769261 90.36613628 30.89150413 10.59137286 10.45558601 18.39911565 23.28744158 23.08376133 38.15609962 1.08629466 3.32677737 2.10469589 7.73984939 3.12309713 12.76396216 0.33946708 1.6973354 1.83312222 2.91941688 3.59835103 2.91941687h50.92006176c1.96890906 0 3.66624444-1.56154857 3.66624445-3.53045762v-0.54314732c-0.67893416-4.61675227-0.88261441-8.21510331-1.35786832-10.7950531-4.95621935-29.73731607-19.01015639-55.67260087-40.668156-75.22590458-30.34835681-27.7005136-75.22590458-42.36549139-129.67642395-42.3654914-49.83376712 0-94.64342148 12.42449508-126.21385978 34.96510909-17.51650124 12.62817532-30.95939755 28.1078741-39.92132841 46.09962925-9.09771771 18.46700907-13.78236339 39.85343501-13.7823634 63.48034367 0 20.02855763 3.80203128 37.00191157 11.67766751 51.938463 5.56726009 10.52347943 13.10342924 19.82487738 23.08376133 28.44734118l6.9251284 5.97462057H204.57861375c-1.22208149 0-2.85152347 0.95050781-2.85152344 2.10469588V533.04695886c0 1.22208149 1.62944197 2.03680247 2.85152345 2.03680247h303.27988789l0.33946707 0.13578683c0.88261441 0.20368026 1.76522881 0.40736049 2.57994979 0.54314733 0.54314733 0.13578683 1.01840124 0.20368026 1.56154856 0.33946708 22.40482718 4.48096543 35.10089591 7.40038232 46.84645683 10.72715968 16.49810002 4.68464569 29.05838191 9.57297162 39.3781811 15.34391195 26.27475187 14.80076462 39.03871403 36.11929715 39.03871402 65.17767906 0 25.73160455-11.27030701 48.74747246-31.77411854 64.77031856-21.86167985 17.10914076-54.11105231 26.20685845-93.35344657 26.20685845-30.95939755 0-57.43782967-6.042514-78.7563622-17.92386173-20.97906546-11.74556092-35.57614982-28.71891485-43.31599921-50.44480786-0.61104074-1.62944197-1.22208149-3.9378181-1.96890906-6.72144816-0.40736049-1.56154857-1.90101564-2.91941688-3.53045761-2.91941687h-55.74049428c-2.03680247 0-3.8699247 2.03680247-3.8699247 4.07360495v0.54314733c0 1.49365514 0.33946708 2.78363004 0.47525392 3.66624444 4.41307203 33.19988027 20.63959838 60.42513997 48.13643172 80.79316466 32.31726588 23.89848232 78.07742804 36.52665764 132.12058694 36.52665765 58.11676383 0 106.8642363-13.64657656 140.74305072-39.3781811 16.97335391-12.83185556 30.07678315-28.65102142 38.90292718-47.05013708 8.89403746-18.6027959 13.44289631-39.64975477 13.4428963-62.52983584 0-21.72589302-3.9378181-39.78554159-12.08502797-55.3331338-3.8699247-7.53616914-8.82614404-14.52919096-14.73287122-20.8432786l-5.36357984-5.77094034h152.96386556c1.35786832 0.06789342 1.6973354-0.88261441 1.69733538-2.03680247z" p-id="1474"></path></svg>