<svg xmlns="http://www.w3.org/2000/svg"viewBox="0 0 32 32">
  <path fill-rule="evenodd" clip-rule="evenodd" d="M9.02326 8.5C8.73427 8.5 8.5 8.73427 8.5 9.02326V11.814C8.5 12.1029 8.73427 12.3372 9.02326 12.3372H9.89535V19.6628H9.02326C8.73427 19.6628 8.5 19.8971 8.5 20.186V22.9767C8.5 23.2657 8.73427 23.5 9.02326 23.5H11.814C12.1029 23.5 12.3372 23.2657 12.3372 22.9767V22.1047H19.6628V22.9767C19.6628 23.2657 19.8971 23.5 20.186 23.5H22.9767C23.2657 23.5 23.5 23.2657 23.5 22.9767V20.186C23.5 19.8971 23.2657 19.6628 22.9767 19.6628H22.1047V12.3372H22.9767C23.2657 12.3372 23.5 12.1029 23.5 11.814V9.02326C23.5 8.73427 23.2657 8.5 22.9767 8.5H20.186C19.8971 8.5 19.6628 8.73427 19.6628 9.02326V9.89535H12.3372V9.02326C12.3372 8.73427 12.1029 8.5 11.814 8.5H9.02326ZM19.6628 21.0581H12.3372V20.186C12.3372 19.8971 12.1029 19.6628 11.814 19.6628H10.9419V12.3372H11.814C12.1029 12.3372 12.3372 12.1029 12.3372 11.814V10.9419H19.6628V11.814C19.6628 12.1029 19.8971 12.3372 20.186 12.3372H21.0581V19.6628H20.186C19.8971 19.6628 19.6628 19.8971 19.6628 20.186V21.0581ZM20.7093 21.5814V22.4535H22.4535V20.7093H21.5814H20.7093V21.5814ZM11.2907 21.5814V20.7093H10.4186H9.54651V22.4535H11.2907V21.5814ZM11.2907 9.54651V10.4186V11.2907H10.4186H9.54651V9.54651H11.2907ZM20.7093 11.2907V10.4186V9.54651H22.4535V11.2907H21.5814H20.7093Z" />
</svg>
