<svg xmlns="http://www.w3.org/2000/svg" viewBox="0 0 24 24">
  <path fill-rule="evenodd" clip-rule="evenodd" d="M3 12C3 7.02943 7.02943 3 12 3C16.9706 3 21 7.02943 21 12C21 12.8205 20.5332 13.3566 19.9552 13.6915C19.4128 14.0058 18.7129 14.183 18.0655 14.3231C17.8654 14.3665 17.6693 14.4065 17.4774 14.4456C17.0102 14.541 16.5681 14.6312 16.1548 14.7514C15.5668 14.9225 15.1849 15.1172 14.9816 15.3466C14.7063 15.6574 14.543 16.0858 14.4398 16.6282C14.3665 17.0139 14.3317 17.3989 14.295 17.8047C14.2784 17.9877 14.2615 18.1749 14.2405 18.3682C14.1787 18.9362 14.0788 19.5869 13.7629 20.0963C13.5954 20.3662 13.365 20.602 13.0525 20.7656C12.7436 20.9273 12.3897 21 12 21C7.02943 21 3 16.9706 3 12ZM12 4.25581C7.723 4.25581 4.25581 7.723 4.25581 12C4.25581 16.277 7.723 19.7442 12 19.7442C12.234 19.7442 12.3785 19.7009 12.4701 19.653C12.5582 19.6069 12.6306 19.5393 12.6957 19.4343C12.8449 19.1938 12.9294 18.8087 12.992 18.2326C13.0079 18.0866 13.0223 17.9271 13.0375 17.7595C13.0767 17.328 13.1208 16.8424 13.2061 16.3936C13.3278 15.7535 13.5501 15.0687 14.0416 14.5139C14.4928 14.0046 15.1705 13.7299 15.8041 13.5456C16.27 13.4101 16.7915 13.3036 17.278 13.2043C17.4582 13.1675 17.6337 13.1317 17.7998 13.0958C18.4538 12.9541 18.9737 12.8088 19.3257 12.6049C19.642 12.4216 19.7442 12.2439 19.7442 12C19.7442 7.723 16.277 4.25581 12 4.25581Z" />
  <path fill-rule="evenodd" clip-rule="evenodd" d="M11.7907 7.81395C11.7907 6.77358 12.634 5.93023 13.6744 5.93023C14.7148 5.93023 15.5581 6.77358 15.5581 7.81395C15.5581 8.85432 14.7148 9.69767 13.6744 9.69767C12.634 9.69767 11.7907 8.85432 11.7907 7.81395ZM13.6744 7.18605C13.3276 7.18605 13.0465 7.46715 13.0465 7.81395C13.0465 8.16076 13.3276 8.44186 13.6744 8.44186C14.0212 8.44186 14.3023 8.16076 14.3023 7.81395C14.3023 7.46715 14.0212 7.18605 13.6744 7.18605Z" />
  <path fill-rule="evenodd" clip-rule="evenodd" d="M6.76744 9.48837C6.76744 8.448 7.61079 7.60465 8.65116 7.60465C9.69153 7.60465 10.5349 8.448 10.5349 9.48837C10.5349 10.5287 9.69153 11.3721 8.65116 11.3721C7.61079 11.3721 6.76744 10.5287 6.76744 9.48837ZM8.65116 8.86046C8.30436 8.86046 8.02326 9.14157 8.02326 9.48837C8.02326 9.83517 8.30436 10.1163 8.65116 10.1163C8.99797 10.1163 9.27907 9.83517 9.27907 9.48837C9.27907 9.14157 8.99797 8.86046 8.65116 8.86046Z" />
  <path fill-rule="evenodd" clip-rule="evenodd" d="M7.18605 14.9302C7.18605 13.8899 8.0294 13.0465 9.06977 13.0465C10.1101 13.0465 10.9535 13.8899 10.9535 14.9302C10.9535 15.9706 10.1101 16.814 9.06977 16.814C8.0294 16.814 7.18605 15.9706 7.18605 14.9302ZM9.06977 14.3023C8.72296 14.3023 8.44186 14.5834 8.44186 14.9302C8.44186 15.277 8.72296 15.5581 9.06977 15.5581C9.41657 15.5581 9.69767 15.277 9.69767 14.9302C9.69767 14.5834 9.41657 14.3023 9.06977 14.3023Z" />
</svg>
