<svg xmlns="http://www.w3.org/2000/svg" fill="none" viewBox="0 0 16 16" class="design-iconfont">
  <path d="M6.59084 2.67672C6.39558 2.48146 6.079 2.48146 5.88373 2.67672L5.53018 3.03027C5.33492 3.22554 5.33492 3.54212 5.53018 3.73738L7.6463 5.8535C7.84156 6.04876 8.15814 6.04876 8.3534 5.8535L10.4695 3.73738C10.6648 3.54212 10.6648 3.22554 10.4695 3.03027L10.116 2.67672C9.9207 2.48146 9.60412 2.48146 9.40886 2.67672L8.74979 3.33579V0.500492C8.74979 0.224365 8.52596 5.90348e-05 8.24983 3.80327e-05L7.74983 1.4777e-09C7.47367 -2.10014e-05 7.24979 0.223843 7.24979 0.5V3.33567L6.59084 2.67672Z" fill="#1D2129"/>
  <path d="M2 7.74996C2 7.47382 2.22386 7.24996 2.5 7.24996H13.5C13.7761 7.24996 14 7.47382 14 7.74996V8.24996C14 8.5261 13.7761 8.74996 13.5 8.74996H2.5C2.22386 8.74996 2 8.5261 2 8.24996V7.74996Z" fill="#1D2129"/>
  <path d="M10.116 13.3232C9.92076 13.5185 9.60418 13.5185 9.40892 13.3232L8.74996 12.6643V15.4999C8.74996 15.7761 8.52608 15.9999 8.24992 15.9999L7.74992 15.9999C7.4738 15.9999 7.24996 15.7756 7.24996 15.4994V12.6641L6.5909 13.3232C6.39563 13.5185 6.07905 13.5185 5.88379 13.3232L5.53024 12.9697C5.33497 12.7744 5.33497 12.4578 5.53024 12.2625L7.64635 10.1464C7.84161 9.95117 8.1582 9.95117 8.35346 10.1464L10.4696 12.2625C10.6648 12.4578 10.6648 12.7744 10.4696 12.9697L10.116 13.3232Z" fill="#1D2129"/>
</svg>
