<svg xmlns="http://www.w3.org/2000/svg" fill="none" viewBox="0 0 16 16" class="design-iconfont">
  <path d="M13.4998 13.8535C13.7759 13.8535 13.9998 13.6296 13.9998 13.3535V12.8535C13.9998 12.5773 13.7759 12.3535 13.4998 12.3535L2.49976 12.3535C2.22361 12.3535 1.99976 12.5773 1.99976 12.8535L1.99976 13.3535C1.99976 13.6296 2.22361 13.8535 2.49976 13.8535L13.4998 13.8535Z" fill="#1D2129"/>
  <path d="M5.88366 6.82313C5.6884 6.62787 5.37181 6.62787 5.17655 6.82313L4.823 7.17668C4.62774 7.37194 4.62774 7.68853 4.823 7.88379L7.64622 10.707C7.84148 10.9023 8.15807 10.9023 8.35333 10.707L11.1766 7.88379C11.3718 7.68853 11.3718 7.37194 11.1766 7.17668L10.823 6.82313C10.6277 6.62787 10.3112 6.62787 10.1159 6.82313L8.74972 8.1893L8.74972 2.49885C8.74972 2.22272 8.52589 2.00006 8.24976 2.00004L7.74976 2C7.4736 1.99998 7.24972 2.22384 7.24972 2.5L7.24972 8.18919L5.88366 6.82313Z" fill="#1D2129"/>
</svg>
