<svg xmlns="http://www.w3.org/2000/svg" fill="none" viewBox="0 0 16 16" class="design-iconfont">
  <path d="M2 11.5C2 11.2239 2.22386 11 2.5 11H11.5C11.7761 11 12 11.2239 12 11.5V12C12 12.2761 11.7761 12.5 11.5 12.5H2.5C2.22386 12.5 2 12.2761 2 12V11.5Z" fill="#1D2129"/>
  <path d="M2 3.5C2 3.22386 2.22386 3 2.5 3H13.5C13.7761 3 14 3.22386 14 3.5V4C14 4.27614 13.7761 4.5 13.5 4.5H2.5C2.22386 4.5 2 4.27614 2 4V3.5Z" fill="#1D2129"/>
  <path d="M2.5 7C2.22386 7 2 7.22386 2 7.5V8C2 8.27614 2.22386 8.5 2.5 8.5H9.5C9.77614 8.5 10 8.27614 10 8V7.5C10 7.22386 9.77614 7 9.5 7H2.5Z" fill="#1D2129"/>
</svg>
