<svg xmlns="http://www.w3.org/2000/svg" fill="none" viewBox="0 0 16 16" class="design-iconfont">
  <path d="M3 11.5C3 11.2239 3.22386 11 3.5 11H12.5C12.7761 11 13 11.2239 13 11.5V12C13 12.2761 12.7761 12.5 12.5 12.5H3.5C3.22386 12.5 3 12.2761 3 12V11.5Z" fill="#1D2129"/>
  <path d="M2 3.5C2 3.22386 2.22386 3 2.5 3H13.5C13.7761 3 14 3.22386 14 3.5V4C14 4.27614 13.7761 4.5 13.5 4.5H2.5C2.22386 4.5 2 4.27614 2 4V3.5Z" fill="#1D2129"/>
  <path d="M4.5 7C4.22386 7 4 7.22386 4 7.5V8C4 8.27614 4.22386 8.5 4.5 8.5H11.5C11.7761 8.5 12 8.27614 12 8V7.5C12 7.22386 11.7761 7 11.5 7H4.5Z" fill="#1D2129"/>
</svg>
