<svg xmlns="http://www.w3.org/2000/svg" fill="none" viewBox="0 0 16 16" class="design-iconfont">
  <path d="M2.5 2C2.22386 2 2 2.22386 2 2.5V3C2 3.27614 2.22386 3.5 2.5 3.5H13.5C13.7761 3.5 14 3.27614 14 3V2.5C14 2.22386 13.7761 2 13.5 2H2.5Z" fill="#1D2129"/>
  <path d="M10.1161 9.03035C10.3114 9.22561 10.6279 9.22561 10.8232 9.03035L11.1768 8.6768C11.372 8.48153 11.372 8.16495 11.1768 7.96969L8.35353 5.14647C8.15827 4.9512 7.84169 4.9512 7.64643 5.14647L4.8232 7.96969C4.62794 8.16495 4.62794 8.48153 4.8232 8.6768L5.17676 9.03035C5.37202 9.22561 5.6886 9.22561 5.88386 9.03035L7.25004 7.66417V13.3546C7.25004 13.6308 7.47387 13.8534 7.75 13.8534L8.25 13.8535C8.52616 13.8535 8.75004 13.6296 8.75004 13.3535L8.75004 7.66429L10.1161 9.03035Z" fill="#1D2129"/>
</svg>
