<svg xmlns="http://www.w3.org/2000/svg" fill="none" viewBox="0 0 16 16" class="design-iconfont">
  <path d="M4 11.5C4 11.2239 4.22386 11 4.5 11H13.5C13.7761 11 14 11.2239 14 11.5V12C14 12.2761 13.7761 12.5 13.5 12.5H4.5C4.22386 12.5 4 12.2761 4 12V11.5Z" fill="#1D2129"/>
  <path d="M2 3.5C2 3.22386 2.22386 3 2.5 3H13.5C13.7761 3 14 3.22386 14 3.5V4C14 4.27614 13.7761 4.5 13.5 4.5H2.5C2.22386 4.5 2 4.27614 2 4V3.5Z" fill="#1D2129"/>
  <path d="M6.5 7C6.22386 7 6 7.22386 6 7.5V8C6 8.27614 6.22386 8.5 6.5 8.5H13.5C13.7761 8.5 14 8.27614 14 8V7.5C14 7.22386 13.7761 7 13.5 7H6.5Z" fill="#1D2129"/>
</svg>
