<svg xmlns="http://www.w3.org/2000/svg" viewBox="0 0 32 32">
  <path fill-rule="evenodd" clip-rule="evenodd" d="M9.84615 8.5C9.10269 8.5 8.5 9.10269 8.5 9.84615V12.9231C8.5 13.2417 8.7583 13.5 9.07692 13.5C9.39555 13.5 9.65385 13.2417 9.65385 12.9231V9.84615C9.65385 9.73994 9.73994 9.65385 9.84615 9.65385H12.9231C13.2417 9.65385 13.5 9.39555 13.5 9.07692C13.5 8.7583 13.2417 8.5 12.9231 8.5H9.84615ZM9.65385 19.0769C9.65385 18.7583 9.39555 18.5 9.07692 18.5C8.7583 18.5 8.5 18.7583 8.5 19.0769V22.1538C8.5 22.8973 9.1027 23.5 9.84615 23.5H12.9231C13.2417 23.5 13.5 23.2417 13.5 22.9231C13.5 22.6045 13.2417 22.3462 12.9231 22.3462H9.84615C9.73994 22.3462 9.65385 22.2601 9.65385 22.1538V19.0769ZM22.9231 18.5C23.2417 18.5 23.5 18.7583 23.5 19.0769V22.1538C23.5 22.8973 22.8973 23.5 22.1538 23.5H19.0769C18.7583 23.5 18.5 23.2417 18.5 22.9231C18.5 22.6045 18.7583 22.3462 19.0769 22.3462H22.1538C22.2601 22.3462 22.3462 22.2601 22.3462 22.1538V19.0769C22.3462 18.7583 22.6045 18.5 22.9231 18.5ZM19.0769 8.5C18.7583 8.5 18.5 8.7583 18.5 9.07692C18.5 9.39555 18.7583 9.65385 19.0769 9.65385H22.1538C22.2601 9.65385 22.3462 9.73994 22.3462 9.84615V12.9231C22.3462 13.2417 22.6045 13.5 22.9231 13.5C23.2417 13.5 23.5 13.2417 23.5 12.9231V9.84615C23.5 9.1027 22.8973 8.5 22.1538 8.5H19.0769Z" />
  <path fill-rule="evenodd" clip-rule="evenodd" d="M16.2631 12.7289C16.3843 12.7895 16.4755 12.8864 16.53 12.9998L18.4815 16.9028C18.4853 16.9101 18.489 16.9174 18.4925 16.9248L19.2711 18.4819C19.4164 18.7725 19.2986 19.1258 19.008 19.2711C18.7175 19.4164 18.3642 19.2986 18.2189 19.0081L17.5972 17.7647H14.4028L13.7811 19.008C13.6358 19.2985 13.2825 19.4163 12.992 19.271C12.7014 19.1257 12.5836 18.7724 12.7289 18.4819L13.5083 16.923C13.5113 16.9168 13.5144 16.9106 13.5176 16.9045L15.4739 12.9919L15.475 12.9897L15.4773 12.9852C15.4847 12.9709 15.4926 12.957 15.5009 12.9436C15.5762 12.8227 15.69 12.7373 15.818 12.6956C15.8586 12.6824 15.8999 12.6738 15.9412 12.6697C16.0483 12.6588 16.1597 12.6772 16.2631 12.7289ZM14.991 16.5882H17.009L16 14.5703L14.991 16.5882Z" />
</svg>
