<?xml version="1.0" standalone="no"?><!DOCTYPE svg PUBLIC "-//W3C//DTD SVG 1.1//EN" "http://www.w3.org/Graphics/SVG/1.1/DTD/svg11.dtd"><svg t="1699504005632" class="icon" viewBox="0 0 1024 1024" version="1.1" xmlns="http://www.w3.org/2000/svg" p-id="4371" xmlns:xlink="http://www.w3.org/1999/xlink" width="200" height="200"><path d="M930.9 186.2H791.3V93.1c0-51.2-41.9-93.1-93.1-93.1H325.8c-51.2 0-93.1 41.9-93.1 93.1v93.1H93.1C41.9 186.2 0 228.1 0 279.3v93.1c0 51.2 41.9 93.1 93.1 93.1v418.9c0 76.8 62.8 139.6 139.6 139.6h558.5c76.8 0 139.6-62.8 139.6-139.6V465.5c51.2 0 93.1-41.9 93.1-93.1v-93.1c0.1-51.2-41.8-93.1-93-93.1zM279.3 93.1c0-25.7 20.9-46.5 46.5-46.5h372.4c25.7 0 46.5 20.9 46.5 46.5v93.1H279.3V93.1z m605.1 791.3c0 51.3-41.8 93.1-93.1 93.1H232.7c-51.3 0-93.1-41.8-93.1-93.1V465.5h186.2v325.8h46.5V465.5h279.3v325.8h46.5V465.5h186.2v418.9z m93.1-512c0 25.7-20.9 46.5-46.5 46.5H93.1c-25.7 0-46.5-20.9-46.5-46.5v-93.1c0-25.7 20.9-46.5 46.5-46.5h837.7c25.7 0 46.5 20.9 46.5 46.5v93.1z" p-id="4372"></path></svg>