<?xml version="1.0" standalone="no"?><!DOCTYPE svg PUBLIC "-//W3C//DTD SVG 1.1//EN" "http://www.w3.org/Graphics/SVG/1.1/DTD/svg11.dtd"><svg t="1700385380565" class="icon" viewBox="0 0 1024 1024" version="1.1" xmlns="http://www.w3.org/2000/svg" p-id="1058" xmlns:xlink="http://www.w3.org/1999/xlink" width="16" height="16"><path d="M724.7731155 711.13381317H299.2268845c-3.00064625 0-5.45572081 2.31868122-5.45572081 5.18293467v41.4634787c0 2.86425348 2.45507457 5.1829347 5.45572082 5.18293528h425.54623098c3.00064625 0 5.45572081-2.31868122 5.45572082-5.18293528v-41.4634787c0-2.86425348-2.45507457-5.1829347-5.45572081-5.18293468z m-212.7731155-51.82934869c47.32837902 0 91.79250395-18.48125482 125.34518784-51.96574144C670.89787114 573.85423583 689.31092928 529.32191361 689.31092928 481.9935352V269.22041971c0-4.50096967-3.68261187-8.18358153-8.18358153-8.18358153h-40.91790644c-4.50096967 0-8.18358153 3.68261187-8.18358152 8.18358152v212.7731155c0 66.15061604-53.87524375 120.02585979-120.02585979 120.0258598s-120.02585979-53.87524375-120.02585979-120.0258598V269.22041971c0-4.50096967-3.68261187-8.18358153-8.18358152-8.18358153h-40.91790644c-4.50096967 0-8.18358153 3.68261187-8.18358153 8.18358152v212.7731155c0 47.32837902 18.48125482 91.79250395 51.96574144 125.34518784C420.13929938 640.89140635 464.67162098 659.30446448 512 659.30446448z" p-id="1059"></path></svg>