<?xml version="1.0" standalone="no"?><!DOCTYPE svg PUBLIC "-//W3C//DTD SVG 1.1//EN" "http://www.w3.org/Graphics/SVG/1.1/DTD/svg11.dtd"><svg t="1710506761502" class="icon" viewBox="0 0 1024 1024" version="1.1" xmlns="http://www.w3.org/2000/svg" p-id="8523" xmlns:xlink="http://www.w3.org/1999/xlink" width="16" height="16"><path d="M148.44864 341.333333l178.773333-181.610666a42.666667 42.666667 0 1 0-57.088-63.445334l-256 256a42.666667 42.666667 0 0 0 0 63.445334l256 256a42.666667 42.666667 0 1 0 57.088-63.445334L148.44864 426.666667H725.34464c94.250667 0 213.333333 55.082667 213.333333 213.333333s-119.082667 213.333333-213.333333 213.333333h-149.333333a42.666667 42.666667 0 1 0 0 85.333334h149.333333c141.376 0 298.666667-93.290667 298.666667-298.666667 0-205.376-157.290667-298.666667-298.666667-298.666667H148.44864z" p-id="8524"></path></svg>