<?xml version="1.0" standalone="no"?><!DOCTYPE svg PUBLIC "-//W3C//DTD SVG 1.1//EN" "http://www.w3.org/Graphics/SVG/1.1/DTD/svg11.dtd"><svg t="1712024132168" class="icon" viewBox="0 0 1024 1024" version="1.1" xmlns="http://www.w3.org/2000/svg" p-id="1637" xmlns:xlink="http://www.w3.org/1999/xlink" width="16" height="16"><path d="M626.57013898 618.93212971V405.06787029a7.63800925 7.63800925 0 0 0-7.63800928-7.63800927H557.8280556a7.63800925 7.63800925 0 0 0-7.63800929 7.63800928v213.8642594c0 4.20090509 3.43710416 7.63800925 7.63800929 7.63800927h61.1040741a7.63800925 7.63800925 0 0 0 7.63800928-7.63800926z m-152.7601853-1e-8V405.06787029a7.63800925 7.63800925 0 0 0-7.63800928-7.63800927H405.06787029a7.63800925 7.63800925 0 0 0-7.63800927 7.63800928v213.8642594c0 4.20090509 3.43710416 7.63800925 7.63800928 7.63800927h61.1040741a7.63800925 7.63800925 0 0 0 7.63800928-7.63800926zM695.31222237 321.04976838h-22.91402781a7.63800925 7.63800925 0 0 0-7.63800925 7.63800925v404.81449106c0 4.20090509 3.43710416 7.63800925 7.63800925 7.63800925h22.91402781a7.63800925 7.63800925 0 0 0 7.63800925-7.63800925V328.68777763a7.63800925 7.63800925 0 0 0-7.63800925-7.63800925z m-343.71041693 0h-22.91402781a7.63800925 7.63800925 0 0 0-7.63800925 7.63800925v404.81449106c0 4.20090509 3.43710416 7.63800925 7.63800925 7.63800925h22.91402781a7.63800925 7.63800925 0 0 0 7.63800925-7.63800925V328.68777763a7.63800925 7.63800925 0 0 0-7.63800925-7.63800925z" p-id="1638"></path></svg>