<?xml version="1.0" standalone="no"?><!DOCTYPE svg PUBLIC "-//W3C//DTD SVG 1.1//EN" "http://www.w3.org/Graphics/SVG/1.1/DTD/svg11.dtd"><svg t="1712024569215" class="icon" viewBox="0 0 1024 1024" version="1.1" xmlns="http://www.w3.org/2000/svg" p-id="2032" xmlns:xlink="http://www.w3.org/1999/xlink" width="16" height="16"><path d="M405.06787029 626.57013898L618.93212971 626.57013898a7.63800925 7.63800925 0 0 0 7.63800927-7.63800928L626.57013898 557.8280556a7.63800925 7.63800925 0 0 0-7.63800928-7.63800929l-213.8642594 0c-4.2009051 0-7.63800925 3.43710415-7.63800927 7.63800929l0 61.1040741a7.63800925 7.63800925 0 0 0 7.63800926 7.63800928z m1e-8-152.7601853L618.93212971 473.80995368a7.63800925 7.63800925 0 0 0 7.63800927-7.63800928L626.57013898 405.06787029a7.63800925 7.63800925 0 0 0-7.63800928-7.63800927l-213.8642594 0c-4.2009051 0-7.63800925 3.43710415-7.63800927 7.63800928l0 61.1040741a7.63800925 7.63800925 0 0 0 7.63800926 7.63800928zM702.95023162 695.31222237l0-22.91402781a7.63800925 7.63800925 0 0 0-7.63800925-7.63800925l-404.81449106 0c-4.2009051 0-7.63800925 3.43710415-7.63800925 7.63800925l0 22.91402781a7.63800925 7.63800925 0 0 0 7.63800925 7.63800925L695.31222237 702.95023162a7.63800925 7.63800925 0 0 0 7.63800925-7.63800925z m0-343.71041693l0-22.91402781a7.63800925 7.63800925 0 0 0-7.63800925-7.63800925l-404.81449106 0c-4.2009051 0-7.63800925 3.43710415-7.63800925 7.63800925l0 22.91402781a7.63800925 7.63800925 0 0 0 7.63800925 7.63800925L695.31222237 359.23981469a7.63800925 7.63800925 0 0 0 7.63800925-7.63800925z" p-id="2033" data-spm-anchor-id="a313x.manage_type_myprojects.0.i1.63203a81KgmuOW" class=""></path></svg>